<svg aria-hidden="true" style="position: absolute; width: 0; height: 0; overflow: hidden;" version="1.1" xmlns="http://www.w3.org/2000/svg" xmlns:xlink="http://www.w3.org/1999/xlink">
<defs>
<symbol id="element-text" viewBox="0 0 57 32">
<title>text</title>
<path d="M41.814,27.444L30.674,3.315a2.075,2.075,0,0,0-.889-0.978,2.517,2.517,0,0,0-2.568,0,2.07,2.07,0,0,0-.889.978L15.19,27.444a2.1,2.1,0,0,0-.2.782,1.565,1.565,0,0,0,.612,1.252,2.134,2.134,0,0,0,1.4.508,1.851,1.851,0,0,0,.988-0.293,1.8,1.8,0,0,0,.711-0.841l2.607-5.866H35.77l2.607,5.866a1.835,1.835,0,0,0,.691.841,1.751,1.751,0,0,0,.968.293,2.085,2.085,0,0,0,1.363-.508,1.567,1.567,0,0,0,.612-1.251,2.118,2.118,0,0,0-.2-0.782h0ZM28.541,6.835l5.807,12.944H22.774Z"/>
</symbol>
<symbol id="element-title" viewBox="0 0 57 32">
<title>title</title>
<path d="M34.857,2.012a1.847,1.847,0,0,0-1.411.568,2.055,2.055,0,0,0-.534,1.468v10.1H17.888V4.048a2.058,2.058,0,0,0-.534-1.468,2.037,2.037,0,0,0-2.822,0A2.055,2.055,0,0,0,14,4.048V27.965a2.038,2.038,0,0,0,.534,1.488A1.88,1.88,0,0,0,15.944,30a1.849,1.849,0,0,0,1.411-.568,2.056,2.056,0,0,0,.534-1.468V17.435H32.913v10.53a2.038,2.038,0,0,0,.534,1.488A1.88,1.88,0,0,0,34.857,30a1.849,1.849,0,0,0,1.411-.568,2.056,2.056,0,0,0,.534-1.468V4.048a2.058,2.058,0,0,0-.534-1.468,1.849,1.849,0,0,0-1.411-.568h0Z"/>
<path d="M43.174,13.24l-4.222,2.454a1.078,1.078,0,0,0-.532,1.6,0.98,0.98,0,0,0,1.565.317l2.494-1.439,0.081,12.507a1.455,1.455,0,0,0,.161.729,1.06,1.06,0,0,0,.729.554,1.209,1.209,0,0,0,.914-0.137,1.308,1.308,0,0,0,.633-1.2L44.873,14.666a2.149,2.149,0,0,0-.23-1.028,1.06,1.06,0,0,0-.619-0.545,1.037,1.037,0,0,0-.85.148h0Z"/>
</symbol>
<symbol id="element-bullets" viewBox="0 0 24 24">
<title>bullets</title>
<path d="M8 7h13c0.6 0 1-0.4 1-1s-0.4-1-1-1h-13c-0.6 0-1 0.4-1 1s0.4 1 1 1z"></path>
<path d="M21 11h-13c-0.6 0-1 0.4-1 1s0.4 1 1 1h13c0.6 0 1-0.4 1-1s-0.4-1-1-1z"></path>
<path d="M21 17h-13c-0.6 0-1 0.4-1 1s0.4 1 1 1h13c0.6 0 1-0.4 1-1s-0.4-1-1-1z"></path>
<path d="M2.3 5.3c-0.2 0.2-0.3 0.4-0.3 0.7s0.1 0.5 0.3 0.7c0.2 0.2 0.4 0.3 0.7 0.3s0.5-0.1 0.7-0.3c0.2-0.2 0.3-0.4 0.3-0.7s-0.1-0.5-0.3-0.7c-0.4-0.4-1-0.4-1.4 0z"></path>
<path d="M2.3 11.3c-0.2 0.2-0.3 0.4-0.3 0.7s0.1 0.5 0.3 0.7c0.2 0.2 0.4 0.3 0.7 0.3s0.5-0.1 0.7-0.3c0.2-0.2 0.3-0.4 0.3-0.7s-0.1-0.5-0.3-0.7c-0.4-0.4-1-0.4-1.4 0z"></path>
<path d="M2.3 17.3c-0.2 0.2-0.3 0.4-0.3 0.7s0.1 0.5 0.3 0.7c0.2 0.2 0.4 0.3 0.7 0.3s0.5-0.1 0.7-0.3c0.2-0.2 0.3-0.4 0.3-0.7s-0.1-0.5-0.3-0.7c-0.4-0.4-1-0.4-1.4 0z"></path>
</symbol>
<symbol id="element-button" viewBox="0 0 57 32">
<title>button</title>
<path d="M25.957,18.824a2.63,2.63,0,0,0,1.35-.336,2.25,2.25,0,0,0,.887-0.951,3.528,3.528,0,0,0,0-2.89,2.2,2.2,0,0,0-.883-0.947,2.94,2.94,0,0,0-2.714,0,2.228,2.228,0,0,0-.887.947,3.511,3.511,0,0,0,0,2.89,2.25,2.25,0,0,0,.887.951,2.645,2.645,0,0,0,1.357.336h0Zm0-1.064a1.078,1.078,0,0,1-.9-0.423,2.015,2.015,0,0,1-.326-1.245,2,2,0,0,1,.326-1.241,1.18,1.18,0,0,1,1.806,0,1.985,1.985,0,0,1,.329,1.238,2.017,2.017,0,0,1-.326,1.241,1.074,1.074,0,0,1-.9.426h0Zm7.644-.045-1.607-1.72,1.484-1.517a0.643,0.643,0,0,0,.21-0.46,0.6,0.6,0,0,0-.181-0.434,0.559,0.559,0,0,0-.847.019l-2.034,2.136v-1.66a0.677,0.677,0,0,0-.181-0.494,0.658,0.658,0,0,0-.492-0.185,0.636,0.636,0,0,0-.481.185,0.684,0.684,0,0,0-.177.494v4.037a0.694,0.694,0,0,0,.177.5,0.636,0.636,0,0,0,.481.185,0.657,0.657,0,0,0,.492-0.185,0.687,0.687,0,0,0,.181-0.5V16.334l2.063,2.2a0.664,0.664,0,0,0,.492.242,0.573,0.573,0,0,0,.427-0.189,0.613,0.613,0,0,0,.181-0.438,0.6,0.6,0,0,0-.188-0.438h0Z"/>
<path d="M45.22,7H11.78A3.794,3.794,0,0,0,8,10.941V21.059A3.794,3.794,0,0,0,11.78,25H45.22A3.794,3.794,0,0,0,49,21.059V10.941A3.794,3.794,0,0,0,45.22,7h0Zm1.26,14.06a1.216,1.216,0,0,1-1.26,1.314H11.78a1.216,1.216,0,0,1-1.26-1.314V10.941a1.216,1.216,0,0,1,1.26-1.314H45.22a1.216,1.216,0,0,1,1.26,1.314V21.06h0Z"/>
</symbol>
<symbol id="element-graphic" viewBox="0 0 57 32">
<title>graphic</title>
<path d="M23.7,12.058a9.793,9.793,0,0,0-13.831,0,9.655,9.655,0,0,0,0,13.75,9.793,9.793,0,0,0,13.831,0,9.654,9.654,0,0,0,0-13.75h0Zm-12,11.926a7.084,7.084,0,0,1,0-10.1,7.186,7.186,0,0,1,10.162,0,7.084,7.084,0,0,1,0,10.1,7.185,7.185,0,0,1-10.162,0h0Z"/>
<path d="M40.336,19.245L34.289,3.083a3.278,3.278,0,0,0-4.113-1.911,2.5,2.5,0,0,0-1.208.843h0L17.745,15.163a3.207,3.207,0,0,0,.385,4.421,2.4,2.4,0,0,0,1.365.671l17.457,3.154a2.83,2.83,0,0,0,2.32-.536,2.994,2.994,0,0,0,1.305-1.993,3.989,3.989,0,0,0-.241-1.635h0ZM37.7,20.577a1.055,1.055,0,0,1-.728.169l-16.43-2.969a0.885,0.885,0,0,1-.466-0.184,1.1,1.1,0,0,1-.147-1.428l10.631-12.2A0.83,0.83,0,0,1,30.9,3.729a1.057,1.057,0,0,1,1.3.536L38,19.43a0.742,0.742,0,0,1,.011.5,0.831,0.831,0,0,1-.313.644h0Z"/>
<path d="M46.081,11.545H32.389a2.873,2.873,0,0,0-2.934,2.917V28.074a2.873,2.873,0,0,0,2.934,2.917H46.081a2.873,2.873,0,0,0,2.934-2.917V14.462a2.873,2.873,0,0,0-2.934-2.917h0Zm0.326,15.962a0.845,0.845,0,0,1-.9.891H32.959a0.845,0.845,0,0,1-.9-0.891V15.029a0.845,0.845,0,0,1,.9-0.891H45.511a0.845,0.845,0,0,1,.9.891V27.507h0Z"/>
</symbol>
<symbol id="element-image_gallery" viewBox="0 0 24 24">
<title>image_gallery</title>
<path d="M21 5h-3.5l-1.7-2.6c-0.2-0.2-0.5-0.4-0.8-0.4h-6c-0.3 0-0.6 0.2-0.8 0.4l-1.7 2.6h-3.5c-1.7 0-3 1.3-3 3v11c0 1.7 1.3 3 3 3h18c1.7 0 3-1.3 3-3v-11c0-1.7-1.3-3-3-3zM22 19c0 0.6-0.4 1-1 1h-18c-0.6 0-1-0.4-1-1v-11c0-0.6 0.4-1 1-1h4c0.3 0 0.6-0.2 0.8-0.4l1.7-2.6h4.9l1.7 2.6c0.3 0.2 0.6 0.4 0.9 0.4h4c0.6 0 1 0.4 1 1v11z"></path>
<path d="M12 8c-2.8 0-5 2.2-5 5s2.2 5 5 5 5-2.2 5-5-2.2-5-5-5zM12 16c-1.7 0-3-1.3-3-3s1.3-3 3-3 3 1.3 3 3-1.3 3-3 3z"></path>
</symbol>
<symbol id="element-image_text" viewBox="0 0 57 32">
<title>image_text</title>
<path d="M25.26,4H7.752A3.613,3.613,0,0,0,4,7.6V24.4A3.613,3.613,0,0,0,7.752,28H25.26a3.613,3.613,0,0,0,3.752-3.6V7.6A3.613,3.613,0,0,0,25.26,4h0ZM6.5,7.6A1.158,1.158,0,0,1,7.752,6.4H25.26a1.158,1.158,0,0,1,1.251,1.2v9.12l-4.127-3.96a1.244,1.244,0,0,0-1.751,0L7.377,25.48A1.162,1.162,0,0,1,6.5,24.4V7.6h0Zm18.759,18H10.753L21.508,15.28l5,4.8V24.4a1.158,1.158,0,0,1-1.251,1.2h0ZM12.129,14.8a3,3,0,1,0,0-6,3,3,0,1,0,0,6h0Zm0-3.6a0.6,0.6,0,1,1-.625.6,0.579,0.579,0,0,1,.625-0.6h0Z"/>
<path d="M51.726,14.725H34.6a1.247,1.247,0,1,0,0,2.493H51.726a1.247,1.247,0,1,0,0-2.493h0ZM34.6,9.739H51.726A1.191,1.191,0,0,0,53,8.492a1.191,1.191,0,0,0-1.274-1.247H34.6a1.191,1.191,0,0,0-1.274,1.247A1.191,1.191,0,0,0,34.6,9.739h0ZM46.918,22.2H34.6a1.247,1.247,0,1,0,0,2.493H46.918a1.247,1.247,0,1,0,0-2.493h0Z"/>
</symbol>
<symbol id="element-image" viewBox="0 0 24 24">
<title>image</title>
<path d="M19 2h-14c-1.7 0-3 1.3-3 3v14c0 1.7 1.3 3 3 3h14c1.7 0 3-1.3 3-3v-14c0-1.7-1.3-3-3-3zM4 5c0-0.6 0.4-1 1-1h14c0.6 0 1 0.4 1 1v7.6l-3.3-3.3c-0.4-0.4-1-0.4-1.4 0l-10.6 10.6c-0.4-0.1-0.7-0.5-0.7-0.9v-14zM19 20h-11.6l8.6-8.6 4 4v3.6c0 0.6-0.4 1-1 1z"></path>
<path d="M8.5 11c1.4 0 2.5-1.1 2.5-2.5s-1.1-2.5-2.5-2.5-2.5 1.1-2.5 2.5 1.1 2.5 2.5 2.5zM8.5 8c0.3 0 0.5 0.2 0.5 0.5s-0.2 0.5-0.5 0.5-0.5-0.2-0.5-0.5 0.2-0.5 0.5-0.5z"></path>
</symbol>
<symbol id="element-upsell_image" viewBox="0 0 24 24">
	<title>image</title>
	<path d="M19 2h-14c-1.7 0-3 1.3-3 3v14c0 1.7 1.3 3 3 3h14c1.7 0 3-1.3 3-3v-14c0-1.7-1.3-3-3-3zM4 5c0-0.6 0.4-1 1-1h14c0.6 0 1 0.4 1 1v7.6l-3.3-3.3c-0.4-0.4-1-0.4-1.4 0l-10.6 10.6c-0.4-0.1-0.7-0.5-0.7-0.9v-14zM19 20h-11.6l8.6-8.6 4 4v3.6c0 0.6-0.4 1-1 1z"></path>
	<path d="M8.5 11c1.4 0 2.5-1.1 2.5-2.5s-1.1-2.5-2.5-2.5-2.5 1.1-2.5 2.5 1.1 2.5 2.5 2.5zM8.5 8c0.3 0 0.5 0.2 0.5 0.5s-0.2 0.5-0.5 0.5-0.5-0.2-0.5-0.5 0.2-0.5 0.5-0.5z"></path>
</symbol>
<symbol id="element-seform" viewBox="0 0 57 32">
<title>seform</title>
<path d="M46.827,3H10.173A3.091,3.091,0,0,0,7,6.12v6.141a3.091,3.091,0,0,0,3.173,3.12H46.827A3.091,3.091,0,0,0,50,12.261V6.12A3.091,3.091,0,0,0,46.827,3h0Zm1.058,9.261a0.991,0.991,0,0,1-1.058,1.04H10.173a0.991,0.991,0,0,1-1.058-1.04V6.12a0.991,0.991,0,0,1,1.058-1.04H46.827a0.991,0.991,0,0,1,1.058,1.04v6.141h0Z"/>
<path d="M36.468,18.683H20.111A3.319,3.319,0,0,0,16.7,22.025v3.632A3.319,3.319,0,0,0,20.111,29H36.468a3.319,3.319,0,0,0,3.415-3.343V22.025a3.319,3.319,0,0,0-3.415-3.343h0ZM26.173,26.237a2.5,2.5,0,0,0,1.22-.285,1.963,1.963,0,0,0,.8-0.807,2.828,2.828,0,0,0,0-2.452,1.924,1.924,0,0,0-.8-0.8,2.809,2.809,0,0,0-2.452,0,1.944,1.944,0,0,0-.8.8,2.813,2.813,0,0,0,0,2.452,1.962,1.962,0,0,0,.8.807,2.513,2.513,0,0,0,1.226.285h0Zm0-.9a1,1,0,0,1-.817-0.358,2.037,2.037,0,0,1,0-2.109,1.111,1.111,0,0,1,1.631,0,1.608,1.608,0,0,1,.3,1.05,1.634,1.634,0,0,1-.294,1.053,1,1,0,0,1-.817.362h0Zm6.9-.038-1.452-1.459,1.341-1.287a0.532,0.532,0,0,0,.19-0.39,0.494,0.494,0,0,0-.163-0.368,0.526,0.526,0,0,0-.765.016L30.39,23.619V22.211a0.554,0.554,0,0,0-.163-0.419,0.616,0.616,0,0,0-.445-0.157,0.6,0.6,0,0,0-.435.157,0.56,0.56,0,0,0-.16.419v3.425a0.568,0.568,0,0,0,.16.426,0.594,0.594,0,0,0,.435.157,0.615,0.615,0,0,0,.445-0.157,0.562,0.562,0,0,0,.163-0.426V24.125l1.864,1.869a0.616,0.616,0,0,0,.445.2,0.533,0.533,0,0,0,.386-0.16,0.5,0.5,0,0,0,.163-0.371,0.5,0.5,0,0,0-.17-0.371h0Z"/>
</symbol>
<symbol id="element-video" viewBox="0 0 24 24">
<title>video</title>
<path d="M23.5 6.2c0 0 0 0 0 0-0.3-1.4-1.4-2.4-2.7-2.8-1.7-0.4-8.1-0.4-8.8-0.4s-7.1 0-8.9 0.5c-1.3 0.4-2.3 1.4-2.6 2.8-0.3 1.8-0.5 3.6-0.5 5.4s0.1 3.7 0.5 5.6c0.4 1.3 1.4 2.3 2.6 2.6 1.8 0.5 8.1 0.5 8.9 0.5s7.1 0 8.9-0.5c1.3-0.4 2.3-1.4 2.7-2.8 0.3-1.8 0.5-3.6 0.5-5.4-0.1-1.8-0.2-3.6-0.6-5.5zM21.6 16.8c-0.2 0.6-0.6 1.1-1.2 1.3-1.2 0.3-5.6 0.4-8.3 0.4s-7.3-0.2-8.4-0.5c-0.6-0.2-1.1-0.6-1.2-1.1-0.4-1.7-0.5-3.4-0.5-5.2 0-1.7 0.1-3.4 0.4-5 0.2-0.6 0.6-1.1 1.2-1.3 1.2-0.3 5.7-0.4 8.4-0.4 1.9 0 7 0.1 8.3 0.4 0.6 0.2 1.1 0.6 1.2 1.3 0.4 1.6 0.5 3.3 0.5 5.1 0 1.7-0.1 3.4-0.4 5z"></path>
<path d="M16 10.9l-5.8-3.3c-0.3-0.2-0.7-0.2-1 0s-0.4 0.5-0.4 0.9v6.5c0 0.4 0.2 0.7 0.5 0.9 0.1 0.1 0.3 0.1 0.5 0.1s0.3 0 0.5-0.1l5.8-3.3c0.3-0.2 0.5-0.5 0.5-0.9-0.1-0.3-0.3-0.6-0.6-0.8zM10.8 13.3v-3.1l2.7 1.6-2.7 1.5z"></path>
</symbol>
<symbol id="element-numbers" viewBox="0 0 57 32">
<title>numbers</title>
<path d="M20.829,10.666a6.643,6.643,0,0,0-3.466.917,5.307,5.307,0,0,0-2.223,2.5V14.024a12.911,12.911,0,0,1,1.43-6.637,4.455,4.455,0,0,1,4.01-2.378,8.262,8.262,0,0,1,4.974,2.021,2.787,2.787,0,0,0,.544.311,1.369,1.369,0,0,0,.513.093,0.928,0.928,0,0,0,.746-0.389A1.472,1.472,0,0,0,27.668,6.1a1.59,1.59,0,0,0-.622-1.244,8.928,8.928,0,0,0-3.015-1.8A10.191,10.191,0,0,0,20.487,2.4a7.57,7.57,0,0,0-4.57,1.4,8.741,8.741,0,0,0-2.953,4.026,17.212,17.212,0,0,0-1.026,6.264q0,5.161,2.192,7.943a7.506,7.506,0,0,0,6.264,2.782,7.452,7.452,0,0,0,3.715-.917,6.66,6.66,0,0,0,2.565-2.549,7.292,7.292,0,0,0,.933-3.684,7.545,7.545,0,0,0-.855-3.637,6.149,6.149,0,0,0-2.409-2.471,6.969,6.969,0,0,0-3.513-.886h0ZM20.238,22.2a4.3,4.3,0,0,1-3.2-1.228,4.422,4.422,0,0,1-1.212-3.249,4.213,4.213,0,0,1,4.415-4.446,4.067,4.067,0,0,1,3.093,1.228A4.482,4.482,0,0,1,24.5,17.723a4.523,4.523,0,0,1-1.166,3.249A4.065,4.065,0,0,1,20.238,22.2h0ZM36.647,2.4a7.455,7.455,0,0,0-3.715.917,6.663,6.663,0,0,0-2.565,2.549,7.292,7.292,0,0,0-.933,3.684,7.539,7.539,0,0,0,.855,3.637A6.142,6.142,0,0,0,32.7,15.656a6.966,6.966,0,0,0,3.513.886,6.64,6.64,0,0,0,3.466-.917,5.307,5.307,0,0,0,2.223-2.5v0.062a12.914,12.914,0,0,1-1.43,6.637,4.457,4.457,0,0,1-4.01,2.378,8.258,8.258,0,0,1-4.974-2.021,2.828,2.828,0,0,0-.544-0.311,1.369,1.369,0,0,0-.513-0.093,0.928,0.928,0,0,0-.746.389,1.47,1.47,0,0,0-.311.948,1.587,1.587,0,0,0,.622,1.244,8.916,8.916,0,0,0,3.016,1.8,10.191,10.191,0,0,0,3.544.653,7.572,7.572,0,0,0,4.57-1.4,8.741,8.741,0,0,0,2.953-4.026A17.208,17.208,0,0,0,45.1,13.122q0-5.16-2.192-7.943A7.508,7.508,0,0,0,36.647,2.4h0ZM36.8,13.931A4.064,4.064,0,0,1,33.709,12.7a4.48,4.48,0,0,1-1.166-3.218,4.525,4.525,0,0,1,1.166-3.249A4.066,4.066,0,0,1,36.8,5.008,4.3,4.3,0,0,1,40,6.236a4.424,4.424,0,0,1,1.212,3.249A4.213,4.213,0,0,1,36.8,13.931h0Z"/>
<path d="M42.625,28H15.375a1.051,1.051,0,1,0,0,2h27.25a1.051,1.051,0,1,0,0-2h0Z"/>
</symbol>
<symbol id="element-faq" viewBox="0 0 24 24">
<title>faq</title>
<path d="M12 1c-6.1 0-11 4.9-11 11s4.9 11 11 11 11-4.9 11-11-4.9-11-11-11zM12 21c-5 0-9-4-9-9s4-9 9-9c5 0 9 4 9 9s-4 9-9 9z"></path>
<path d="M13.2 6.2c-2.1-0.7-4.4 0.4-5.1 2.4-0.1 0.6 0.1 1.2 0.7 1.3 0.5 0.2 1.1-0.1 1.3-0.6 0.4-1 1.5-1.6 2.6-1.2 0.8 0.3 1.3 1 1.3 1.9 0 1-1.7 1.8-2.3 2.1-0.5 0.2-0.8 0.7-0.6 1.3 0.1 0.4 0.5 0.7 0.9 0.7 0.1 0 0.2 0 0.3-0.1 0.4-0.1 3.7-1.3 3.7-3.9-0.1-1.8-1.2-3.3-2.8-3.9z"></path>
<path d="M11.3 16.3c-0.2 0.2-0.3 0.4-0.3 0.7s0.1 0.5 0.3 0.7c0.2 0.2 0.4 0.3 0.7 0.3s0.5-0.1 0.7-0.3c0.2-0.2 0.3-0.5 0.3-0.7s-0.1-0.5-0.3-0.7c-0.4-0.4-1-0.4-1.4 0z"></path>
</symbol>
<symbol id="element-google_map" viewBox="0 0 24 24">
<title>google_map</title>
<path d="M23.5 1.1c-0.3-0.2-0.7-0.2-1 0l-6.5 3.8-7.6-3.8c0 0 0 0 0 0s0 0-0.1 0c-0.1-0.1-0.2-0.1-0.3-0.1 0 0 0 0 0 0s0 0 0 0c-0.1 0-0.2 0-0.4 0.1 0 0 0 0-0.1 0 0 0-0.1 0-0.1 0l-7 4c-0.2 0.2-0.4 0.5-0.4 0.9v16c0 0.4 0.2 0.7 0.5 0.9s0.7 0.2 1 0l6.5-3.8 7.5 3.8c0 0 0 0 0 0 0.2 0.1 0.3 0.1 0.5 0.1 0.1 0 0.2 0 0.3-0.1 0 0 0.1 0 0.1 0s0 0 0.1 0l7-4c0.3-0.2 0.5-0.5 0.5-0.9v-16c0-0.4-0.2-0.7-0.5-0.9zM9 3.6l6 3v13.8l-6-3v-13.8zM2 6.6l5-2.9v13.7l-5 2.9v-13.7zM22 17.4l-5 2.9v-13.7l5-2.9v13.7z"></path>
</symbol>
<symbol id="element-link" viewBox="0 0 24 24">
<title>link</title>
<path d="M21.1 2.8c-2.3-2.3-6-2.3-8.3 0l-1.8 1.7c-0.4 0.4-0.4 1 0 1.4s1 0.4 1.4 0l1.7-1.7c1.6-1.5 4-1.5 5.6 0s1.6 4.1 0.1 5.6l-3 3c-0.1 0.1-0.3 0.3-0.4 0.4-1.8 1.3-4.3 1-5.6-0.8-0.3-0.4-1-0.5-1.4-0.2s-0.5 1-0.2 1.4c1.2 1.6 3 2.4 4.8 2.4 1.2 0 2.5-0.4 3.6-1.2 0.2-0.2 0.4-0.4 0.7-0.6l3-3c2.3-2.3 2.2-6.2-0.2-8.4z"></path>
<path d="M11.5 18.1l-1.7 1.7c-1.6 1.5-4 1.5-5.6 0s-1.6-4.1-0.1-5.6l3-3c0.1-0.1 0.3-0.3 0.4-0.4 0.9-0.6 1.9-0.9 3-0.8 1.1 0.2 2 0.7 2.6 1.6 0.3 0.4 1 0.5 1.4 0.2s0.5-1 0.2-1.4c-1-1.3-2.4-2.1-3.9-2.3-1.5-0.3-3.1 0.1-4.4 1.1-0.2 0.2-0.4 0.4-0.6 0.6l-3 3c-2.3 2.4-2.2 6.2 0.1 8.5 1.2 1.1 2.7 1.7 4.2 1.7s3-0.6 4.2-1.7l1.7-1.7c0.4-0.4 0.4-1 0-1.4s-1.1-0.5-1.5-0.1z"></path>
</symbol>
<symbol id="element-html" viewBox="0 0 57 32">
<title>html</title>
<path stroke="null" d="m21.871082,25.197989l-1.052495,1.052495q-0.210499,0.210499 -0.484148,0.210499t-0.484148,-0.210499l-9.809255,-9.809255q-0.210499,-0.210499 -0.210499,-0.484148t0.210499,-0.484148l9.809255,-9.809255q0.210499,-0.210499 0.484148,-0.210499t0.484148,0.210499l1.052495,1.052495q0.210499,0.210499 0.210499,0.484148t-0.210499,0.484148l-8.272612,8.272612l8.272612,8.272612q0.210499,0.210499 0.210499,0.484148t-0.210499,0.484148zm12.440493,-22.460248l-7.851614,27.175426q-0.0842,0.273649 -0.326274,0.410473t-0.494673,0.052625l-1.305094,-0.357848q-0.273649,-0.0842 -0.410473,-0.326274t-0.052625,-0.515723l7.851614,-27.175426q0.0842,-0.273649 0.326274,-0.410473t0.494673,-0.052625l1.305094,0.357848q0.273649,0.0842 0.410473,0.326274t0.052625,0.515723zm13.829787,13.703488l-9.809255,9.809255q-0.210499,0.210499 -0.484148,0.210499t-0.484148,-0.210499l-1.052495,-1.052495q-0.210499,-0.210499 -0.210499,-0.484148t0.210499,-0.484148l8.272612,-8.272612l-8.272612,-8.272612q-0.210499,-0.210499 -0.210499,-0.484148t0.210499,-0.484148l1.052495,-1.052495q0.210499,-0.210499 0.484148,-0.210499t0.484148,0.210499l9.809255,9.809255q0.210499,0.210499 0.210499,0.484148t-0.210499,0.484148z"/>
</symbol>
<symbol id="element-social_icons" viewBox="0 0 50 50">
<title>social_icons</title>
<path stroke="null" d="m25.048635,48.874057c-6.601047,0 -12.590431,-2.654259 -16.877652,-7.009566c-4.355307,-4.288337 -7.009566,-10.276605 -7.009566,-16.878768c0,-6.601047 2.654259,-12.590431 7.009566,-16.946855c4.28722,-4.355307 10.276605,-7.009566 16.877652,-7.009566c6.602163,0 12.590431,2.654259 16.945738,7.009566c4.288337,4.355307 6.943712,10.345807 6.943712,16.946855c0,6.602163 -2.655376,12.590431 -6.943712,16.878768c-4.356423,4.355307 -10.344691,7.009566 -16.945738,7.009566zm-2.654259,-27.495805l-3.539385,0l0,4.42451l3.539385,0l0,10.753211l4.42451,0l0,-10.753211l4.423394,0l0,-4.42451l-4.423394,0l0,-2.24574c0,-0.748952 0.407403,-1.361731 0.882893,-1.361731l3.540501,0l0,-4.355307l-3.540501,0c-2.926606,0 -5.307403,2.586173 -5.307403,5.785125l0,2.177654z"/>
</symbol>
<symbol id="element-catalog" viewBox="0 0 24 24">
<title>catalog</title>
<path d="M10 2h-7c-0.6 0-1 0.4-1 1v7c0 0.6 0.4 1 1 1h7c0.6 0 1-0.4 1-1v-7c0-0.6-0.4-1-1-1zM9 9h-5v-5h5v5z"></path>
<path d="M21 2h-7c-0.6 0-1 0.4-1 1v7c0 0.6 0.4 1 1 1h7c0.6 0 1-0.4 1-1v-7c0-0.6-0.4-1-1-1zM20 9h-5v-5h5v5z"></path>
<path d="M21 13h-7c-0.6 0-1 0.4-1 1v7c0 0.6 0.4 1 1 1h7c0.6 0 1-0.4 1-1v-7c0-0.6-0.4-1-1-1zM20 20h-5v-5h5v5z"></path>
<path d="M10 13h-7c-0.6 0-1 0.4-1 1v7c0 0.6 0.4 1 1 1h7c0.6 0 1-0.4 1-1v-7c0-0.6-0.4-1-1-1zM9 20h-5v-5h5v5z"></path>
</symbol>
<symbol id="element-testimonials" viewBox="0 0 24 24">
<title>testimonials</title>
<path d="M22 10.9c-0.3-4.8-4.1-8.7-9-8.9h-0.5c0 0 0 0 0 0-1.5 0-2.9 0.3-4.2 1-3.3 1.6-5.3 4.9-5.3 8.5 0 1.3 0.3 2.7 0.8 3.9l-1.8 5.3c-0.1 0.4 0 0.8 0.2 1 0.3 0.2 0.5 0.3 0.8 0.3 0.1 0 0.2 0 0.3-0.1l5.3-1.8c1.2 0.5 2.5 0.8 3.9 0.8 3.6 0 6.9-2 8.5-5.2 0.7-1.3 1-2.8 1-4.3v-0.5zM20 11.5c0 0 0 0 0 0 0 1.2-0.3 2.3-0.8 3.4-1.3 2.6-3.8 4.1-6.7 4.1-1.2 0-2.3-0.3-3.3-0.8-0.2-0.1-0.5-0.1-0.8-0.1l-3.8 1.3 1.3-3.8c0.1-0.3 0.1-0.5-0.1-0.8-0.5-1-0.8-2.2-0.8-3.3 0-2.9 1.6-5.4 4.2-6.7 1-0.5 2.2-0.8 3.3-0.8 0 0 0 0 0 0h0.4c3.8 0.2 6.8 3.2 7.1 7v0.5z"></path>
</symbol>
<symbol id="element-peoples" viewBox="0 0 24 24">
<title>peoples</title>
<path d="M13 14h-8c-2.8 0-5 2.2-5 5v2c0 0.6 0.4 1 1 1s1-0.4 1-1v-2c0-1.7 1.3-3 3-3h8c1.7 0 3 1.3 3 3v2c0 0.6 0.4 1 1 1s1-0.4 1-1v-2c0-2.8-2.2-5-5-5z"></path>
<path d="M9 12c2.8 0 5-2.2 5-5s-2.2-5-5-5-5 2.2-5 5 2.2 5 5 5zM9 4c1.7 0 3 1.3 3 3s-1.3 3-3 3-3-1.3-3-3 1.3-3 3-3z"></path>
<path d="M20.2 14.2c-0.5-0.1-1.1 0.2-1.2 0.7s0.2 1.1 0.7 1.2c1.3 0.3 2.2 1.5 2.2 2.9v2c0 0.6 0.4 1 1 1s1-0.4 1-1v-2c0.1-2.3-1.4-4.3-3.7-4.8z"></path>
<path d="M16.2 2.2c-0.5-0.2-1 0.1-1.2 0.7-0.1 0.5 0.2 1.1 0.7 1.2 1.6 0.4 2.6 2 2.2 3.7-0.3 1.1-1.1 1.9-2.2 2.2-0.5 0.1-0.9 0.7-0.7 1.2 0.1 0.5 0.5 0.8 1 0.8 0.1 0 0.2 0 0.2 0 1.8-0.5 3.2-1.8 3.6-3.6 0.7-2.8-0.9-5.6-3.6-6.2z"></path>
</symbol>
<symbol id="element-features" viewBox="0 0 57 24">
<title>features</title>
<path d="M46.726,18.725H32.6a1.247,1.247,0,1,0,0,2.493H46.726a1.247,1.247,0,1,0,0-2.493h0ZM32.6,13.739H51.726a1.247,1.247,0,1,0,0-2.493H32.6a1.247,1.247,0,1,0,0,2.493h0Z"/>
<path d="M26.938,13.054a1.072,1.072,0,0,0-.869-0.8l-6.954-1.027L15.964,4.607a1.1,1.1,0,0,0-1.956,0l-3.151,6.506L4.012,12.255a1.17,1.17,0,0,0-.978.8A1.064,1.064,0,0,0,3.36,14.2l5,5.137-1.2,7.305a1.147,1.147,0,0,0,1.63,1.256l6.193-3.424,6.193,3.424h0.543a1.494,1.494,0,0,0,.652-0.228,1.111,1.111,0,0,0,.435-1.142l-1.2-7.305,5-5.137a0.947,0.947,0,0,0,.326-1.027h0Zm-7.28,5.023a1.9,1.9,0,0,0-.326,1.027L20.2,24.7l-4.781-2.625a0.784,0.784,0,0,0-.978,0L9.662,24.7,10.64,19.1a1.9,1.9,0,0,0-.326-1.027L6.4,14.2l5.324-.8a1.485,1.485,0,0,0,.869-0.571l2.39-5.137,2.39,5.023a0.86,0.86,0,0,0,.869.571l5.324,0.8-3.912,4h0Z"/>
</symbol>
<symbol id="element-contactform" viewBox="0 0 24 24">
<title>contactform</title>
<path d="M20 3h-16c-1.7 0-3 1.3-3 3v12c0 1.7 1.3 3 3 3h16c1.7 0 3-1.3 3-3v-12c0-1.7-1.3-3-3-3zM4 5h16c0.4 0 0.7 0.2 0.9 0.6l-8.9 6.2-8.9-6.2c0.2-0.4 0.5-0.6 0.9-0.6zM20 19h-16c-0.6 0-1-0.4-1-1v-10.1l8.4 5.9c0.2 0.1 0.4 0.2 0.6 0.2s0.4-0.1 0.6-0.2l8.4-5.9v10.1c0 0.6-0.4 1-1 1z"></path>
</symbol>
<symbol id="element-table" viewBox="0 0 26 26">
<title>table</title>
<path d="M 12.90625 -0.03125 A 1.0001 1.0001 0 0 0 12.78125 0 L 1 0 A 1.0001 1.0001 0 0 0 0.90625 0 A 1.0001 1.0001 0 0 0 0 1 L 0 8.6875 A 1.001098 1.001098 0 0 0 0 9.28125 L 0 16.6875 A 1.001098 1.001098 0 0 0 0 17.28125 L 0 25 A 1.0001 1.0001 0 0 0 1 26 L 25 26 A 1.0001 1.0001 0 0 0 26 25 L 26 17.1875 A 1.0001 1.0001 0 0 0 26 16.78125 L 26 9.1875 A 1.0001 1.0001 0 0 0 26 8.78125 L 26 1 A 1.0001 1.0001 0 0 0 25 0 L 13.1875 0 A 1.0001 1.0001 0 0 0 12.90625 -0.03125 z M 2 2 L 12 2 L 12 8 L 2 8 L 2 2 z M 14 2 L 24 2 L 24 8 L 14 8 L 14 2 z M 2 10 L 12 10 L 12 16 L 2 16 L 2 10 z M 14 10 L 24 10 L 24 16 L 14 16 L 14 10 z M 2 18 L 12 18 L 12 24 L 2 24 L 2 18 z M 14 18 L 24 18 L 24 24 L 14 24 L 14 18 z" ></path>
</symbol>
<symbol id="element-like" viewBox="0 0 24 24">
<title>like</title>
<path d="M22.1 9.2c-0.5-0.6-1.2-1.1-2-1.2-0.2 0-0.3 0-0.5 0h-4.6v-3c0-2.2-1.8-4-4-4-0.4 0-0.8 0.2-0.9 0.6l-3.7 8.4h-2.4c-1.7 0-3 1.3-3 3v7c0 1.7 1.3 3 3 3h14.3c0 0 0 0 0 0 1.5 0 2.7-1.1 3-2.5l1.4-9c0.1-0.8-0.1-1.6-0.6-2.3zM6 21h-2c-0.6 0-1-0.4-1-1v-7c0-0.6 0.4-1 1-1h2v9zM19.3 20.2c-0.1 0.5-0.5 0.8-1 0.8 0 0 0 0 0 0h-10.3v-9.8l3.6-8.1c0.8 0.3 1.4 1 1.4 1.9v4c0 0.6 0.4 1 1 1h5.7c0.1 0 0.1 0 0.2 0 0.3 0 0.5 0.2 0.7 0.4s0.2 0.5 0.2 0.7l-1.5 9.1z"></path>
</symbol>
<symbol id="element-fac_share" viewBox="0 0 24 24">
<title>fac_share</title>
<path d="M18 15c-1.1 0-2.1 0.5-2.8 1.2l-5.3-3.1c0-0.4 0.1-0.7 0.1-1.1s-0.1-0.7-0.2-1.1l5.3-3.1c0.8 0.7 1.8 1.2 2.9 1.2 2.2 0 4-1.8 4-4s-1.8-4-4-4-4 1.8-4 4c0 0.4 0.1 0.7 0.2 1.1l-5.4 3.1c-0.7-0.7-1.7-1.2-2.8-1.2-2.2 0-4 1.8-4 4s1.8 4 4 4c1.1 0 2.1-0.5 2.8-1.2l5.3 3.1c0 0.4-0.1 0.7-0.1 1.1 0 2.2 1.8 4 4 4s4-1.8 4-4-1.8-4-4-4zM18 3c1.1 0 2 0.9 2 2s-0.9 2-2 2-2-0.9-2-2 0.9-2 2-2zM6 14c-1.1 0-2-0.9-2-2s0.9-2 2-2 2 0.9 2 2c0 1.1-0.9 2-2 2zM18 21c-1.1 0-2-0.9-2-2 0-0.4 0.1-0.7 0.3-1 0 0 0 0 0 0s0 0 0 0c0.3-0.6 1-1 1.7-1 1.1 0 2 0.9 2 2s-0.9 2-2 2z"></path>
</symbol>
<symbol id="element-wpcomments" viewBox="0 0 24 24">
<title>wpcomments</title>
<path d="M19 2h-14c-1.7 0-3 1.3-3 3v16c0 0.4 0.2 0.8 0.6 0.9 0.1 0.1 0.3 0.1 0.4 0.1 0.3 0 0.5-0.1 0.7-0.3l3.7-3.7h11.6c1.7 0 3-1.3 3-3v-10c0-1.7-1.3-3-3-3zM20 15c0 0.6-0.4 1-1 1h-12c-0.3 0-0.5 0.1-0.7 0.3l-2.3 2.3v-13.6c0-0.6 0.4-1 1-1h14c0.6 0 1 0.4 1 1v10z"></path>
</symbol>
<symbol id="element-countdown" viewBox="0 0 24 24">
<title>countdown</title>
<path d="M12 1c-6.1 0-11 4.9-11 11s4.9 11 11 11 11-4.9 11-11-4.9-11-11-11zM12 21c-5 0-9-4-9-9s4-9 9-9c5 0 9 4 9 9s-4 9-9 9z"></path>
<path d="M16.4 13.1l-3.4-1.7v-5.4c0-0.6-0.4-1-1-1s-1 0.4-1 1v6c0 0.4 0.2 0.7 0.6 0.9l4 2c0.1 0.1 0.2 0.1 0.4 0.1 0.4 0 0.7-0.2 0.9-0.6s0-1-0.5-1.3z"></path>
</symbol>
<symbol id="element-menu" viewBox="0 0 24 24">
<title>menu</title>
<path d="M21 11h-18c-0.6 0-1 0.4-1 1s0.4 1 1 1h18c0.6 0 1-0.4 1-1s-0.4-1-1-1z"></path>
<path d="M3 7h18c0.6 0 1-0.4 1-1s-0.4-1-1-1h-18c-0.6 0-1 0.4-1 1s0.4 1 1 1z"></path>
<path d="M21 17h-18c-0.6 0-1 0.4-1 1s0.4 1 1 1h18c0.6 0 1-0.4 1-1s-0.4-1-1-1z"></path>
</symbol>
<symbol id="element-pricelist" viewBox="0 0 57 32">
<title>pricelist</title>
<path d="M45.726,14.725H31.6a1.247,1.247,0,1,0,0,2.493H45.726a1.247,1.247,0,1,0,0-2.493h0ZM31.6,9.739H45.726A1.191,1.191,0,0,0,47,8.492a1.191,1.191,0,0,0-1.274-1.247H31.6a1.191,1.191,0,0,0-1.274,1.247A1.191,1.191,0,0,0,31.6,9.739h0ZM45.918,22.2H31.6a1.247,1.247,0,1,0,0,2.493H45.918a1.247,1.247,0,1,0,0-2.493h0Z"/>
<path d="M20.857,14.833H19.143V9h4.571a1.091,1.091,0,0,0,1.143-1.167,1.091,1.091,0,0,0-1.143-1.167H19.143v-3.5a1.143,1.143,0,1,0-2.286,0v3.5H15.143A5.176,5.176,0,0,0,10,11.917a5.176,5.176,0,0,0,5.143,5.25h1.714V23H11.143a1.167,1.167,0,0,0,0,2.333h5.714v3.5a1.143,1.143,0,1,0,2.286,0v-3.5h1.714a5.251,5.251,0,0,0,0-10.5h0Zm-5.714,0a2.917,2.917,0,0,1,0-5.833h1.714v5.833H15.143ZM20.857,23H19.143V17.167h1.714a2.917,2.917,0,0,1,0,5.833h0Z"/>
</symbol>
<symbol id="element-fapi" viewBox="0 0 24 24">
<title>fapi</title>
<path d="M14.5 11h-1.5v-5h4c0.6 0 1-0.4 1-1s-0.4-1-1-1h-4v-3c0-0.6-0.4-1-1-1s-1 0.4-1 1v3h-1.5c-2.5 0-4.5 2-4.5 4.5s2 4.5 4.5 4.5h1.5v5h-5c-0.6 0-1 0.4-1 1s0.4 1 1 1h5v3c0 0.6 0.4 1 1 1s1-0.4 1-1v-3h1.5c2.5 0 4.5-2 4.5-4.5s-2-4.5-4.5-4.5zM9.5 11c-1.4 0-2.5-1.1-2.5-2.5s1.1-2.5 2.5-2.5h1.5v5h-1.5zM14.5 18h-1.5v-5h1.5c1.4 0 2.5 1.1 2.5 2.5s-1.1 2.5-2.5 2.5z"></path>
</symbol>
<symbol id="element-fcomments" viewBox="0 0 237 133">
<title>fcomments</title>
<path d="M167.1,7H78.9A18.563,18.563,0,0,0,60,25.9V126.7c0,2.52,1.26,5.04,3.78,5.67a3.788,3.788,0,0,0,2.52.63,5.72,5.72,0,0,0,4.41-1.89L94.02,107.8H167.1A18.563,18.563,0,0,0,186,88.9v-63A18.563,18.563,0,0,0,167.1,7h0Zm6.3,81.9a5.952,5.952,0,0,1-6.3,6.3H91.5a5.72,5.72,0,0,0-4.41,1.89L72.6,111.58V25.9a5.952,5.952,0,0,1,6.3-6.3h88.2a5.952,5.952,0,0,1,6.3,6.3v63h0Z"/>
<path d="M135,31.382v8.409H130.1c-3.844,0-4.562,1.879-4.562,4.587V50.4h9.156l-1.219,9.428h-7.937V84h-9.563V59.825H108V50.4h7.968V43.454C115.971,35.4,120.815,31,127.877,31a60.125,60.125,0,0,1,7.126.382h0Z"/>
</symbol>
<symbol id="element-likebox" viewBox="0 0 237 133">
<title>likebox</title>
<path d="M171.573,32.022A17.767,17.767,0,0,1,176,42.821v75.858A6.287,6.287,0,0,1,169.75,125H82.25A6.287,6.287,0,0,1,76,118.679V13.321A6.288,6.288,0,0,1,82.25,7h58.333a17.359,17.359,0,0,1,10.677,4.478ZM142.667,15.955V40.714h24.479a8.442,8.442,0,0,0-1.432-2.7L145.336,17.4a8.266,8.266,0,0,0-2.669-1.449h0Zm25,100.616V49.143H140.583a6.288,6.288,0,0,1-6.25-6.321V15.429h-50V116.571h83.334Z"/>
<path d="M138,38.382v8.409H133.1c-3.844,0-4.562,1.879-4.562,4.587V57.4h9.156l-1.219,9.428h-7.937V91h-9.563V66.825H111V57.4h7.968V50.454C118.971,42.4,123.815,38,130.877,38a60.125,60.125,0,0,1,7.126.382h0Z"/>
</symbol>
<symbol id="element-variable_content" viewBox="0 0 117 96">
<title>variable content</title>
<path d="M16,55V88H49V55H16Zm4.981,4.981H44.019V83.019H20.981V59.981Z"/>
<path d="M67,55V88h33V55H67Zm4.981,4.981H95.019V83.019H71.981V59.981Z"/>
<path d="M42,7V40H75V7H42Z"/>
<path d="M65.733,31.465L83.714,59.136l4.193-2.724L69.926,28.741Z"/>
<path d="M50.986,31.682L33.157,59.011,29,56.321l17.829-27.33Z"/>
</symbol>
<symbol id="element-progressbar" viewBox="0 0 57 32">
<title>progressbar</title>
<path d="M45.22,10H11.78A3.794,3.794,0,0,0,8,13.941v3.119A3.794,3.794,0,0,0,11.78,21H45.22A3.794,3.794,0,0,0,49,17.059V13.941A3.794,3.794,0,0,0,45.22,10h0Zm1.26,7.06a1.216,1.216,0,0,1-1.26,1.314H11.78a1.216,1.216,0,0,1-1.26-1.314V13.941a1.216,1.216,0,0,1,1.26-1.314H45.22a1.216,1.216,0,0,1,1.26,1.314V17.06h0Z"/>
<path d="M12,17H27V14H12v3Z"/>
</symbol>
<symbol id="element-recent_posts" viewBox="0 0 24 24">
<title>recent posts</title>
<path d="M20.9 3c-2.7-2.7-7.2-2.7-9.9 0l-6.7 6.8c-0.2 0.2-0.3 0.4-0.3 0.7v8.1l-2.7 2.7c-0.4 0.4-0.4 1 0 1.4 0.2 0.2 0.4 0.3 0.7 0.3s0.5-0.1 0.7-0.3l2.7-2.7h8.1c0.3 0 0.5-0.1 0.7-0.3l6.7-6.8c2.8-2.7 2.8-7.1 0-9.9zM13.1 18h-5.7l2-2h5.7l-2 2zM19.5 11.5c0 0 0 0 0 0l-2.4 2.5c0 0 0 0-0.1 0h-5.6l5.3-5.3c0.4-0.4 0.4-1 0-1.4s-1-0.4-1.4 0l-7 7c0 0 0 0 0 0l-2.3 2.3v-5.7l6.5-6.5c2-2 5.1-2 7.1 0 1.9 2 1.9 5.2-0.1 7.1z"></path>
</symbol>
<symbol id="element-event_calendar" viewBox="0 0 24 24">
<title>event calendar</title>
<path d="M19 3h-2v-1c0-0.6-0.4-1-1-1s-1 0.4-1 1v1h-6v-1c0-0.6-0.4-1-1-1s-1 0.4-1 1v1h-2c-1.7 0-3 1.3-3 3v14c0 1.7 1.3 3 3 3h14c1.7 0 3-1.3 3-3v-14c0-1.7-1.3-3-3-3zM5 5h2v1c0 0.6 0.4 1 1 1s1-0.4 1-1v-1h6v1c0 0.6 0.4 1 1 1s1-0.4 1-1v-1h2c0.6 0 1 0.4 1 1v3h-16v-3c0-0.6 0.4-1 1-1zM19 21h-14c-0.6 0-1-0.4-1-1v-9h16v9c0 0.6-0.4 1-1 1z"></path>
</symbol>
<symbol id="element-member_download" viewBox="0 0 24 24">
<title>member download</title>
<path d="M21 14c-0.6 0-1 0.4-1 1v4c0 0.6-0.4 1-1 1h-14c-0.6 0-1-0.4-1-1v-4c0-0.6-0.4-1-1-1s-1 0.4-1 1v4c0 1.7 1.3 3 3 3h14c1.7 0 3-1.3 3-3v-4c0-0.6-0.4-1-1-1z"></path>
<path d="M11.3 15.7c0.1 0.1 0.2 0.2 0.3 0.2 0.1 0.1 0.3 0.1 0.4 0.1s0.3 0 0.4-0.1c0.1-0.1 0.2-0.1 0.3-0.2l5-5c0.4-0.4 0.4-1 0-1.4s-1-0.4-1.4 0l-3.3 3.3v-9.6c0-0.6-0.4-1-1-1s-1 0.4-1 1v9.6l-3.3-3.3c-0.4-0.4-1-0.4-1.4 0s-0.4 1 0 1.4l5 5z"></path>
</symbol>
<symbol id="element-box" viewBox="0 0 987 554">
<title>box</title>
<path d="M644.707,28H341.89C305.119,28,277,56.176,277,93.022V462.977C277,499.823,305.119,528,341.89,528H644.707c36.77,0,64.889-28.177,64.889-65.023V93.022C709.6,56.176,681.477,28,644.707,28h0Zm21.629,434.978c0,13-8.652,21.674-21.63,21.674H341.889c-12.978,0-21.63-8.67-21.63-21.674V93.023c0-13,8.652-21.674,21.63-21.674H644.706c12.978,0,21.63,8.67,21.63,21.674V462.978h0Z"/>
</symbol>
<symbol id="element-twocols" viewBox="0 0 987 554">
<title>twocols</title>
<path d="M728,463.9V92.1C728,55.777,700.28,28,664.031,28H578.739C542.49,28,514.77,55.777,514.77,92.1V463.9c0,36.323,27.72,64.1,63.969,64.1h85.292C700.28,528,728,500.223,728,463.9h0ZM578.739,485.267c-12.794,0-21.323-8.547-21.323-21.367V92.1c0-12.82,8.529-21.367,21.323-21.367h85.292c12.794,0,21.323,8.547,21.323,21.367V463.9c0,12.82-8.529,21.367-21.323,21.367H578.739ZM472.124,463.9V92.1c0-36.323-27.72-64.1-63.969-64.1H322.862c-36.249,0-63.969,27.777-63.969,64.1V463.9c0,36.323,27.72,64.1,63.969,64.1h85.293c36.249,0,63.969-27.777,63.969-64.1h0ZM322.863,485.267c-12.794,0-21.323-8.547-21.323-21.367V92.1c0-12.82,8.529-21.367,21.323-21.367h85.292c12.794,0,21.323,8.547,21.323,21.367V463.9c0,12.82-8.529,21.367-21.323,21.367H322.863Z"/>
</symbol>
<symbol id="element-share" viewBox="0 0 24 24">
<title>share</title>
<path d="M21.5 3.9v0c-1.2-1.2-2.8-1.9-4.5-1.9v0c-1.7 0-3.4 0.7-4.6 1.9 0 0 0 0 0 0l-0.4 0.4-0.4-0.4c-1.2-1.2-2.8-1.9-4.6-1.9-1.7 0-3.3 0.7-4.5 1.9s-2 2.9-2 4.6 0.7 3.4 1.9 4.6l8.8 8.8c0.2 0.2 0.4 0.3 0.7 0.3s0.5-0.1 0.7-0.3l8.8-8.8c2.7-2.5 2.7-6.7 0.1-9.2zM20.1 11.7l-8.1 8.1-8.1-8.1c-1.8-1.8-1.8-4.6 0-6.4 0.8-0.9 2-1.3 3.1-1.3 1.2 0 2.3 0.4 3.2 1.3l1.1 1.1c0.4 0.4 1 0.4 1.4 0l1-1.1c0 0 0 0 0 0 0.9-0.8 2-1.3 3.3-1.3 0 0 0 0 0 0 1.2 0 2.3 0.5 3.2 1.3v0c0.8 0.9 1.3 2 1.3 3.2s-0.5 2.3-1.4 3.2z"></path>
</symbol>
<symbol id="element-mioweb_nav" viewBox="0 0 583 286">
<title>mioweb nav</title>
<path d="M525.3,130.33H372.771c-7.621,0-12.7,5.081-12.7,12.7s5.081,12.7,12.7,12.7H525.3c7.621,0,12.7-5.081,12.7-12.7s-5.081-12.7-12.7-12.7h0Zm-152.527-50.8H525.3c7.621,0,12.7-5.081,12.7-12.7s-5.081-12.7-12.7-12.7H372.771c-7.621,0-12.7,5.081-12.7,12.7s5.081,12.7,12.7,12.7h0ZM525.3,206.537H372.771c-7.621,0-12.7,5.081-12.7,12.7s5.081,12.7,12.7,12.7H525.3c7.621,0,12.7-5.08,12.7-12.7s-5.081-12.7-12.7-12.7h0Z"/>
<path d="M318.443,79.148h0c-3.491-16.252-16.29-27.861-31.417-32.5C267.245,42,192.776,42,184.63,42s-82.614,0-103.559,5.8c-15.127,4.643-26.762,16.252-30.253,32.5C47.327,101.2,45,122.1,45,143S46.164,185.947,50.818,208c4.654,15.092,16.29,26.7,30.253,30.183,20.945,5.8,94.251,5.8,103.559,5.8s82.615,0,103.559-5.8c15.127-4.644,26.763-16.252,31.417-32.5,3.491-20.9,5.818-41.791,5.818-62.686-1.164-20.9-2.327-41.791-6.981-63.848h0ZM296.335,202.2c-2.327,6.966-6.982,12.77-13.963,15.092-13.963,3.482-65.161,4.643-96.578,4.643s-84.942-2.321-97.741-5.8c-6.982-2.322-12.8-6.965-13.963-12.769-4.654-19.735-5.818-39.47-5.818-60.365,0-19.735,1.164-39.47,4.654-58.044,2.327-6.965,6.982-12.769,13.963-15.091,13.963-3.483,66.325-4.644,97.742-4.644,22.108,0,81.451,1.161,96.577,4.644,6.982,2.322,12.8,6.965,13.963,15.091,4.655,18.574,5.818,38.309,5.818,59.2,0,19.734-1.164,39.469-4.654,58.043h0Zm-65.161-68.491L163.686,95.4a10.591,10.591,0,0,0-11.636,0c-3.491,2.322-4.655,5.8-4.655,10.448V181.3a12.186,12.186,0,0,0,5.818,10.448c1.164,1.161,3.491,1.161,5.818,1.161a10.51,10.51,0,0,0,5.818-1.161l67.488-38.309A12.185,12.185,0,0,0,238.155,143a18.062,18.062,0,0,0-6.982-9.287h0Zm-60.507,27.861V125.582l31.417,18.574-31.417,17.413h0Z"/>
</symbol>
<symbol id="element-se_count" viewBox="0 0 24 24">
<title>se count</title>
<path d="M20 14h-4.2l0.4-4h3.8c0.6 0 1-0.4 1-1s-0.4-1-1-1h-3.5l0.5-4.9c0.1-0.5-0.3-1-0.9-1.1-0.5-0.1-1 0.3-1.1 0.9l-0.6 5.1h-4l0.6-4.9c0.1-0.5-0.3-1-0.9-1.1-0.5-0.1-1 0.3-1.1 0.9l-0.6 5.1h-4.4c-0.6 0-1 0.4-1 1s0.4 1 1 1h4.2l-0.4 4h-3.8c-0.6 0-1 0.4-1 1s0.4 1 1 1h3.5l-0.5 4.9c-0.1 0.5 0.3 1 0.9 1.1 0 0 0.1 0 0.1 0 0.5 0 0.9-0.4 1-0.9l0.6-5.1h4l-0.6 4.9c-0.1 0.5 0.3 1 0.9 1.1 0 0 0.1 0 0.1 0 0.5 0 0.9-0.4 1-0.9l0.6-5.1h4.4c0.6 0 1-0.4 1-1s-0.4-1-1-1zM9.8 14l0.4-4h4l-0.4 4h-4z"></path>
</symbol>
<symbol id="element-campaign_date" viewBox="0 0 100 100">
<title>campaign date</title>
<path d="M79.4,12.364H71V8.182a4.2,4.2,0,0,0-8.4,0v4.182H37.4V8.182A3.96,3.96,0,0,0,33.2,4,3.96,3.96,0,0,0,29,8.182v4.182H20.6A12.348,12.348,0,0,0,8,24.909V83.455A12.348,12.348,0,0,0,20.6,96H79.4A12.348,12.348,0,0,0,92,83.455V24.909A12.348,12.348,0,0,0,79.4,12.364h0ZM20.6,20.727H29v4.182a3.96,3.96,0,0,0,4.2,4.182,3.959,3.959,0,0,0,4.2-4.182V20.727H62.6v4.182a4.2,4.2,0,0,0,8.4,0V20.727h8.4a3.96,3.96,0,0,1,4.2,4.182V37.455H16.4V24.909a3.96,3.96,0,0,1,4.2-4.182h0ZM79.4,87.636H20.6a3.96,3.96,0,0,1-4.2-4.182V45.818H83.6V83.455a3.96,3.96,0,0,1-4.2,4.182h0Z"/>
<path d="M64.688,62.188H54.813V52.313a4.313,4.313,0,1,0-8.625,0v9.875H36.313a4.313,4.313,0,1,0,0,8.625h9.875v9.875a4.313,4.313,0,1,0,8.625,0V70.813h9.875a4.313,4.313,0,1,0,0-8.625h0Z"/>
</symbol>
<symbol id="element-funnel_nav" viewBox="0 0 583 286">
<title>mioweb nav</title>
<path d="M525.3,130.33H372.771c-7.621,0-12.7,5.081-12.7,12.7s5.081,12.7,12.7,12.7H525.3c7.621,0,12.7-5.081,12.7-12.7s-5.081-12.7-12.7-12.7h0Zm-152.527-50.8H525.3c7.621,0,12.7-5.081,12.7-12.7s-5.081-12.7-12.7-12.7H372.771c-7.621,0-12.7,5.081-12.7,12.7s5.081,12.7,12.7,12.7h0ZM525.3,206.537H372.771c-7.621,0-12.7,5.081-12.7,12.7s5.081,12.7,12.7,12.7H525.3c7.621,0,12.7-5.08,12.7-12.7s-5.081-12.7-12.7-12.7h0Z"/>
<path d="M318.443,79.148h0c-3.491-16.252-16.29-27.861-31.417-32.5C267.245,42,192.776,42,184.63,42s-82.614,0-103.559,5.8c-15.127,4.643-26.762,16.252-30.253,32.5C47.327,101.2,45,122.1,45,143S46.164,185.947,50.818,208c4.654,15.092,16.29,26.7,30.253,30.183,20.945,5.8,94.251,5.8,103.559,5.8s82.615,0,103.559-5.8c15.127-4.644,26.763-16.252,31.417-32.5,3.491-20.9,5.818-41.791,5.818-62.686-1.164-20.9-2.327-41.791-6.981-63.848h0ZM296.335,202.2c-2.327,6.966-6.982,12.77-13.963,15.092-13.963,3.482-65.161,4.643-96.578,4.643s-84.942-2.321-97.741-5.8c-6.982-2.322-12.8-6.965-13.963-12.769-4.654-19.735-5.818-39.47-5.818-60.365,0-19.735,1.164-39.47,4.654-58.044,2.327-6.965,6.982-12.769,13.963-15.091,13.963-3.483,66.325-4.644,97.742-4.644,22.108,0,81.451,1.161,96.577,4.644,6.982,2.322,12.8,6.965,13.963,15.091,4.655,18.574,5.818,38.309,5.818,59.2,0,19.734-1.164,39.469-4.654,58.043h0Zm-65.161-68.491L163.686,95.4a10.591,10.591,0,0,0-11.636,0c-3.491,2.322-4.655,5.8-4.655,10.448V181.3a12.186,12.186,0,0,0,5.818,10.448c1.164,1.161,3.491,1.161,5.818,1.161a10.51,10.51,0,0,0,5.818-1.161l67.488-38.309A12.185,12.185,0,0,0,238.155,143a18.062,18.062,0,0,0-6.982-9.287h0Zm-60.507,27.861V125.582l31.417,18.574-31.417,17.413h0Z"/>
</symbol>
<symbol id="element-download_count" viewBox="0 0 24 24">
<title>se count</title>
<path d="M20 14h-4.2l0.4-4h3.8c0.6 0 1-0.4 1-1s-0.4-1-1-1h-3.5l0.5-4.9c0.1-0.5-0.3-1-0.9-1.1-0.5-0.1-1 0.3-1.1 0.9l-0.6 5.1h-4l0.6-4.9c0.1-0.5-0.3-1-0.9-1.1-0.5-0.1-1 0.3-1.1 0.9l-0.6 5.1h-4.4c-0.6 0-1 0.4-1 1s0.4 1 1 1h4.2l-0.4 4h-3.8c-0.6 0-1 0.4-1 1s0.4 1 1 1h3.5l-0.5 4.9c-0.1 0.5 0.3 1 0.9 1.1 0 0 0.1 0 0.1 0 0.5 0 0.9-0.4 1-0.9l0.6-5.1h4l-0.6 4.9c-0.1 0.5 0.3 1 0.9 1.1 0 0 0.1 0 0.1 0 0.5 0 0.9-0.4 1-0.9l0.6-5.1h4.4c0.6 0 1-0.4 1-1s-0.4-1-1-1zM9.8 14l0.4-4h4l-0.4 4h-4z"></path>
</symbol>
<symbol id="element-funnel_date" viewBox="0 0 100 100">
<title>campaign date</title>
<path d="M79.4,12.364H71V8.182a4.2,4.2,0,0,0-8.4,0v4.182H37.4V8.182A3.96,3.96,0,0,0,33.2,4,3.96,3.96,0,0,0,29,8.182v4.182H20.6A12.348,12.348,0,0,0,8,24.909V83.455A12.348,12.348,0,0,0,20.6,96H79.4A12.348,12.348,0,0,0,92,83.455V24.909A12.348,12.348,0,0,0,79.4,12.364h0ZM20.6,20.727H29v4.182a3.96,3.96,0,0,0,4.2,4.182,3.959,3.959,0,0,0,4.2-4.182V20.727H62.6v4.182a4.2,4.2,0,0,0,8.4,0V20.727h8.4a3.96,3.96,0,0,1,4.2,4.182V37.455H16.4V24.909a3.96,3.96,0,0,1,4.2-4.182h0ZM79.4,87.636H20.6a3.96,3.96,0,0,1-4.2-4.182V45.818H83.6V83.455a3.96,3.96,0,0,1-4.2,4.182h0Z"/>
<path d="M64.688,62.188H54.813V52.313a4.313,4.313,0,1,0-8.625,0v9.875H36.313a4.313,4.313,0,1,0,0,8.625h9.875v9.875a4.313,4.313,0,1,0,8.625,0V70.813h9.875a4.313,4.313,0,1,0,0-8.625h0Z"/>
</symbol>
<symbol id="element-icon" viewBox="0 0 24 24">
<title>icon</title>
<path d="M23 9c-0.1-0.4-0.4-0.6-0.8-0.7l-6.4-0.9-2.9-5.8c-0.3-0.7-1.5-0.7-1.8 0l-2.9 5.7-6.3 1c-0.4 0-0.7 0.3-0.9 0.7-0.1 0.4 0 0.8 0.3 1l4.6 4.5-1.1 6.4c-0.1 0.4 0.1 0.8 0.4 1s0.7 0.3 1.1 0.1l5.7-3 5.7 3c0.2 0 0.3 0 0.5 0s0.4-0.1 0.6-0.2c0.3-0.2 0.5-0.6 0.4-1l-1.1-6.4 4.6-4.5c0.3-0.2 0.4-0.6 0.3-0.9zM16.3 13.4c-0.2 0.3-0.3 0.6-0.3 0.9l0.8 4.9-4.4-2.3c-0.3-0.2-0.6-0.2-0.9 0l-4.4 2.3 0.9-4.9c0-0.3-0.1-0.6-0.3-0.9l-3.6-3.4 4.9-0.7c0.3 0 0.6-0.3 0.8-0.5l2.2-4.5 2.2 4.4c0.1 0.3 0.4 0.5 0.8 0.5l4.9 0.7-3.6 3.5z"></path>
</symbol>
<symbol id="element-member_checklist" viewBox="0 0 24 24">
<title>member checklist</title>
<path d="M22 10.1c-0.6 0-1 0.4-1 1v0.9c0 5-4 9-9 9 0 0 0 0 0 0-5 0-9-4-9-9s4-9 9-9c0 0 0 0 0 0 1.3 0 2.5 0.3 3.7 0.8 0.5 0.2 1.1 0 1.3-0.5s0-1.1-0.5-1.3c-1.4-0.6-2.9-1-4.5-1 0 0 0 0 0 0-6.1 0-11 4.9-11 11s4.9 11 11 11c0 0 0 0 0 0 6.1 0 11-4.9 11-11v-0.9c0-0.6-0.4-1-1-1z"></path>
<path d="M9.7 10.3c-0.4-0.4-1-0.4-1.4 0s-0.4 1 0 1.4l3 3c0.2 0.2 0.4 0.3 0.7 0.3s0.5-0.1 0.7-0.3l10-10c0.4-0.4 0.4-1 0-1.4s-1-0.4-1.4 0l-9.3 9.3-2.3-2.3z"></path>
</symbol>
<symbol id="element-member_login" viewBox="0 0 24 24">
<title>member login</title>
<path d="M19 2h-4c-0.6 0-1 0.4-1 1s0.4 1 1 1h4c0.6 0 1 0.4 1 1v14c0 0.6-0.4 1-1 1h-4c-0.6 0-1 0.4-1 1s0.4 1 1 1h4c1.7 0 3-1.3 3-3v-14c0-1.7-1.3-3-3-3z"></path>
<path d="M15.9 12.4c0.1-0.2 0.1-0.5 0-0.8-0.1-0.1-0.1-0.2-0.2-0.3l-5-5c-0.4-0.4-1-0.4-1.4 0s-0.4 1 0 1.4l3.3 3.3h-9.6c-0.6 0-1 0.4-1 1s0.4 1 1 1h9.6l-3.3 3.3c-0.4 0.4-0.4 1 0 1.4 0.2 0.2 0.4 0.3 0.7 0.3s0.5-0.1 0.7-0.3l5-5c0.1-0.1 0.2-0.2 0.2-0.3z"></path>
</symbol>
<symbol id="element-member_regform" viewBox="0 0 24 24">
<title>member regform</title>
<path d="M12 14h-7c-2.8 0-5 2.2-5 5v2c0 0.6 0.4 1 1 1s1-0.4 1-1v-2c0-1.7 1.3-3 3-3h7c1.7 0 3 1.3 3 3v2c0 0.6 0.4 1 1 1s1-0.4 1-1v-2c0-2.8-2.2-5-5-5z"></path>
<path d="M8.5 12c2.8 0 5-2.2 5-5s-2.2-5-5-5-5 2.2-5 5 2.2 5 5 5zM8.5 4c1.7 0 3 1.3 3 3s-1.3 3-3 3-3-1.3-3-3 1.3-3 3-3z"></path>
<path d="M23 10h-2v-2c0-0.6-0.4-1-1-1s-1 0.4-1 1v2h-2c-0.6 0-1 0.4-1 1s0.4 1 1 1h2v2c0 0.6 0.4 1 1 1s1-0.4 1-1v-2h2c0.6 0 1-0.4 1-1s-0.4-1-1-1z"></path>
</symbol>
<symbol id="element-member_subpages" viewBox="0 0 24 24">
<title>member subpages</title>
<path d="M22 2h-6c-1.6 0-3.1 0.8-4 2-0.9-1.2-2.4-2-4-2h-6c-0.6 0-1 0.4-1 1v15c0 0.6 0.4 1 1 1h7c1.1 0 2 0.9 2 2 0 0.6 0.4 1 1 1s1-0.4 1-1c0-1.1 0.9-2 2-2h7c0.6 0 1-0.4 1-1v-15c0-0.6-0.4-1-1-1zM11 17.5c-0.6-0.3-1.3-0.5-2-0.5h-6v-13h5c1.7 0 3 1.3 3 3v10.5zM21 17h-6c-0.7 0-1.4 0.2-2 0.5v-10.5c0-1.7 1.3-3 3-3h5v13z"></path>
</symbol>
<symbol id="element-member_months_pages" viewBox="0 0 24 24">
<title>member_months_pages</title>
<path d="M21.5 11.9c-0.3-0.2-0.8-0.2-1.1 0.1-2.1 1.6-5 1.6-7.1 0-2.7-2-3.3-5.7-1.3-8.4 0.2-0.3 0.3-0.7 0.1-1.1-0.2-0.3-0.6-0.5-1-0.5-4.8 0.4-8.6 4.2-9 9-0.5 5.5 3.5 10.4 9 10.9 0.3 0 0.6 0 0.9 0 2.3 0 4.6-0.8 6.4-2.3 2.1-1.7 3.3-4.1 3.6-6.8 0-0.3-0.2-0.7-0.5-0.9zM17.2 18.1c-1.6 1.4-3.7 2-5.8 1.8-4.4-0.4-7.6-4.3-7.2-8.7 0.3-3.1 2.4-5.8 5.2-6.8-1.2 3.2-0.1 7 2.8 9.2 2.2 1.6 5 2 7.5 1.1-0.6 1.3-1.4 2.5-2.5 3.4z"></path>
</symbol>
<symbol id="element-member_news" viewBox="0 0 24 24">
<title>member news</title>
<path d="M3 18h4c0.3 0 0.5-0.1 0.7-0.3l11-11c0.4-0.4 0.4-1 0-1.4l-4-4c-0.4-0.4-1-0.4-1.4 0l-11 11c-0.2 0.2-0.3 0.4-0.3 0.7v4c0 0.6 0.4 1 1 1zM4 13.4l10-10 2.6 2.6-10 10h-2.6v-2.6z"></path>
<path d="M21 21h-18c-0.6 0-1 0.4-1 1s0.4 1 1 1h18c0.6 0 1-0.4 1-1s-0.4-1-1-1z"></path>
</symbol>
<symbol id="element-member_users" viewBox="0 0 24 24">
<title>member users</title>
<path d="M12 14h-7c-2.8 0-5 2.2-5 5v2c0 0.6 0.4 1 1 1s1-0.4 1-1v-2c0-1.7 1.3-3 3-3h7c1.7 0 3 1.3 3 3v2c0 0.6 0.4 1 1 1s1-0.4 1-1v-2c0-2.8-2.2-5-5-5z"></path>
<path d="M8.5 12c2.8 0 5-2.2 5-5s-2.2-5-5-5-5 2.2-5 5 2.2 5 5 5zM8.5 4c1.7 0 3 1.3 3 3s-1.3 3-3 3-3-1.3-3-3 1.3-3 3-3z"></path>
<path d="M23.7 8.3c-0.4-0.4-1-0.4-1.4 0l-3.3 3.3-1.3-1.3c-0.4-0.4-1-0.4-1.4 0s-0.4 1 0 1.4l2 2c0.2 0.2 0.5 0.3 0.7 0.3s0.5-0.1 0.7-0.3l4-4c0.4-0.4 0.4-1 0-1.4z"></path>
</symbol>
<symbol id="element-member_progress" viewBox="0 0 24 24">
<title>member progress</title>
<path d="M23.9 5.6c-0.1-0.2-0.3-0.4-0.5-0.5-0.1-0.1-0.3-0.1-0.4-0.1h-6c-0.6 0-1 0.4-1 1s0.4 1 1 1h3.6l-7.1 7.1-4.3-4.3c-0.4-0.4-1-0.4-1.4 0l-7.5 7.5c-0.4 0.4-0.4 1 0 1.4 0.2 0.2 0.4 0.3 0.7 0.3s0.5-0.1 0.7-0.3l6.8-6.8 4.3 4.3c0.4 0.4 1 0.4 1.4 0l7.8-7.8v3.6c0 0.6 0.4 1 1 1s1-0.4 1-1v-6c0-0.1 0-0.3-0.1-0.4z"></path>
</symbol>
<symbol id="element-members_list" viewBox="0 0 24 24">
<title>members list</title>
<path d="M19 10h-1v-3c0-3.3-2.7-6-6-6s-6 2.7-6 6v3h-1c-1.7 0-3 1.3-3 3v7c0 1.7 1.3 3 3 3h14c1.7 0 3-1.3 3-3v-7c0-1.7-1.3-3-3-3zM8 7c0-2.2 1.8-4 4-4s4 1.8 4 4v3h-8v-3zM20 20c0 0.6-0.4 1-1 1h-14c-0.6 0-1-0.4-1-1v-7c0-0.6 0.4-1 1-1h14c0.6 0 1 0.4 1 1v7z"></path>
</symbol>
<symbol id="element-product_price" viewBox="0 0 24 24">
<title>product price</title>
<path d="M21.3 9.9l-8.6-8.6c-0.2-0.2-0.4-0.3-0.7-0.3h-10c-0.6 0-1 0.4-1 1v10c0 0.3 0.1 0.5 0.3 0.7l8.6 8.6c0.6 0.6 1.4 0.9 2.1 0.9 0.8 0 1.5-0.3 2.1-0.9l7.2-7.2c0 0 0 0 0 0 1.2-1.2 1.2-3 0-4.2zM19.9 12.7l-7.2 7.2c-0.4 0.4-1 0.4-1.4 0l-8.3-8.3v-8.6h8.6l8.3 8.3c0.4 0.4 0.4 1 0 1.4z"></path>
<path d="M6.3 6.3c-0.2 0.2-0.3 0.4-0.3 0.7s0.1 0.5 0.3 0.7c0.2 0.2 0.4 0.3 0.7 0.3s0.5-0.1 0.7-0.3c0.2-0.2 0.3-0.4 0.3-0.7s-0.1-0.5-0.3-0.7c-0.4-0.4-1-0.4-1.4 0z"></path>
</symbol>
<symbol id="element-product_detail" viewBox="0 0 24 24">
<title>product detail</title>
<path d="M20 12c0-2.3-1-4.3-2.5-5.8l-0.3-3.5c-0.2-1.5-1.4-2.7-3-2.7 0 0 0 0 0 0h-4.4c-1.5 0-2.8 1.2-3 2.7l-0.3 3.5c-1.5 1.4-2.5 3.5-2.5 5.8s1 4.4 2.5 5.8l0.3 3.5c0.2 1.5 1.5 2.7 3 2.7 0 0 0 0 0 0h4.3c0 0 0 0 0 0 1.6 0 2.8-1.2 3-2.7l0.3-3.4c1.6-1.5 2.6-3.6 2.6-5.9zM8.8 2.9c0-0.5 0.5-0.9 1-0.9h4.4c0.5 0 1 0.4 1 0.9l0.2 1.8c-1.1-0.4-2.2-0.7-3.4-0.7s-2.3 0.3-3.3 0.7l0.1-1.8zM6 12c0-3.3 2.7-6 6-6s6 2.7 6 6-2.7 6-6 6-6-2.7-6-6zM15.2 21.1c0 0.5-0.5 0.9-1 0.9 0 0 0 0 0 0h-4.4c0 0 0 0 0 0-0.5 0-0.9-0.4-1-0.9l-0.2-1.8c1 0.5 2.1 0.7 3.3 0.7s2.3-0.3 3.3-0.7v1.8z"></path>
<path d="M12.8 14.2c0.2 0.2 0.5 0.3 0.7 0.3s0.5-0.1 0.7-0.3c0.4-0.4 0.4-1 0-1.4l-1.2-1.2v-2.6c0-0.6-0.4-1-1-1s-1 0.4-1 1v3c0 0.3 0.1 0.5 0.3 0.7l1.5 1.5z"></path>
</symbol>
<symbol id="element-eshop_category_list" viewBox="0 0 24 24">
<title>eshop_category_list</title>
<path d="M21.9 5.6c0 0 0-0.1-0.1-0.1 0 0 0-0.1-0.1-0.1l-3-4c-0.1-0.3-0.4-0.4-0.7-0.4h-12c-0.3 0-0.6 0.1-0.8 0.4l-3 4c0 0 0 0.1-0.1 0.1 0 0 0 0.1-0.1 0.1 0 0.2 0 0.3 0 0.4v14c0 1.7 1.3 3 3 3h14c1.7 0 3-1.3 3-3v-14c0-0.1 0-0.2-0.1-0.4zM6.5 3h11l1.5 2h-14l1.5-2zM19 21h-14c-0.6 0-1-0.4-1-1v-13h16v13c0 0.6-0.4 1-1 1z"></path>
<path d="M16 9c-0.6 0-1 0.4-1 1 0 1.7-1.3 3-3 3s-3-1.3-3-3c0-0.6-0.4-1-1-1s-1 0.4-1 1c0 2.8 2.2 5 5 5s5-2.2 5-5c0-0.6-0.4-1-1-1z"></path>
</symbol>
<symbol id="element-pay_button" viewBox="0 0 24 24">
<title>eshop_pay_button</title>
<path d="M11 21c0 1.105-0.895 2-2 2s-2-0.895-2-2c0-1.105 0.895-2 2-2s2 0.895 2 2z"></path>
<path d="M22 21c0 1.105-0.895 2-2 2s-2-0.895-2-2c0-1.105 0.895-2 2-2s2 0.895 2 2z"></path>
<path d="M23.8 5.4c-0.2-0.3-0.5-0.4-0.8-0.4h-16.2l-0.8-4.2c-0.1-0.5-0.5-0.8-1-0.8h-4c-0.6 0-1 0.4-1 1s0.4 1 1 1h3.2l0.8 4.2c0 0 0 0.1 0 0.1l1.7 8.3c0.3 1.4 1.5 2.4 2.9 2.4 0 0 0 0 0.1 0h9.7c1.5 0 2.7-1 3-2.4l1.6-8.4c0-0.3 0-0.6-0.2-0.8zM20.4 14.2c-0.1 0.5-0.5 0.8-1 0.8h-9.7c-0.5 0-0.9-0.3-1-0.8l-1.5-7.2h14.6l-1.4 7.2z"></path>
</symbol>
<symbol id="element-product_list" viewBox="0 0 57 32">
<title>product list</title>
<path d="M26,16a9.7,9.7,0,0,0-2.812-6.767L22.85,5.15A3.459,3.459,0,0,0,19.475,2h-4.95A3.546,3.546,0,0,0,11.15,5.15L10.813,9.233a9.546,9.546,0,0,0,0,13.533L11.15,26.85A3.546,3.546,0,0,0,14.525,30h4.838a3.459,3.459,0,0,0,3.375-3.15l0.337-3.967A9.6,9.6,0,0,0,26,16h0ZM13.4,5.383a1.126,1.126,0,0,1,1.125-1.05h4.95A1.126,1.126,0,0,1,20.6,5.383l0.225,2.1A10.716,10.716,0,0,0,17,6.667a9.644,9.644,0,0,0-3.713.817l0.113-2.1h0ZM10.25,16A6.9,6.9,0,0,1,17,9a6.9,6.9,0,0,1,6.75,7A6.9,6.9,0,0,1,17,23a6.9,6.9,0,0,1-6.75-7h0ZM20.6,26.617a1.126,1.126,0,0,1-1.125,1.05h-4.95a1.213,1.213,0,0,1-1.125-1.05l-0.225-2.1a7.907,7.907,0,0,0,3.712.817,9.643,9.643,0,0,0,3.713-.817v2.1h0Zm-2.7-8.05a1.061,1.061,0,0,0,1.575,0,1.157,1.157,0,0,0,0-1.633l-1.35-1.4V12.5a1.126,1.126,0,1,0-2.25,0V16a1.078,1.078,0,0,0,.337.817l1.688,1.75h0Z"/>
<path d="M45.726,14.725H31.6a1.247,1.247,0,1,0,0,2.493H45.726a1.247,1.247,0,1,0,0-2.493h0ZM31.6,9.739H45.726A1.191,1.191,0,0,0,47,8.492a1.191,1.191,0,0,0-1.274-1.247H31.6a1.191,1.191,0,0,0-1.274,1.247A1.191,1.191,0,0,0,31.6,9.739h0ZM45.918,22.2H31.6a1.247,1.247,0,1,0,0,2.493H45.918a1.247,1.247,0,1,0,0-2.493h0Z"/>
</symbol>
<symbol id="element-table_reservation" viewBox="0 0 24 24">
<title>product list</title>
<g><path d="M0,23c0,0.6,0.4,1,1,1h22c0.6,0,1-0.4,1-1v-1H0V23z"/><path d="M22,20h2c0-6.3-4.8-11.4-11-11.9V7h1c0.6,0,1-0.4,1-1s-0.4-1-1-1h-4C9.4,5,9,5.4,9,6s0.4,1,1,1h1v1.1C4.8,8.6,0,13.7,0,20   h2H22z M12,10c4.8,0,8.9,3.4,9.8,8H2.2C3.1,13.4,7.2,10,12,10z"/><path d="M16.5,12.2L16,13.1c1.5,0.9,2.7,2.2,3.4,3.8l0.9-0.4C19.6,14.7,18.2,13.2,16.5,12.2z"/></g>
</symbol>
<symbol id="element-breadcrumbs" viewBox="0 0 24 24">
<title>breadcrumbs</title>
<path d="M14 12c0 1.105-0.895 2-2 2s-2-0.895-2-2c0-1.105 0.895-2 2-2s2 0.895 2 2z"></path>
<path d="M21 12c0 1.105-0.895 2-2 2s-2-0.895-2-2c0-1.105 0.895-2 2-2s2 0.895 2 2z"></path>
<path d="M7 12c0 1.105-0.895 2-2 2s-2-0.895-2-2c0-1.105 0.895-2 2-2s2 0.895 2 2z"></path>
</symbol>
<symbol id="element-cookie_management" viewBox="0 0 122.88 122.25">
<path d="M101.77,49.38c2.09,3.1,4.37,5.11,6.86,5.78c2.45,0.66,5.32,0.06,8.7-2.01c1.36-0.84,3.14-0.41,3.97,0.95 c0.28,0.46,0.42,0.96,0.43,1.47c0.13,1.4,0.21,2.82,0.24,4.26c0.03,1.46,0.02,2.91-0.05,4.35h0v0c0,0.13-0.01,0.26-0.03,0.38 c-0.91,16.72-8.47,31.51-20,41.93c-11.55,10.44-27.06,16.49-43.82,15.69v0.01h0c-0.13,0-0.26-0.01-0.38-0.03 c-16.72-0.91-31.51-8.47-41.93-20C5.31,90.61-0.73,75.1,0.07,58.34H0.07v0c0-0.13,0.01-0.26,0.03-0.38 C1,41.22,8.81,26.35,20.57,15.87C32.34,5.37,48.09-0.73,64.85,0.07V0.07h0c1.6,0,2.89,1.29,2.89,2.89c0,0.4-0.08,0.78-0.23,1.12 c-1.17,3.81-1.25,7.34-0.27,10.14c0.89,2.54,2.7,4.51,5.41,5.52c1.44,0.54,2.2,2.1,1.74,3.55l0.01,0 c-1.83,5.89-1.87,11.08-0.52,15.26c0.82,2.53,2.14,4.69,3.88,6.4c1.74,1.72,3.9,3,6.39,3.78c4.04,1.26,8.94,1.18,14.31-0.55 C99.73,47.78,101.08,48.3,101.77,49.38L101.77,49.38z M59.28,57.86c2.77,0,5.01,2.24,5.01,5.01c0,2.77-2.24,5.01-5.01,5.01 c-2.77,0-5.01-2.24-5.01-5.01C54.27,60.1,56.52,57.86,59.28,57.86L59.28,57.86z M37.56,78.49c3.37,0,6.11,2.73,6.11,6.11 s-2.73,6.11-6.11,6.11s-6.11-2.73-6.11-6.11S34.18,78.49,37.56,78.49L37.56,78.49z M50.72,31.75c2.65,0,4.79,2.14,4.79,4.79 c0,2.65-2.14,4.79-4.79,4.79c-2.65,0-4.79-2.14-4.79-4.79C45.93,33.89,48.08,31.75,50.72,31.75L50.72,31.75z M119.3,32.4 c1.98,0,3.58,1.6,3.58,3.58c0,1.98-1.6,3.58-3.58,3.58s-3.58-1.6-3.58-3.58C115.71,34.01,117.32,32.4,119.3,32.4L119.3,32.4z M93.62,22.91c2.98,0,5.39,2.41,5.39,5.39c0,2.98-2.41,5.39-5.39,5.39c-2.98,0-5.39-2.41-5.39-5.39 C88.23,25.33,90.64,22.91,93.62,22.91L93.62,22.91z M97.79,0.59c3.19,0,5.78,2.59,5.78,5.78c0,3.19-2.59,5.78-5.78,5.78 c-3.19,0-5.78-2.59-5.78-5.78C92.02,3.17,94.6,0.59,97.79,0.59L97.79,0.59z M76.73,80.63c4.43,0,8.03,3.59,8.03,8.03 c0,4.43-3.59,8.03-8.03,8.03s-8.03-3.59-8.03-8.03C68.7,84.22,72.29,80.63,76.73,80.63L76.73,80.63z M31.91,46.78 c4.8,0,8.69,3.89,8.69,8.69c0,4.8-3.89,8.69-8.69,8.69s-8.69-3.89-8.69-8.69C23.22,50.68,27.11,46.78,31.91,46.78L31.91,46.78z M107.13,60.74c-3.39-0.91-6.35-3.14-8.95-6.48c-5.78,1.52-11.16,1.41-15.76-0.02c-3.37-1.05-6.32-2.81-8.71-5.18 c-2.39-2.37-4.21-5.32-5.32-8.75c-1.51-4.66-1.69-10.2-0.18-16.32c-3.1-1.8-5.25-4.53-6.42-7.88c-1.06-3.05-1.28-6.59-0.61-10.35 C47.27,5.95,34.3,11.36,24.41,20.18C13.74,29.69,6.66,43.15,5.84,58.29l0,0.05v0h0l-0.01,0.13v0C5.07,73.72,10.55,87.82,20.02,98.3 c9.44,10.44,22.84,17.29,38,18.1l0.05,0h0v0l0.13,0.01h0c15.24,0.77,29.35-4.71,39.83-14.19c10.44-9.44,17.29-22.84,18.1-38l0-0.05 v0h0l0.01-0.13v0c0.07-1.34,0.09-2.64,0.06-3.91C112.98,61.34,109.96,61.51,107.13,60.74L107.13,60.74z M116.15,64.04L116.15,64.04 L116.15,64.04L116.15,64.04z M58.21,116.42L58.21,116.42L58.21,116.42L58.21,116.42z"/>
</symbol>
</defs>
</svg>
