<svg aria-hidden="true" style="position: absolute; width: 0; height: 0; overflow: hidden;" version="1.1" xmlns="http://www.w3.org/2000/svg" xmlns:xlink="http://www.w3.org/1999/xlink">
<defs>
<symbol id="row-one" viewBox="0 0 35 20">
  <path stroke="null" d="m-0.135549,-0.170556l35.36804,0l0,20.232488l-35.36804,0l0,-20.232488z" stroke-opacity="null" stroke-linecap="null" stroke-linejoin="null" stroke-width="null" fill-opacity="null" fill="null"/>
</symbol>
<symbol id="row-two" viewBox="0 0 38 22">
  <path d="m20,-0.021332l18,0l0,22l-18,0l0,-22z" stroke-opacity="null" stroke-linecap="null" stroke-linejoin="null" stroke-width="null" stroke="null" fill-opacity="null" fill="null"/>
  <path d="m-0.004351,-0.021332l18,0l0,22l-18,0l0,-22z" stroke-opacity="null" stroke-linecap="null" stroke-linejoin="null" stroke-width="null" stroke="null" fill-opacity="null" fill="null"/>
</symbol>
<symbol id="row-three" viewBox="0 0 38 22">
  <path d="m-0.004351,-0.021332l11.3,0l0,22l-11.3,0l0,-22z" stroke-opacity="null" stroke-linecap="null" stroke-linejoin="null" stroke-width="null" stroke="null" fill-opacity="null" fill="null"/>
  <path d="m26.692795,-0.021332l11.3,0l0,22l-11.3,0l0,-22z" stroke-opacity="null" stroke-linecap="null" stroke-linejoin="null" stroke-width="null" stroke="null" fill-opacity="null" fill="null"/>
  <path d="m13.3,-0.021332l11.3,0l0,22l-11.3,0l0,-22z" stroke-opacity="null" stroke-linecap="null" stroke-linejoin="null" stroke-width="null" stroke="null" fill-opacity="null" fill="null"/>
</symbol>
<symbol id="row-four" viewBox="0 0 38 22">
  <path d="m-0.004351,-0.021332l8,0l0,22l-8,0l0,-22z" stroke-opacity="null" stroke-linecap="null" stroke-linejoin="null" stroke-width="null" stroke="null" fill-opacity="null" fill="null"/>
  <path d="m30,-0.021332l8,0l0,22l-8,0l0,-22z" stroke-opacity="null" stroke-linecap="null" stroke-linejoin="null" stroke-width="null" stroke="null" fill-opacity="null" fill="null"/>
  <path d="m10,-0.021332l8,0l0,22l-8,0l0,-22z" stroke-opacity="null" stroke-linecap="null" stroke-linejoin="null" stroke-width="null" stroke="null" fill-opacity="null" fill="null"/>
  <path d="m20.022728,-0.021332l8,0l0,22l-8,0l0,-22z" stroke-opacity="null" stroke-linecap="null" stroke-linejoin="null" stroke-width="null" stroke="null" fill-opacity="null" fill="null"/>
</symbol>
<symbol id="row-five" viewBox="0 0 38 22">
  <path d="m0,0l6,0l0,22l-6,0l0,-22z" stroke-opacity="null" stroke-linecap="null" stroke-linejoin="null" stroke-width="null" stroke="null" fill-opacity="null" fill="null"/>
  <path d="m8,0l6,0l0,22l-6,0l0,-22z" stroke-opacity="null" stroke-linecap="null" stroke-linejoin="null" stroke-width="null" stroke="null" fill-opacity="null" fill="null"/>
  <path d="m16,0l6,0l0,22l-6,0l0,-22z" stroke-opacity="null" stroke-linecap="null" stroke-linejoin="null" stroke-width="null" stroke="null" fill-opacity="null" fill="null"/>
  <path d="m24,0l6,0l0,22l-6,0l0,-22z" stroke-opacity="null" stroke-linecap="null" stroke-linejoin="null" stroke-width="null" stroke="null" fill-opacity="null" fill="null"/>
  <path d="m32,0l6,0l0,22l-6,0l0,-22z" stroke-opacity="null" stroke-linecap="null" stroke-linejoin="null" stroke-width="null" stroke="null" fill-opacity="null" fill="null"/>
</symbol>
<symbol id="row-one-two" viewBox="0 0 38 22">
   <path d="m-0.019498,-0.005115l11.3,0l0,22.010229l-11.3,0l0,-22.010229z" stroke-opacity="null" stroke-linecap="null" stroke-linejoin="null" stroke-width="null" stroke="null" fill-opacity="null" fill="null"/>
   <path d="m13.3,-0.005115l24.709427,0l0,22.010229l-24.709427,0l0,-22.010229z" stroke-opacity="null" stroke-linecap="null" stroke-linejoin="null" stroke-width="null" stroke="null" fill-opacity="null" fill="null"/>
</symbol>
<symbol id="row-one-three" viewBox="0 0 38 22">
  <path d="m10,-0.021332l28,0l0,22l-28,0l0,-22z" stroke-opacity="null" stroke-linecap="null" stroke-linejoin="null" stroke-width="null" stroke="null" fill-opacity="null" fill="null"/>
  <path d="m0,0l8,0l0,22l-8,0l0,-22z" stroke-opacity="null" stroke-linecap="null" stroke-linejoin="null" stroke-width="null" stroke="null" fill-opacity="null" fill="null"/>
</symbol>
<symbol id="row-one-four" viewBox="0 0 38 22">
  <path d="m0,0l6,0l0,22l-6,0l0,-22z" stroke-opacity="null" stroke-linecap="null" stroke-linejoin="null" stroke-width="null" stroke="null" fill-opacity="null" fill="null"/>
  <path d="m8,0l30,0l0,22l-30,0l0,-22z" stroke-opacity="null" stroke-linecap="null" stroke-linejoin="null" stroke-width="null" stroke="null" fill-opacity="null" fill="null"/>
</symbol>
<symbol id="row-two-one" viewBox="0 0 38 22">
  <path d="m26.694678,-0.005115l11.3,0l0,22.010229l-11.3,0l0,-22.010229z" stroke-opacity="null" stroke-linecap="null" stroke-linejoin="null" stroke-width="null" stroke="null" fill-opacity="null" fill="null"/>
  <path d="m0.000988,-0.005115l24.709427,0l0,22.010229l-24.709427,0l0,-22.010229z" stroke-opacity="null" stroke-linecap="null" stroke-linejoin="null" stroke-width="null" stroke="null" fill-opacity="null" fill="null"/>
</symbol>
<symbol id="row-three-one" viewBox="0 0 38 22">
  <path d="m-0.004351,-0.021332l28,0l0,22l-28,0l0,-22z" stroke-opacity="null" stroke-linecap="null" stroke-linejoin="null" stroke-width="null" stroke="null" fill-opacity="null" fill="null"/>
  <path d="m30,-0.021332l8,0l0,22l-8,0l0,-22z" stroke-opacity="null" stroke-linecap="null" stroke-linejoin="null" stroke-width="null" stroke="null" fill-opacity="null" fill="null"/>
</symbol>
<symbol id="row-four-one" viewBox="0 0 38 22">
  <path d="m32,0l6,0l0,22l-6,0l0,-22z" stroke-opacity="null" stroke-linecap="null" stroke-linejoin="null" stroke-width="null" stroke="null" fill-opacity="null" fill="null"/>
  <path d="m0,0l30,0l0,22l-30,0l0,-22z" stroke-opacity="null" stroke-linecap="null" stroke-linejoin="null" stroke-width="null" stroke="null" fill-opacity="null" fill="null"/>
</symbol>
<symbol id="row-three-two" viewBox="0 0 38 22">
  <path d="m24,0l14,0l0,22l-14,0l0,-22z" stroke-opacity="null" stroke-linecap="null" stroke-linejoin="null" stroke-width="null" stroke="null" fill-opacity="null" fill="null"/>
  <path d="m0,0l22,0l0,22l-22,0l0,-22z" stroke-opacity="null" stroke-linecap="null" stroke-linejoin="null" stroke-width="null" stroke="null" fill-opacity="null" fill="null"/>
</symbol>
<symbol id="row-two-three" viewBox="0 0 38 22">
  <path d="m0,0l14,0l0,22l-14,0l0,-22z" stroke-opacity="null" stroke-linecap="null" stroke-linejoin="null" stroke-width="null" stroke="null" fill-opacity="null" fill="null"/>
  <path d="m16,0l22,0l0,22l-22,0l0,-22z" stroke-opacity="null" stroke-linecap="null" stroke-linejoin="null" stroke-width="null" stroke="null" fill-opacity="null" fill="null"/>
</symbol>
<symbol id="row-two-one-one" viewBox="0 0 38 22">
  <path d="m20.376452,-0.021332l8,0l0,22l-8,0l0,-22z" stroke-opacity="null" stroke-linecap="null" stroke-linejoin="null" stroke-width="null" stroke="null" fill-opacity="null" fill="null"/>
  <path d="m30.406241,-0.021332l8,0l0,22l-8,0l0,-22z" stroke-opacity="null" stroke-linecap="null" stroke-linejoin="null" stroke-width="null" stroke="null" fill-opacity="null" fill="null"/>
  <path d="m-0.017517,-0.021332l18,0l0,22l-18,0l0,-22z" stroke-opacity="null" stroke-linecap="null" stroke-linejoin="null" stroke-width="null" stroke="null" fill-opacity="null" fill="null"/>
</symbol>
<symbol id="row-three-one-one" viewBox="0 0 38 22">
  <path d="m24,0l6,0l0,22l-6,0l0,-22z" stroke-opacity="null" stroke-linecap="null" stroke-linejoin="null" stroke-width="null" stroke="null" fill-opacity="null" fill="null"/>
  <path d="m31.999999,0l6,0l0,22l-6,0l0,-22z" stroke-opacity="null" stroke-linecap="null" stroke-linejoin="null" stroke-width="null" stroke="null" fill-opacity="null" fill="null"/>
  <path d="m0,0l22,0l0,22l-22,0l0,-22z" stroke-opacity="null" stroke-linecap="null" stroke-linejoin="null" stroke-width="null" stroke="null" fill-opacity="null" fill="null"/>
</symbol>
<symbol id="row-two-one-one-one" viewBox="0 0 38 22">
  <path d="m32,0l6,0l0,22l-6,0l0,-22z" stroke-opacity="null" stroke-linecap="null" stroke-linejoin="null" stroke-width="null" stroke="null" fill-opacity="null" fill="null"/>
  <path d="m16,0l6,0l0,22l-6,0l0,-22z" stroke-opacity="null" stroke-linecap="null" stroke-linejoin="null" stroke-width="null" stroke="null" fill-opacity="null" fill="null"/>
  <path d="m24,0l6,0l0,22l-6,0l0,-22z" stroke-opacity="null" stroke-linecap="null" stroke-linejoin="null" stroke-width="null" stroke="null" fill-opacity="null" fill="null"/>
  <path d="m0,0l14,0l0,22l-14,0l0,-22z" stroke-opacity="null" stroke-linecap="null" stroke-linejoin="null" stroke-width="null" stroke="null" fill-opacity="null" fill="null"/>
</symbol>
<symbol id="row-one-twothree-three" viewBox="0 0 158 92">
  <path d="M111,35V92h47V35H111Z"/>
  <path d="M0,35V92H103V35H0Z"/>
  <path d="M0,0V27H158V0H0Z"/>
</symbol>
<symbol id="row-one-two-two" viewBox="0 0 158 92">
  <path class="cls-1" d="M0,35V92H75V35H0Z"/>
  <path class="cls-1" d="M0,0V27H158V0H0Z"/>
  <path class="cls-1" d="M83,35V92h75V35H83Z"/>
</symbol>
<symbol id="row-one-three-three-three" viewBox="0 0 158 92">
  <path d="M0,35V92H47V35H0Z"/>
  <path d="M55,35V92h48V35H55Z"/>
  <path d="M111,35V92h47V35H111Z"/>
  <path d="M0,0V27H158V0H0Z"/>
</symbol>
<symbol id="row-one-three-twothree" viewBox="0 0 158 92">
  <path d="M0,35V92H47V35H0Z"/>
  <path d="M55,35V92H158V35H55Z"/>
  <path d="M0,0V27H158V0H0Z"/>
</symbol>
<symbol id="row-one-two-one" viewBox="0 0 38 22">
  <path d="m-0.004351,-0.021332l8,0l0,22l-8,0l0,-22z" stroke-opacity="null" stroke-linecap="null" stroke-linejoin="null" stroke-width="null" stroke="null" fill-opacity="null" fill="null"/>
  <path d="m30,-0.021332l8,0l0,22l-8,0l0,-22z" stroke-opacity="null" stroke-linecap="null" stroke-linejoin="null" stroke-width="null" stroke="null" fill-opacity="null" fill="null"/>
  <path d="m10,-0.021332l18,0l0,22l-18,0l0,-22z" stroke-opacity="null" stroke-linecap="null" stroke-linejoin="null" stroke-width="null" stroke="null" fill-opacity="null" fill="null"/>
</symbol>
<symbol id="row-one-one-two" viewBox="0 0 38 22">
  <path d="m-0.004351,-0.021332l8,0l0,22l-8,0l0,-22z" stroke-opacity="null" stroke-linecap="null" stroke-linejoin="null" stroke-width="null" stroke="null" fill-opacity="null" fill="null"/>
  <path d="m10.025438,-0.021332l8,0l0,22l-8,0l0,-22z" stroke-opacity="null" stroke-linecap="null" stroke-linejoin="null" stroke-width="null" stroke="null" fill-opacity="null" fill="null"/>
  <path d="m20.021269,-0.021332l18,0l0,22l-18,0l0,-22z" stroke-opacity="null" stroke-linecap="null" stroke-linejoin="null" stroke-width="null" stroke="null" fill-opacity="null" fill="null"/>
</symbol>
<symbol id="row-one-three-one" viewBox="0 0 38 22">
  <path d="m0,0l6,0l0,22l-6,0l0,-22z" stroke-opacity="null" stroke-linecap="null" stroke-linejoin="null" stroke-width="null" stroke="null" fill-opacity="null" fill="null"/>
  <path d="m31.999999,0l6,0l0,22l-6,0l0,-22z" stroke-opacity="null" stroke-linecap="null" stroke-linejoin="null" stroke-width="null" stroke="null" fill-opacity="null" fill="null"/>
  <path d="m8,0l22,0l0,22l-22,0l0,-22z" stroke-opacity="null" stroke-linecap="null" stroke-linejoin="null" stroke-width="null" stroke="null" fill-opacity="null" fill="null"/>
</symbol>
<symbol id="row-one-one-three" viewBox="0 0 38 22">
  <path d="m0,0l6,0l0,22l-6,0l0,-22z" stroke-opacity="null" stroke-linecap="null" stroke-linejoin="null" stroke-width="null" stroke="null" fill-opacity="null" fill="null"/>
  <path d="m7.960906,0l6,0l0,22l-6,0l0,-22z" stroke-opacity="null" stroke-linecap="null" stroke-linejoin="null" stroke-width="null" stroke="null" fill-opacity="null" fill="null"/>
  <path d="m16,0l22,0l0,22l-22,0l0,-22z" stroke-opacity="null" stroke-linecap="null" stroke-linejoin="null" stroke-width="null" stroke="null" fill-opacity="null" fill="null"/>
</symbol>
<symbol id="row-one-one-one-two" viewBox="0 0 38 22">
  <path d="m0,0l6,0l0,22l-6,0l0,-22z" stroke-opacity="null" stroke-linecap="null" stroke-linejoin="null" stroke-width="null" stroke="null" fill-opacity="null" fill="null"/>
  <path d="m8,0l6,0l0,22l-6,0l0,-22z" stroke-opacity="null" stroke-linecap="null" stroke-linejoin="null" stroke-width="null" stroke="null" fill-opacity="null" fill="null"/>
  <path d="m16,0l6,0l0,22l-6,0l0,-22z" stroke-opacity="null" stroke-linecap="null" stroke-linejoin="null" stroke-width="null" stroke="null" fill-opacity="null" fill="null"/>
  <path d="m24,0l14,0l0,22l-14,0l0,-22z" stroke-opacity="null" stroke-linecap="null" stroke-linejoin="null" stroke-width="null" stroke="null" fill-opacity="null" fill="null"/>
</symbol>
</defs>
</svg>
