<svg aria-hidden="true" style="position: absolute; width: 0; height: 0; overflow: hidden;" version="1.1" xmlns="http://www.w3.org/2000/svg" xmlns:xlink="http://www.w3.org/1999/xlink">
<defs>
<symbol id="element-box" viewBox="0 0 57 32">
<title>box</title>
<path d="M41.814,27.444L30.674,3.315a2.075,2.075,0,0,0-.889-0.978,2.517,2.517,0,0,0-2.568,0,2.07,2.07,0,0,0-.889.978L15.19,27.444a2.1,2.1,0,0,0-.2.782,1.565,1.565,0,0,0,.612,1.252,2.134,2.134,0,0,0,1.4.508,1.851,1.851,0,0,0,.988-0.293,1.8,1.8,0,0,0,.711-0.841l2.607-5.866H35.77l2.607,5.866a1.835,1.835,0,0,0,.691.841,1.751,1.751,0,0,0,.968.293,2.085,2.085,0,0,0,1.363-.508,1.567,1.567,0,0,0,.612-1.251,2.118,2.118,0,0,0-.2-0.782h0ZM28.541,6.835l5.807,12.944H22.774Z"/>
</symbol>
<symbol id="element-mwvideo" viewBox="0 0 24 24">
<title>mwvideo</title>
<path d="M23.5 6.2c0 0 0 0 0 0-0.3-1.4-1.4-2.4-2.7-2.8-1.7-0.4-8.1-0.4-8.8-0.4s-7.1 0-8.9 0.5c-1.3 0.4-2.3 1.4-2.6 2.8-0.3 1.8-0.5 3.6-0.5 5.4s0.1 3.7 0.5 5.6c0.4 1.3 1.4 2.3 2.6 2.6 1.8 0.5 8.1 0.5 8.9 0.5s7.1 0 8.9-0.5c1.3-0.4 2.3-1.4 2.7-2.8 0.3-1.8 0.5-3.6 0.5-5.4-0.1-1.8-0.2-3.6-0.6-5.5zM21.6 16.8c-0.2 0.6-0.6 1.1-1.2 1.3-1.2 0.3-5.6 0.4-8.3 0.4s-7.3-0.2-8.4-0.5c-0.6-0.2-1.1-0.6-1.2-1.1-0.4-1.7-0.5-3.4-0.5-5.2 0-1.7 0.1-3.4 0.4-5 0.2-0.6 0.6-1.1 1.2-1.3 1.2-0.3 5.7-0.4 8.4-0.4 1.9 0 7 0.1 8.3 0.4 0.6 0.2 1.1 0.6 1.2 1.3 0.4 1.6 0.5 3.3 0.5 5.1 0 1.7-0.1 3.4-0.4 5z"></path>
<path d="M16 10.9l-5.8-3.3c-0.3-0.2-0.7-0.2-1 0s-0.4 0.5-0.4 0.9v6.5c0 0.4 0.2 0.7 0.5 0.9 0.1 0.1 0.3 0.1 0.5 0.1s0.3 0 0.5-0.1l5.8-3.3c0.3-0.2 0.5-0.5 0.5-0.9-0.1-0.3-0.3-0.6-0.6-0.8zM10.8 13.3v-3.1l2.7 1.6-2.7 1.5z"></path>
</symbol>
<symbol id="element-popup" viewBox="0 0 987 554">
<title>popup</title>
<path d="M644.707,28H341.89C305.119,28,277,56.176,277,93.022V462.977C277,499.823,305.119,528,341.89,528H644.707c36.77,0,64.889-28.177,64.889-65.023V93.022C709.6,56.176,681.477,28,644.707,28h0Zm21.629,434.978c0,13-8.652,21.674-21.63,21.674H341.889c-12.978,0-21.63-8.67-21.63-21.674V93.023c0-13,8.652-21.674,21.63-21.674H644.706c12.978,0,21.63,8.67,21.63,21.674V462.978h0Z"/>
</symbol>
<symbol id="element-content" viewBox="0 0 117 96">
<title>content</title>
<path d="M16,55V88H49V55H16Zm4.981,4.981H44.019V83.019H20.981V59.981Z"/>
<path d="M67,55V88h33V55H67Zm4.981,4.981H95.019V83.019H71.981V59.981Z"/>
<path d="M42,7V40H75V7H42Z"/>
<path d="M65.733,31.465L83.714,59.136l4.193-2.724L69.926,28.741Z"/>
<path d="M50.986,31.682L33.157,59.011,29,56.321l17.829-27.33Z"/>
</symbol>
</defs>
</svg>
