<svg aria-hidden="true" style="position: absolute; width: 0; height: 0; overflow: hidden;" version="1.1" xmlns="http://www.w3.org/2000/svg" xmlns:xlink="http://www.w3.org/1999/xlink">
<defs>
<symbol id="icon-music" viewBox="0 0 32 32">
<title>music</title>
<path d="M0.32 28.64q-0.704-1.824 0.16-3.776 1.184-2.432 4.192-3.424 1.248-0.448 2.496-0.448 2.208 0 3.808 1.184v-17.184q0-0.736 0.48-1.28t1.152-0.704l16.992-3.008h0.384q0.768 0 1.312 0.512 0.704 0.544 0.704 1.504v20.992q0 1.12-0.512 2.112-1.184 2.432-4.192 3.456-1.248 0.416-2.496 0.416-1.92 0-3.424-0.896t-2.080-2.464q-0.672-1.824 0.192-3.744 1.184-2.464 4.192-3.456 1.248-0.448 2.496-0.448 2.176 0 3.808 1.216v-12.128l-16.608 2.912h-0.384v16q0 1.152-0.512 2.144-1.184 2.432-4.192 3.424-1.248 0.448-2.496 0.448-1.92 0-3.424-0.896t-2.048-2.464zM2.144 27.936q0.48 1.312 2.112 1.856t3.424-0.096 2.72-1.984 0.416-2.656-2.112-1.824-3.392 0.064-2.72 1.984-0.448 2.656zM12.928 8l16.992-3.008v-2.976l-16.992 2.976v3.008zM21.12 24.928q0.48 1.312 2.112 1.856t3.424-0.096 2.72-1.984 0.416-2.656-2.112-1.824-3.424 0.096-2.688 1.952-0.448 2.656z"></path>
</symbol>
<symbol id="icon-search" viewBox="0 0 32 32">
<title>search</title>
<path d="M0 28.512q0-1.504 1.056-2.56l8.32-8.32q-1.376-2.624-1.376-5.632 0-4.928 3.488-8.48t8.512-3.52 8.512 3.52 3.488 8.512-3.488 8.48-8.512 3.488q-3.008 0-5.632-1.376l-8.32 8.32q-1.056 1.056-2.56 1.056-1.44 0-2.464-1.024t-1.024-2.464zM1.76 28.48q0 0.704 0.512 1.248t1.248 0.512 1.28-0.544l8.064-8.064q-1.44-1.056-2.496-2.496l-8.064 8.064q-0.544 0.544-0.544 1.28zM10.016 12q0 4.128 2.912 7.072t7.072 2.912 7.072-2.912 2.912-7.072-2.912-7.072-7.072-2.912-7.072 2.912-2.912 7.072zM12.992 12q0-2.88 2.080-4.928t4.928-2.080q0.512 0 0.512 0.512t-0.512 0.512q-2.496 0-4.256 1.728t-1.728 4.256q0 0.512-0.512 0.512t-0.512-0.512z"></path>
</symbol>
<symbol id="icon-mail" viewBox="0 0 32 32">
<title>mail</title>
<path d="M0 21.984v-12.992q0-1.632 1.152-2.816t2.848-1.184h24q1.696 0 2.848 1.184t1.152 2.816v12.992q0 1.696-1.152 2.848t-2.848 1.152h-24q-1.696 0-2.848-1.152t-1.152-2.848zM2.016 21.984q0 0.832 0.576 1.408t1.408 0.608h24q0.8 0 1.408-0.608t0.576-1.408l-7.808-5.856-4.352 3.232q-0.832 0.64-1.824 0.64t-1.824-0.64l-4.352-3.232zM2.016 20.736l6.976-5.248-6.976-5.248v10.496zM2.016 8.992l7.808 5.888 0.864 0.608 4.128 3.136q0.512 0.384 1.184 0.384t1.184-0.384l12.8-9.632q0-0.8-0.576-1.408t-1.408-0.576h-24q-0.8 0-1.408 0.576t-0.576 1.408zM23.008 15.488l6.976 5.248v-10.496z"></path>
</symbol>
<symbol id="icon-heart" viewBox="0 0 32 32">
<title>heart</title>
<path d="M0 11.968q0-3.904 2.816-6.72 2.688-2.688 6.528-2.752t6.656 2.496q2.816-2.56 6.656-2.496t6.528 2.752q2.816 2.816 2.816 6.72t-2.816 6.72q-0.128 0.128-11.072 10.944-0.864 0.864-2.112 0.864t-2.112-0.864q-0.064 0-11.072-10.944-2.816-2.816-2.816-6.72zM2.016 11.968q0 3.104 2.24 5.28l11.072 10.944q0.672 0.736 1.376 0l11.040-10.944q2.24-2.176 2.24-5.28t-2.24-5.28q-2.112-2.112-5.12-2.176t-5.248 1.92l-1.376 1.248-1.376-1.248q-2.24-1.984-5.248-1.92t-5.12 2.176q-2.24 2.176-2.24 5.28zM4.992 11.744q0-1.76 1.248-3.008t3.008-1.248q0.512 0 0.512 0.512t-0.512 0.512q-1.312 0-2.272 0.928t-0.96 2.304q0 0.512-0.512 0.512t-0.512-0.512z"></path>
</symbol>
<symbol id="icon-star" viewBox="0 0 32 32">
<title>star</title>
<path d="M0.128 12.576q0.448-1.312 1.824-1.504l8.384-1.248 3.616-7.52q0.608-1.312 2.048-1.312t2.080 1.312l3.616 7.52 8.384 1.248q1.376 0.192 1.792 1.504t-0.48 2.24l-6.144 6.112 1.376 8.448q0.256 1.376-0.928 2.176-0.576 0.448-1.312 0.448-0.576 0-1.12-0.256l-7.264-3.936-7.232 3.936q-0.576 0.256-1.12 0.256-0.768 0-1.312-0.448-1.216-0.8-0.96-2.176l1.376-8.448-6.048-6.112q-1.024-0.928-0.576-2.24zM2.336 13.248l6.112 6.112q0.8 0.832 0.608 1.952l-1.408 8.448 7.232-3.936q0.512-0.256 1.12-0.256t1.12 0.256l7.264 3.936-1.44-8.448q-0.192-1.12 0.64-1.952l6.112-6.112-8.32-1.184q-1.248-0.192-1.728-1.312l-3.648-7.488-3.616 7.488q-0.512 1.12-1.76 1.248z"></path>
</symbol>
<symbol id="icon-user" viewBox="0 0 32 32">
<title>user</title>
<path d="M0.128 30.56q-0.448-1.376 0.8-2.24 3.808-2.496 9.312-3.712-2.688-3.36-3.808-8.16-0.32-1.76-0.352-3.904t0.736-4.768 2.112-4.416q2.688-3.36 7.136-3.36t7.104 3.36q1.376 1.824 2.144 4.416t0.704 4.768-0.352 3.904q-1.12 4.8-3.808 8.192 5.504 1.184 9.312 3.68 1.248 0.864 0.832 2.272t-1.952 1.408h-28q-0.672 0-1.216-0.416t-0.704-1.024zM2.048 30.016h28q-3.488-2.336-8.544-3.456l-2.528-0.512q-1.44 0.96-2.912 0.96t-2.944-0.96l-2.496 0.512q-5.12 1.12-8.576 3.456zM8.224 10.752q-0.416 3.296 0.512 6.656t3.072 5.952l0.32 0.448q1.792 2.080 3.936 2.080t3.936-2.080l0.288-0.448q2.144-2.624 3.072-5.952t0.512-6.656q-0.448-3.616-2.432-6.176t-5.376-2.56-5.376 2.56-2.464 6.176z"></path>
</symbol>
<symbol id="icon-videocam" viewBox="0 0 32 32">
<title>videocam</title>
<path d="M0 24v-16q0-1.248 0.864-2.112t2.144-0.896h19.008q1.248 0 2.112 0.896t0.864 2.112v1.248l2.688-2.688q0.64-0.544 1.44-0.544h0.864q0.832 0 1.408 0.576t0.608 1.408v16q0 0.864-0.608 1.44t-1.408 0.544h-0.864q-0.8 0-1.44-0.544l-2.688-2.688v1.248q0 1.248-0.864 2.112t-2.112 0.896h-19.008q-1.248 0-2.144-0.896t-0.864-2.112zM2.016 24q0 0.448 0.256 0.704t0.736 0.288h19.008q0.416 0 0.704-0.288t0.288-0.704v-16q0-0.448-0.288-0.704t-0.704-0.288h-19.008q-0.448 0-0.736 0.288t-0.256 0.704v16zM24 19.008l4.992 4.992h0.992v-16h-0.992l-4.992 4.992v6.016z"></path>
</symbol>
<symbol id="icon-camera" viewBox="0 0 32 32">
<title>camera</title>
<path d="M0 27.008v-15.008q0-1.12 0.736-1.952t1.76-0.992l4.32-0.736 1.376-3.456q0.384-0.864 1.12-1.376t1.696-0.48h9.984q0.96 0 1.696 0.48t1.12 1.376l1.376 3.456 4.32 0.736q1.056 0.192 1.792 0.992t0.704 1.952v15.008q0 1.248-0.864 2.112t-2.144 0.896h-25.984q-1.248 0-2.144-0.896t-0.864-2.112zM2.016 27.008q0 0.416 0.256 0.704t0.736 0.288h25.984q0.448 0 0.736-0.288t0.256-0.704v-15.008q0-0.864-0.8-0.992l-5.44-0.896-1.792-4.48q-0.256-0.64-0.96-0.64h-9.984q-0.704 0-0.96 0.64l-1.792 4.48-5.44 0.896q-0.8 0.128-0.8 0.992v15.008zM8 17.984q0-3.296 2.336-5.632t5.664-2.368 5.664 2.368 2.336 5.632-2.336 5.664-5.664 2.336-5.664-2.336-2.336-5.664zM10.016 18.464q0.16 2.464 2.080 4.096t4.384 1.44 4.096-2.080 1.44-4.384-2.112-4.096-4.384-1.44-4.096 2.080-1.408 4.384zM12 17.984q0-1.6 1.152-2.784t2.848-1.216q0.512 0 0.512 0.512t-0.512 0.512q-1.248 0-2.112 0.864t-0.896 2.112q0 0.512-0.48 0.512t-0.512-0.512z"></path>
</symbol>
<symbol id="icon-photo" viewBox="0 0 30 32">
<title>photo</title>
<path d="M0 28v-24q0-1.696 1.152-2.848t2.848-1.152h21.984q1.696 0 2.848 1.152t1.152 2.848v24q0 1.696-1.152 2.848t-2.848 1.152h-21.984q-1.696 0-2.848-1.152t-1.152-2.848zM2.016 28q0 0.8 0.576 1.408t1.408 0.608h21.984q0.832 0 1.408-0.608t0.608-1.408v-24q0-0.8-0.608-1.408t-1.408-0.576h-21.984q-0.8 0-1.408 0.576t-0.576 1.408v24zM4 23.008v-18.016q0-0.416 0.288-0.704t0.704-0.288h20q0.448 0 0.736 0.288t0.288 0.704v18.016q0 0.416-0.288 0.704t-0.736 0.288h-20q-0.416 0-0.704-0.288t-0.288-0.704zM4.992 23.008h15.456l-2.816-3.2-0.576-0.672-8.064-9.152-4 4.64v8.384zM4.992 13.056l3.264-3.744q0.32-0.32 0.736-0.32t0.768 0.32l7.872 8.992 2.624-3.008q0.32-0.288 0.736-0.288t0.768 0.288l3.232 3.584v-13.888h-20v8.064zM16 9.984q0-1.248 0.864-2.112t2.144-0.864 2.112 0.864 0.896 2.112-0.896 2.144-2.112 0.864-2.144-0.864-0.864-2.144zM16.992 9.984q0 0.832 0.608 1.408t1.408 0.608 1.408-0.608 0.576-1.408-0.576-1.376-1.408-0.608-1.408 0.608-0.608 1.376zM18.304 19.072l3.456 3.936h3.232v-2.624l-4-4.384z"></path>
</symbol>
<symbol id="icon-attach" viewBox="0 0 32 32">
<title>attach</title>
<path d="M0 24.032q0-2.912 2.048-4.96l14.592-14.432q2.624-2.624 6.368-2.624t6.368 2.624 2.624 6.368-2.624 6.368l-11.008 10.944q-0.672 0.736-1.408 0.032t0.032-1.408l10.816-10.88q2.080-1.984 2.080-4.896t-2.080-4.992-4.96-2.048-4.896 2.048l-14.528 14.336q-1.408 1.44-1.408 3.488t1.44 3.52 3.552 1.472 3.488-1.44l14.624-14.432q0.864-0.864 0.864-2.112t-0.864-2.144-2.112-0.864-2.144 0.864l-10.912 11.008q-0.768 0.704-1.44-0.032t0-1.408l10.912-10.976q1.504-1.44 3.584-1.44t3.52 1.44 1.472 3.552-1.44 3.552l-14.624 14.368q-2.048 2.080-4.96 2.080t-4.928-2.048-2.048-4.928z"></path>
</symbol>
<symbol id="icon-lock" viewBox="0 0 24 32">
<title>lock</title>
<path d="M0 23.008v-7.008q0-1.248 0.864-2.112t2.144-0.896v-4q0-3.744 2.624-6.368t6.368-2.624 6.368 2.624 2.624 6.368v4q1.248 0 2.144 0.896t0.864 2.112v7.008q0 3.744-2.624 6.368t-6.368 2.624h-6.016q-3.744 0-6.368-2.624t-2.624-6.368zM2.016 23.008q0 2.88 2.048 4.928t4.928 2.080h6.016q2.88 0 4.928-2.080t2.080-4.928v-7.008q0-0.448-0.288-0.704t-0.736-0.288h-17.984q-0.448 0-0.736 0.288t-0.256 0.704v7.008zM4.992 12.992h2.016v-4q0-2.048 1.472-3.52t3.52-1.472 3.52 1.472 1.472 3.52v4h2.016v-4q0-2.88-2.080-4.928t-4.928-2.048-4.928 2.048-2.080 4.928v4zM8 12.992h8v-4q0-1.664-1.152-2.848t-2.848-1.152-2.848 1.152-1.152 2.848v4zM10.016 20.992q0-0.8 0.576-1.408t1.408-0.576 1.408 0.576 0.608 1.408q0 0.896-0.704 2.688-0.448 1.312-1.312 1.312t-1.312-1.312q-0.672-1.792-0.672-2.688z"></path>
</symbol>
<symbol id="icon-eye" viewBox="0 0 32 32">
<title>eye</title>
<path d="M0 16.288v-0.576q0-0.032 0.064-0.096v-0.128q2.24-4.16 6.592-6.816t9.28-2.656 9.312 2.656 6.56 6.88l0.064 0.064v0.128q0.064 0.192 0.064 0.256t-0.064 0.256v0.128l-0.064 0.064q-2.176 4.224-6.56 6.88t-9.312 2.656-9.28-2.656-6.592-6.88v-0.064q-0.064-0.064-0.064-0.096zM2.112 16q2.080 3.616 5.856 5.824t8 2.176 8-2.176 5.856-5.824q-2.080-3.616-5.856-5.824t-8-2.176-8 2.176-5.856 5.824zM8.928 16q0-2.88 2.080-4.928t4.928-2.080 4.928 2.080 2.080 4.928-2.080 4.928-4.928 2.080-4.928-2.080-2.080-4.928zM9.952 16q0 2.496 1.728 4.256t4.256 1.728 4.256-1.728 1.76-4.256-1.76-4.256-4.256-1.76-4.256 1.76-1.728 4.256zM11.936 16q0-1.696 1.184-2.848t2.816-1.152q0.512 0 0.512 0.512t-0.512 0.48q-1.184 0-2.080 0.896t-0.928 2.112q0 0.512-0.48 0.512t-0.512-0.512z"></path>
</symbol>
<symbol id="icon-tag" viewBox="0 0 32 32">
<title>tag</title>
<path d="M0 24v-16q0-1.632 1.152-2.816t2.848-1.184h19.008q2.176 0 3.36 1.888l4.992 8q1.376 2.112 0 4.224l-4.992 8q-1.184 1.888-3.36 1.888h-19.008q-1.696 0-2.848-1.152t-1.152-2.848zM2.016 24q0 0.8 0.576 1.408t1.408 0.576h19.008q1.12 0 1.664-0.928l5.024-8q0.672-1.056 0-2.112l-5.024-8q-0.544-0.928-1.664-0.928h-19.008q-0.8 0-1.408 0.576t-0.576 1.408v16zM20 16q0-1.248 0.864-2.112t2.144-0.896 2.112 0.896 0.864 2.112-0.864 2.112-2.112 0.896-2.144-0.896-0.864-2.112zM20.992 16q0 0.8 0.608 1.408t1.408 0.576 1.408-0.576 0.576-1.408-0.576-1.408-1.408-0.608-1.408 0.608-0.608 1.408z"></path>
</symbol>
<symbol id="icon-thumbs-up" viewBox="0 0 32 32">
<title>thumbs-up</title>
<path d="M0 28.992v-16q0-1.248 0.864-2.112t2.144-0.896h3.008q1.024 0 1.92 0.768 0.384-0.192 1.056-0.512 3.936-2.048 4-7.232 0-1.248 0.896-2.144t2.112-0.864q1.824 0 3.36 2.048t1.568 4.704q0 2.112-0.256 3.296 7.584 0.192 8.512 0.448 1.376 0.384 2.112 1.376t0.704 2.016v0.736q-0.064 1.248-0.864 2.176 0.544 1.088 0.352 2.4-0.224 1.728-1.312 2.752 0.512 1.184 0 2.688-0.544 1.856-1.664 2.624 0.224 0.864 0 1.728-0.192 0.576-0.448 1.088-1.056 1.92-3.552 1.92h-5.504q-2.944 0-5.952-0.672-2.944-0.704-4.064-0.96h-0.064q0-0.064-0.096-0.064h-0.128v-0.064q-0.896 1.76-2.688 1.76h-3.008q-1.248 0-2.144-0.864t-0.864-2.144zM2.016 28.992q0 0.448 0.256 0.736t0.736 0.288h3.008q0.416 0 0.704-0.288t0.288-0.736v-16q0-0.416-0.288-0.704t-0.704-0.288h-3.008q-0.448 0-0.736 0.288t-0.256 0.704v16zM3.008 27.488q0-0.608 0.416-1.056t1.088-0.448 1.056 0.448 0.448 1.056-0.448 1.088-1.056 0.416-1.088-0.416-0.416-1.088zM4 27.488q0 0.512 0.512 0.512t0.48-0.512-0.48-0.48-0.512 0.48zM8 27.392q0 0.736 0.864 0.864 0.704 0.192 4.64 1.12 2.816 0.64 5.504 0.64h5.504q1.312 0 1.792-0.896 0.192-0.48 0.256-0.736 0.192-0.384-0.064-0.896t-0.928-0.48h-1.568q-0.512 0-0.512-0.512t0.512-0.512h1.632q0.992 0 1.568-0.32t0.704-0.64 0.352-0.96q0.672-2.080-1.248-2.080h-2.016q-0.48 0-0.48-0.48t0.48-0.512h2.368q1.824 0 2.208-2.112 0.064-0.704-0.288-1.28t-1.344-0.608h-1.952q-0.48 0-0.48-0.48t0.48-0.512h2.016q1.952 0 1.984-1.44v-0.672q0-1.216-1.184-1.504-1.44-0.384-10.784-0.384 0.608-1.888 0.768-2.688t0.16-2.56q0-1.824-1.024-3.296t-1.92-1.44q-0.992 0-0.992 0.992-0.064 2.944-1.472 5.536t-4.544 3.904q-0.064 0-0.128 0.032l-0.064 0.032q-0.8 0.256-0.8 1.056v13.824z"></path>
</symbol>
<symbol id="icon-pencil" viewBox="0 0 32 32">
<title>pencil</title>
<path d="M0 28.512q0-0.128 0.032-0.256t0.032-0.256 0.032-0.256 0.032-0.192v-0.064l2.368-8.544q0.32-0.992 0.992-1.696l10.4-10.368v-0.064l0.064-0.064 4.8-4.864q1.92-1.888 4.672-1.888 3.392 0 5.952 2.56 2.368 2.368 2.592 5.472t-1.856 5.152l-15.232 15.392q-0.768 0.736-1.76 0.992l-8.512 2.272q-0.096 0.032-0.224 0.064t-0.288 0.032-0.32 0.032-0.288 0.032q-1.44 0-2.464-1.024t-1.024-2.464zM2.016 28.512q0 0.608 0.416 1.056t1.056 0.448q0.192 0 0.704-0.128l3.68-1.024q0.128-1.856-1.376-3.36-1.44-1.44-3.36-1.376l-1.024 3.808q-0.096 0.448-0.096 0.576zM3.424 23.136q2.144 0.064 3.776 1.664t1.664 3.84l3.712-0.96 0.352-0.192q1.312-1.504 1.088-3.68t-1.952-3.872q-1.632-1.568-3.68-1.888t-3.584 0.768q-0.224 0.32-0.352 0.672zM7.616 15.936q1.44 0.064 2.88 0.64l9.44-9.44q-2.816-0.704-4.608 1.056zM11.424 17.056q1.216 0.64 2.080 1.44 0.672 0.704 1.312 1.76l9.504-9.568q-0.512-0.992-1.248-1.76-0.96-0.928-2.144-1.44zM15.328 21.184q0.544 1.312 0.672 2.624v0.768l7.744-7.84v-0.064q1.952-1.92 0.992-4.992zM18.56 4.928q3.392 0 5.952 2.56 2.24 2.336 2.496 5.312v0.704l1.664-1.76q1.44-1.44 1.312-3.552-0.16-2.368-1.984-4.192-2.016-1.984-4.576-1.984-1.92 0-3.232 1.312z"></path>
</symbol>
<symbol id="icon-comment" viewBox="0 0 32 32">
<title>comment</title>
<path d="M0 13.984q0-4.992 4.704-8.48t11.296-3.488 11.328 3.488 4.672 8.512-4.672 8.48-11.328 3.52q-1.504 0-3.072-0.256-0.928 1.12-2.848 2.496t-3.904 1.76h-0.288q-0.384 0-0.64-0.256t-0.256-0.64q0-0.192 0.064-0.384 0-0.032 0.416-0.672t0.576-0.928 0.416-0.96 0.416-1.152 0.128-1.024v-0.064q-3.264-1.696-5.12-4.288t-1.888-5.632zM2.016 13.984q0 2.4 1.536 4.576t4.384 3.552q1.056 0.576 1.056 1.824v0.192q0 1.312-0.672 2.944 1.92-1.184 3.040-2.56 0.576-0.768 1.568-0.768 0.128 0 0.256 0.064 1.44 0.192 2.816 0.192 5.824 0 9.92-2.944t4.064-7.072-4.064-7.040-9.92-2.944-9.92 2.944-4.064 7.040zM4.992 13.984q0-2.848 3.264-4.928t7.744-2.048q0.512 0 0.512 0.48t-0.512 0.512q-4 0-7.008 1.824t-2.976 4.192q0 0.48-0.512 0.48t-0.512-0.48z"></path>
</symbol>
<symbol id="icon-location" viewBox="0 0 24 32">
<title>location</title>
<path d="M0 12q0-4.992 3.488-8.512t8.512-3.488 8.512 3.488 3.488 8.512q0 2.496-0.896 5.12t-2.72 5.312-3.232 4.512-3.52 4.256q-0.64 0.8-1.568 0.8h-0.128q-0.928 0-1.568-0.8-2.112-2.464-3.52-4.256t-3.232-4.512-2.72-5.312-0.896-5.12zM2.016 12q0 2.304 0.896 4.8t2.72 5.152 3.040 4.096 3.2 3.84h0.064q0.064 0.064 0.064 0.128l0.128-0.128q1.984-2.336 3.2-3.84t3.008-4.096 2.752-5.152 0.928-4.8q0-4.128-2.944-7.072t-7.072-2.912-7.072 2.912-2.912 7.072zM6.016 11.744q0-2.496 1.728-4.256t4.256-1.728 4.256 1.728 1.76 4.256-1.76 4.256-4.256 1.76-4.256-1.76-1.728-4.256zM7.008 11.744q0 2.080 1.472 3.552t3.52 1.44 3.52-1.44 1.472-3.552-1.472-3.52-3.52-1.472-3.52 1.472-1.472 3.52z"></path>
</symbol>
<symbol id="icon-cup" viewBox="0 0 28 32">
<title>cup</title>
<path d="M0 9.984v-2.976q0-0.832 0.544-1.376t1.344-0.64l1.248-3.616q0.416-1.376 1.856-1.376h18.016q1.44 0 1.856 1.376l1.248 3.616q0.768 0.064 1.312 0.64t0.576 1.376v2.976q0 0.832-0.608 1.408t-1.408 0.608h-1.056l0.032 0.096q0.032 0.096 0.032 0.16l-1.984 17.984q-0.128 0.768-0.704 1.248t-1.312 0.512h-13.984q-0.768 0-1.312-0.512t-0.704-1.248l-1.984-17.984q0-0.064 0.032-0.16l0.032-0.096h-1.056q-0.832 0-1.408-0.608t-0.608-1.408zM2.016 9.984h23.968v-2.976h-23.968v2.976zM4 4.992h20l-0.992-2.976h-18.016zM4.992 12l0.32 3.008h17.376l0.32-3.008h-18.016zM5.44 16l1.12 9.984h14.88l1.12-9.984h-17.12zM6.688 27.008l0.32 2.976h13.984l0.32-2.976h-14.624z"></path>
</symbol>
<symbol id="icon-trash" viewBox="0 0 28 32">
<title>trash</title>
<path d="M0 8.992v-2.176q0.064-1.184 0.928-2.016t2.080-0.8h3.008v-0.992q0-1.248 0.864-2.144t2.112-0.864h10.016q1.248 0 2.112 0.864t0.896 2.144v0.992h2.976q1.184 0 2.080 0.8t0.928 2.016v2.176q0 0.832-0.608 1.408t-1.408 0.608v16.992q0 1.696-1.152 2.848t-2.816 1.152h-16q-1.696 0-2.848-1.152t-1.152-2.848v-16.992q-0.832 0-1.408-0.608t-0.608-1.408zM2.016 8.992h23.968v-1.984q0-0.448-0.256-0.736t-0.736-0.256h-21.984q-0.448 0-0.736 0.256t-0.256 0.736v1.984zM4 28q0 0.8 0.608 1.408t1.408 0.608h16q0.8 0 1.376-0.608t0.608-1.408v-16.992h-20v16.992zM6.016 27.008v-13.024q0-0.416 0.256-0.704t0.736-0.288h1.984q0.448 0 0.736 0.288t0.288 0.704v13.024q0 0.416-0.288 0.704t-0.736 0.288h-1.984q-0.448 0-0.736-0.288t-0.256-0.704zM7.008 27.008h1.984v-13.024h-1.984v13.024zM8 4h12v-0.992q0-0.448-0.288-0.736t-0.704-0.256h-10.016q-0.416 0-0.704 0.256t-0.288 0.736v0.992zM12 27.008v-13.024q0-0.416 0.288-0.704t0.704-0.288h2.016q0.416 0 0.704 0.288t0.288 0.704v13.024q0 0.416-0.288 0.704t-0.704 0.288h-2.016q-0.416 0-0.704-0.288t-0.288-0.704zM12.992 27.008h2.016v-13.024h-2.016v13.024zM18.016 27.008v-13.024q0-0.416 0.256-0.704t0.736-0.288h1.984q0.448 0 0.736 0.288t0.288 0.704v13.024q0 0.416-0.288 0.704t-0.736 0.288h-1.984q-0.448 0-0.736-0.288t-0.256-0.704zM19.008 27.008h1.984v-13.024h-1.984v13.024z"></path>
</symbol>
<symbol id="icon-doc" viewBox="0 0 32 32">
<title>doc</title>
<path d="M0 28v-20q0-1.248 0.864-2.112t2.144-0.896h0.992v-1.984q0-1.248 0.864-2.144t2.144-0.864h21.984q1.248 0 2.144 0.864t0.864 2.144v24.992q0 1.696-1.152 2.848t-2.848 1.152h-24q-1.696 0-2.848-1.152t-1.152-2.848zM2.016 28q0 0.8 0.576 1.408t1.408 0.608h24q0.8 0 1.408-0.608t0.576-1.408v-24.992q0-0.448-0.256-0.736t-0.736-0.256h-21.984q-0.448 0-0.736 0.256t-0.256 0.736v24q0 0.416-0.288 0.704t-0.736 0.288-0.704-0.288-0.288-0.704v-20h-0.992q-0.448 0-0.736 0.288t-0.256 0.704v20zM8 27.488q0-0.48 0.512-0.48h8q0.48 0 0.48 0.48t-0.48 0.512h-8q-0.512 0-0.512-0.512zM8 24.512q0-0.512 0.512-0.512h8q0.48 0 0.48 0.512t-0.48 0.48h-8q-0.512 0-0.512-0.48zM8 21.504q0-0.512 0.512-0.512h8q0.48 0 0.48 0.512 0 0.192-0.16 0.352t-0.32 0.128h-8q-0.512 0-0.512-0.48zM8 18.496q0-0.512 0.512-0.512h18.976q0.512 0 0.512 0.512t-0.512 0.512h-18.976q-0.512 0-0.512-0.512zM8 15.488q0-0.48 0.512-0.48h18.976q0.512 0 0.512 0.48t-0.512 0.512h-18.976q-0.512 0-0.512-0.512zM8 12v-7.008q0-0.416 0.288-0.704t0.704-0.288h7.008q0.448 0 0.704 0.288t0.288 0.704v7.008q0 0.448-0.288 0.704t-0.704 0.288h-7.008q-0.416 0-0.704-0.288t-0.288-0.704zM10.016 11.008h4.992v-4.992h-4.992v4.992zM19.008 27.488q0-0.48 0.48-0.48h8q0.512 0 0.512 0.48t-0.512 0.512h-8q-0.48 0-0.48-0.512zM19.008 24.512q0-0.512 0.48-0.512h8q0.512 0 0.512 0.512t-0.512 0.48h-8q-0.48 0-0.48-0.48zM19.008 21.504q0-0.512 0.48-0.512h8q0.512 0 0.512 0.512 0 0.192-0.16 0.352t-0.352 0.16h-8q-0.48 0-0.48-0.512zM19.008 12.512q0-0.512 0.48-0.512h8q0.512 0 0.512 0.512t-0.512 0.48h-8q-0.48 0-0.48-0.48zM19.008 9.504q0-0.512 0.48-0.512h8q0.512 0 0.512 0.512t-0.512 0.512h-8q-0.48 0-0.48-0.512zM19.008 6.496q0-0.48 0.48-0.48h8q0.512 0 0.512 0.48t-0.512 0.512h-8q-0.48 0-0.48-0.512z"></path>
</symbol>
<symbol id="icon-note" viewBox="0 0 32 32">
<title>note</title>
<path d="M0 28v-24q0-1.248 0.864-2.112t2.144-0.896h20.992q0.8 0 1.44 0.576l5.984 5.984q0.576 0.64 0.576 1.44v19.008q0 1.248-0.864 2.112t-2.144 0.896h-25.984q-1.248 0-2.144-0.896t-0.864-2.112zM2.016 28q0 0.448 0.256 0.736t0.736 0.256h25.984q0.448 0 0.736-0.256t0.256-0.736v-18.016h-3.968q-1.28 0-2.144-0.864t-0.864-2.112v-4h-20q-0.448 0-0.736 0.288t-0.256 0.704v24zM4 25.504q0-0.512 0.512-0.512h22.976q0.512 0 0.512 0.512t-0.512 0.48h-22.976q-0.512 0-0.512-0.48zM4 22.496q0-0.512 0.512-0.512h22.976q0.512 0 0.512 0.512t-0.512 0.512h-22.976q-0.512 0-0.512-0.512zM4 19.488q0-0.48 0.512-0.48h22.976q0.512 0 0.512 0.48t-0.512 0.512h-22.976q-0.512 0-0.512-0.512zM4 16.512q0-0.512 0.512-0.512h22.976q0.512 0 0.512 0.512t-0.512 0.48h-22.976q-0.512 0-0.512-0.48zM4 12.992v-5.984q0-0.448 0.288-0.736t0.704-0.256h7.008q0.448 0 0.704 0.256t0.288 0.736v5.984q0 0.448-0.288 0.736t-0.704 0.256h-7.008q-0.416 0-0.704-0.256t-0.288-0.736zM6.016 12h4.992v-4h-4.992v4zM15.008 13.504q0-0.512 0.48-0.512h12q0.512 0 0.512 0.512t-0.512 0.48h-12q-0.48 0-0.48-0.48zM15.008 10.496q0-0.512 0.48-0.512h5.024q0.48 0 0.48 0.512t-0.48 0.512h-5.024q-0.48 0-0.48-0.512zM15.008 7.488q0-0.48 0.48-0.48h5.024q0.48 0 0.48 0.48t-0.48 0.512h-5.024q-0.48 0-0.48-0.512zM24 7.008q0 0.8 0.608 1.408t1.376 0.576h4l-5.984-5.984v4z"></path>
</symbol>
<symbol id="icon-cog" viewBox="0 0 32 32">
<title>cog</title>
<path d="M0 17.376v-2.752q0-0.672 0.48-1.248t1.152-0.704l3.072-0.608q0.16-0.64 0.48-1.312l-1.696-2.56q-0.416-0.64-0.32-1.344t0.576-1.216l1.888-1.888q0.608-0.608 1.44-0.608 0.608 0 1.12 0.352l2.56 1.696q0.672-0.32 1.312-0.512l0.64-3.040q0.096-0.704 0.672-1.152t1.248-0.48h2.752q0.672 0 1.248 0.48t0.704 1.152l0.608 3.040q0.64 0.192 1.312 0.512l2.56-1.696q0.512-0.352 1.12-0.352 0.832 0 1.44 0.608l1.888 1.888q0.544 0.48 0.608 1.216t-0.352 1.344l-1.696 2.56q0.32 0.704 0.512 1.312l3.040 0.64q0.704 0.096 1.152 0.672t0.48 1.248v2.752q0 0.704-0.48 1.248t-1.152 0.704l-3.040 0.608q-0.192 0.64-0.512 1.312l1.696 2.56q0.416 0.64 0.352 1.344t-0.608 1.216l-1.888 1.888q-0.608 0.608-1.44 0.608-0.608 0-1.12-0.352l-2.56-1.696q-0.672 0.32-1.312 0.512l-0.608 3.040q-0.128 0.704-0.704 1.152t-1.248 0.48h-2.752q-0.672 0-1.248-0.448t-0.672-1.184l-0.64-3.040q-0.64-0.192-1.312-0.512l-2.56 1.696q-0.512 0.352-1.12 0.352-0.832 0-1.44-0.608l-1.888-1.888q-0.48-0.48-0.576-1.216t0.32-1.344l1.696-2.56q-0.32-0.672-0.48-1.312l-3.072-0.608q-0.704-0.128-1.152-0.704t-0.48-1.248zM2.016 17.376l3.040 0.608q1.12 0.192 1.504 1.28 0.192 0.544 0.448 1.12 0.48 0.992-0.128 1.92l-1.76 2.624 1.952 1.952 2.624-1.76q0.48-0.32 1.056-0.32 0.512 0 0.864 0.192 0.576 0.256 1.12 0.448 1.088 0.384 1.28 1.504l0.608 3.072h2.752l0.64-3.072q0.16-1.12 1.248-1.504 0.544-0.192 1.12-0.448 0.352-0.192 0.864-0.192 0.576 0 1.056 0.32l2.624 1.76 1.952-1.952-1.76-2.624q-0.608-0.928-0.128-1.92 0.256-0.576 0.448-1.12 0.384-1.088 1.504-1.28l3.040-0.608v-2.752l-3.040-0.64q-1.12-0.16-1.504-1.248-0.192-0.544-0.448-1.12-0.48-0.992 0.128-1.92l1.76-2.624-1.952-1.952-2.624 1.76q-0.48 0.32-1.056 0.32-0.512 0-0.864-0.192-0.576-0.256-1.12-0.448-1.088-0.384-1.248-1.504l-0.64-3.040h-2.752l-0.608 3.040q-0.192 1.12-1.28 1.504-0.544 0.192-1.12 0.448-0.352 0.192-0.864 0.192-0.576 0-1.056-0.32l-2.624-1.76-1.952 1.952 1.76 2.624q0.608 0.928 0.128 1.92-0.256 0.576-0.448 1.12-0.384 1.088-1.504 1.248l-3.040 0.64v2.752zM8.992 16q0-2.88 2.080-4.928t4.928-2.080 4.928 2.080 2.080 4.928-2.080 4.928-4.928 2.080-4.928-2.080-2.080-4.928zM9.888 16q0 2.56 1.76 4.352t4.352 1.76 4.352-1.76 1.76-4.352-1.76-4.352-4.352-1.76-4.352 1.76-1.76 4.352zM12 16q0-1.696 1.152-2.848t2.848-1.152 2.848 1.184 1.152 2.848-1.152 2.816-2.848 1.152-2.848-1.152-1.152-2.848zM12.992 16q0 1.248 0.896 2.112t2.112 0.896 2.112-0.896 0.896-2.112-0.896-2.112-2.112-0.896-2.112 0.896-0.896 2.112z"></path>
</symbol>
<symbol id="icon-params" viewBox="0 0 32 32">
<title>params</title>
<path d="M0 9.984q0-2.432 2.016-3.968v-3.008q0-1.248 0.864-2.144t2.112-0.864 2.144 0.864 0.864 2.144v3.008q2.016 1.536 2.016 3.968t-2.016 4v15.008q0 1.248-0.864 2.144t-2.144 0.864-2.112-0.864-0.864-2.144v-15.008q-2.016-1.536-2.016-4zM2.016 9.984q0 0.384 0.096 0.832l0.064 0.192q0.128 0.416 0.384 0.736 0.256 0.384 0.64 0.672t0.8 0.384q0.512 0.192 0.992 0.192t1.024-0.192q0.416-0.128 0.8-0.416 0.384-0.256 0.608-0.64 0.256-0.32 0.384-0.736l0.064-0.192q0.128-0.448 0.128-0.832t-0.128-0.8q-0.064-0.128-0.064-0.192-0.128-0.416-0.384-0.736-0.224-0.384-0.608-0.672t-0.8-0.384q-0.512-0.192-1.024-0.192t-0.992 0.192q-0.448 0.128-0.8 0.416-0.32 0.256-0.64 0.64-0.256 0.32-0.384 0.736l-0.064 0.192q-0.096 0.448-0.096 0.832zM4 28.992q0 0.448 0.288 0.736t0.704 0.288 0.736-0.288 0.288-0.736v-14.112q-0.512 0.128-1.024 0.128t-0.992-0.128v14.112zM4 5.12q0.512-0.128 0.992-0.128t1.024 0.128v-2.112q0-0.448-0.288-0.736t-0.736-0.256-0.704 0.256-0.288 0.736v2.112zM11.008 21.984q0-2.432 1.984-4v-14.976q0-1.248 0.896-2.144t2.112-0.864 2.112 0.864 0.896 2.144v14.976q1.984 1.568 1.984 4t-1.984 4v3.008q0 1.248-0.896 2.144t-2.112 0.864-2.112-0.864-0.896-2.144v-3.008q-1.984-1.536-1.984-4zM12.992 21.984q0 0.384 0.128 0.832l0.064 0.192q0.128 0.416 0.384 0.736 0.256 0.384 0.608 0.672t0.832 0.384q0.48 0.192 0.992 0.192t0.992-0.192q0.448-0.128 0.832-0.416 0.352-0.256 0.608-0.64 0.256-0.32 0.384-0.736 0-0.064 0.064-0.192 0.128-0.448 0.128-0.832t-0.128-0.8l-0.064-0.192q-0.128-0.416-0.384-0.736-0.256-0.384-0.608-0.64-0.384-0.32-0.832-0.416-0.48-0.192-0.992-0.192t-0.992 0.192q-0.448 0.096-0.832 0.416-0.288 0.256-0.608 0.64-0.256 0.32-0.384 0.736l-0.064 0.192q-0.128 0.448-0.128 0.8zM15.008 28.992q0 0.448 0.288 0.736t0.704 0.288 0.704-0.288 0.288-0.736v-2.112q-0.48 0.128-0.992 0.128t-0.992-0.128v2.112zM15.008 17.12q0.48-0.128 0.992-0.128t0.992 0.128v-14.112q0-0.448-0.288-0.736t-0.704-0.256-0.704 0.256-0.288 0.736v14.112zM22.016 9.984q0-2.432 1.984-3.968v-3.008q0-1.248 0.864-2.144t2.144-0.864 2.112 0.864 0.864 2.144v3.008q2.016 1.536 2.016 3.968t-2.016 4v15.008q0 1.248-0.864 2.144t-2.112 0.864-2.144-0.864-0.864-2.144v-15.008q-1.984-1.536-1.984-4zM24 9.984q0 0.384 0.128 0.832l0.064 0.192q0.128 0.416 0.384 0.736 0.224 0.384 0.608 0.672t0.8 0.384q0.512 0.192 1.024 0.192t0.992-0.192q0.448-0.128 0.8-0.416 0.384-0.256 0.64-0.64 0.256-0.32 0.384-0.736 0-0.064 0.064-0.192 0.096-0.448 0.096-0.832t-0.096-0.8l-0.064-0.192q-0.128-0.416-0.384-0.736-0.256-0.384-0.64-0.64-0.352-0.288-0.8-0.416-0.512-0.192-0.992-0.192t-1.024 0.192q-0.416 0.128-0.8 0.416-0.384 0.256-0.608 0.64-0.256 0.32-0.384 0.736l-0.064 0.192q-0.128 0.448-0.128 0.832zM25.984 28.992q0 0.448 0.288 0.736t0.736 0.288 0.704-0.288 0.288-0.736v-14.112q-0.512 0.128-0.992 0.128t-1.024-0.128v14.112zM25.984 5.12q0.512-0.128 1.024-0.128t0.992 0.128v-2.112q0-0.448-0.288-0.736t-0.704-0.256-0.736 0.256-0.288 0.736v2.112z"></path>
</symbol>
<symbol id="icon-calendar" viewBox="0 0 32 32">
<title>calendar</title>
<path d="M0 29.312v-23.616q0-1.12 0.768-1.92t1.92-0.768h4.32v-2.016q0-0.416 0.288-0.704t0.704-0.288 0.704 0.288 0.288 0.704v2.016h6.016v-2.016q0-0.416 0.288-0.704t0.704-0.288 0.704 0.288 0.288 0.704v2.016h6.016v-2.016q0-0.416 0.288-0.704t0.704-0.288 0.704 0.288 0.288 0.704v2.016h4.32q1.12 0 1.92 0.768t0.768 1.92v23.616q0 1.12-0.768 1.92t-1.92 0.768h-26.624q-1.12 0-1.92-0.768t-0.768-1.92zM2.016 29.312q0 0.32 0.16 0.512t0.512 0.192h26.624q0.32 0 0.512-0.192t0.16-0.512v-23.616q0-0.32-0.16-0.512t-0.512-0.192h-4.32v2.016q0 0.416-0.288 0.704t-0.704 0.288-0.704-0.288-0.288-0.704v-2.016h-6.016v2.016q0 0.416-0.288 0.704t-0.704 0.288-0.704-0.288-0.288-0.704v-2.016h-6.016v2.016q0 0.416-0.288 0.704t-0.704 0.288-0.704-0.288-0.288-0.704v-2.016h-4.32q-0.32 0-0.512 0.192t-0.16 0.512v23.616zM7.008 24.992v-3.008h4v3.008h-4zM7.008 20v-3.008h4v3.008h-4zM7.008 15.008v-3.008h4v3.008h-4zM14.016 24.992v-3.008h4v3.008h-4zM14.016 20v-3.008h4v3.008h-4zM14.016 15.008v-3.008h4v3.008h-4zM20.992 24.992v-3.008h4v3.008h-4zM20.992 20v-3.008h4v3.008h-4zM20.992 15.008v-3.008h4v3.008h-4z"></path>
</symbol>
<symbol id="icon-sound" viewBox="0 0 32 32">
<title>sound</title>
<path d="M0 21.984q0-1.248 0.864-2.112l3.136-3.136v-13.728q0-0.96 0.512-1.696t1.376-1.056q0.48-0.256 1.12-0.256 1.248 0 2.112 0.864l22.016 22.016q1.44 1.44 0.608 3.232-0.32 0.896-1.056 1.376t-1.696 0.512h-13.728l-3.136 3.136q-0.864 0.864-2.112 0.864t-2.144-0.864l-7.008-7.008q-0.864-0.864-0.864-2.144zM2.016 21.984q0 0.448 0.288 0.704l7.008 7.008q0.256 0.32 0.704 0.32t0.672-0.32l3.136-3.136h0.064l-8.448-8.448v0.064l-3.136 3.136q-0.288 0.256-0.288 0.672zM5.952 17.184l8.864 8.864q0.384-0.064 0.448-0.064h12.064l-21.312-21.312v12.064q0 0.064-0.064 0.448zM6.016 3.328l22.656 22.656h0.32q0.704 0 0.96-0.608t-0.256-1.056l-22.016-22.016q-0.256-0.288-0.672-0.288-0.192 0-0.384 0.032-0.608 0.256-0.608 0.96v0.32zM16.992 0.992q0-0.416 0.288-0.704t0.736-0.288q5.792 0 9.888 4.096t4.096 9.888q0 0.448-0.288 0.736t-0.704 0.288-0.736-0.288-0.288-0.736q0-4.928-3.52-8.448t-8.448-3.52q-0.448 0-0.736-0.288t-0.288-0.736zM17.504 4.512q0-0.512 0.512-0.512 4.096 0 7.040 2.944t2.944 7.040q0 0.512-0.512 0.512t-0.48-0.512q0-3.744-2.624-6.368t-6.368-2.624q-0.512 0-0.512-0.48z"></path>
</symbol>
<symbol id="icon-clock" viewBox="0 0 22 32">
<title>clock</title>
<path d="M0 16q0-3.872 2.752-6.816l1.376-7.552q0.128-0.704 0.672-1.152t1.312-0.48h8q0.704 0 1.248 0.48t0.704 1.152l1.44 7.808q1.824 2.048 2.304 4.608l0.064-0.032q0.064-0.032 0.128-0.032 0.8 0 1.408 0.608t0.608 1.408-0.608 1.408-1.408 0.576q-0.064 0-0.128 0l-0.064-0.032q-0.544 2.688-2.432 4.736l-1.44 7.68q-0.128 0.704-0.64 1.152t-1.28 0.48h-8q-0.768 0-1.28-0.48t-0.672-1.152l-1.44-7.68q-2.624-2.88-2.624-6.688zM2.016 16q0 3.296 2.336 5.664t5.664 2.336 5.632-2.336 2.368-5.664-2.368-5.664-5.632-2.336-5.664 2.336-2.336 5.664zM3.008 16q0-0.448 0.288-0.704t0.704-0.288 0.736 0.288 0.256 0.704-0.256 0.704-0.736 0.288-0.704-0.288-0.288-0.704zM4.736 20.224q0-0.416 0.288-0.704t0.736-0.256 0.704 0.256 0.288 0.704-0.288 0.704-0.704 0.32-0.736-0.32-0.288-0.704zM4.736 11.744q0-0.416 0.288-0.704t0.736-0.288 0.704 0.288 0.288 0.704-0.288 0.736-0.704 0.256-0.736-0.256-0.288-0.736zM4.992 24.608l1.024 5.408h8l0.992-5.408q-2.368 1.376-4.992 1.376t-5.024-1.376zM5.12 7.36q2.368-1.344 4.992-1.344t5.024 1.344l-1.024-5.344h-8zM8.992 21.984q0-0.416 0.288-0.704t0.736-0.288 0.704 0.288 0.288 0.704-0.288 0.736-0.704 0.288-0.736-0.288-0.288-0.736zM8.992 16q0-0.448 0.32-0.704l5.184-4.288q0.256-0.192 0.448 0.032t0.064 0.448l-2.432 3.008-1.888 2.24q-0.256 0.256-0.672 0.256t-0.736-0.288-0.288-0.704zM8.992 9.984q0-0.416 0.288-0.704t0.736-0.288 0.704 0.288 0.288 0.704-0.288 0.736-0.704 0.288-0.736-0.288-0.288-0.736zM13.248 20.224q0-0.416 0.288-0.704t0.672-0.256 0.736 0.256 0.32 0.736q0 0.384-0.32 0.672t-0.736 0.32-0.672-0.32-0.288-0.704zM15.008 16q0-0.448 0.288-0.704t0.704-0.288 0.704 0.288 0.288 0.704-0.288 0.704-0.704 0.288-0.704-0.288-0.288-0.704z"></path>
</symbol>
<symbol id="icon-lightbulb" viewBox="0 0 22 32">
<title>lightbulb</title>
<path d="M0 11.008q0-4.576 3.232-7.776t7.776-3.232 7.776 3.232 3.232 7.776q0 1.76-0.96 3.872t-2.272 4.512-1.792 3.68q-0.48 1.248-0.992 3.008t-0.768 2.624-0.864 1.696-1.344 1.248-2.016 0.352-2.048-0.352-1.312-1.248-0.832-1.696-0.8-2.624-1.024-3.008q-0.416-1.376-1.76-3.712t-2.304-4.48-0.928-3.872zM2.016 11.008q0 2.048 2.624 6.816 1.184 2.048 1.664 3.168h9.376q0.512-1.12 1.696-3.168 2.624-4.832 2.624-6.816 0-3.744-2.624-6.368t-6.368-2.624-6.368 2.624-2.624 6.368zM4.992 11.008q0-2.496 1.76-4.256t4.256-1.76q0.48 0 0.48 0.512t-0.48 0.512q-2.080 0-3.552 1.44t-1.44 3.552q0 0.48-0.512 0.48t-0.512-0.48zM7.136 23.008q0.352 1.056 0.608 1.92l6.816-0.864q0.064-0.384 0.32-1.056h-7.744zM8.064 25.888q0.32 1.12 0.576 1.92l4.928-0.608q0.192-0.512 0.384-1.216 0.064-0.16 0.128-0.48t0.096-0.384zM8.992 28.736q0.384 0.832 0.8 1.056t1.216 0.224q0.928 0 1.376-0.32t0.864-1.44z"></path>
</symbol>
<symbol id="icon-tv" viewBox="0 0 32 32">
<title>tv</title>
<path d="M1.152 25.696q-2.304-9.696 0-19.392 0.32-1.376 1.696-1.504 6.56-0.8 13.12-0.8t13.12 0.8q1.44 0.128 1.76 1.504 2.304 9.696 0 19.392-0.384 1.376-1.76 1.504-3.008 0.352-6.304 0.544 0.192 0.128 0.192 0.256 0 0.448-2.080 0.704t-4.928 0.288-4.928-0.288-2.080-0.704q0-0.128 0.192-0.256-3.296-0.192-6.304-0.544-1.376-0.128-1.696-1.504zM3.104 25.184q12.864 1.632 25.792 0 2.208-9.184 0-18.368-12.928-1.632-25.792 0-2.208 9.184 0 18.368zM5.024 22.496q-2.112-6.624 0-13.184 0.192-0.576 0.768-0.672 4.128-0.832 8.192-0.832t8.16 0.832q0.576 0.128 0.768 0.672 1.056 3.264 1.056 6.56t-1.056 6.624q-0.192 0.576-0.768 0.704-4.128 0.8-8.16 0.8t-8.192-0.8q-0.576-0.128-0.768-0.704zM6.048 22.176q7.936 1.632 15.936 0 2.048-6.304 0-12.544-8-1.696-15.936 0-2.080 6.24 0 12.544zM8.032 15.488l0.256-2.816q0.128-0.416 0.608-0.48l4.576-0.384q0.512 0 0.512 0.512t-0.512 0.48l-3.744 0.256q-0.512 0.064-0.576 0.576l-0.192 1.856q0 0.512-0.48 0.512t-0.448-0.512zM23.968 22.496q0-0.512 0.512-0.512h2.976q0.512 0 0.512 0.512t-0.512 0.512h-2.976q-0.512 0-0.512-0.512zM24.96 19.488q0-0.48 0.512-0.48h3.008q0.48 0 0.48 0.48t-0.48 0.512h-3.008q-0.512 0-0.512-0.512zM24.96 16.512q0-0.512 0.512-0.512h3.008q0.48 0 0.48 0.512t-0.48 0.48h-3.008q-0.512 0-0.512-0.48zM24.96 10.496q0-0.608 0.448-1.056t1.056-0.448 1.056 0.448 0.448 1.056-0.448 1.056-1.056 0.448-1.056-0.448-0.448-1.056zM25.984 10.496q0 0.512 0.48 0.512t0.512-0.512-0.512-0.512-0.48 0.512z"></path>
</symbol>
<symbol id="icon-desktop" viewBox="0 0 32 32">
<title>desktop</title>
<path d="M0 24v-20q0-1.248 0.864-2.112t2.144-0.896h25.984q1.248 0 2.144 0.896t0.864 2.112v20q0 1.248-0.864 2.112t-2.144 0.896h-9.984v1.184l6.24 0.8q0.736 0.192 0.736 1.024 0 0.416-0.256 0.704t-0.736 0.288h-17.984q-0.448 0-0.736-0.288t-0.256-0.704q0-0.832 0.736-1.024l6.24-0.8v-1.184h-9.984q-1.248 0-2.144-0.896t-0.864-2.112zM2.016 24q0 0.448 0.256 0.704t0.736 0.288h25.984q0.448 0 0.736-0.288t0.256-0.704v-20q0-0.448-0.256-0.704t-0.736-0.288h-25.984q-0.448 0-0.736 0.288t-0.256 0.704v20zM4 20v-13.984q0-0.448 0.288-0.736t0.704-0.288h22.016q0.416 0 0.704 0.288t0.288 0.736v13.984q0 0.448-0.288 0.704t-0.704 0.288h-22.016q-0.416 0-0.704-0.288t-0.288-0.704zM4.992 20h22.016v-13.984h-22.016v13.984z"></path>
</symbol>
<symbol id="icon-mobile" viewBox="0 0 22 32">
<title>mobile</title>
<path d="M0 28.992v-25.984q0-1.248 0.864-2.144t2.144-0.864h16q1.248 0 2.112 0.864t0.896 2.144v25.984q0 1.248-0.896 2.144t-2.112 0.864h-16q-1.248 0-2.144-0.864t-0.864-2.144zM2.016 28.992q0 0.448 0.256 0.736t0.736 0.288h16q0.416 0 0.704-0.288t0.288-0.736v-1.984h-17.984v1.984zM2.016 25.984h17.984v-19.968h-17.984v19.968zM2.016 4.992h17.984v-1.984q0-0.448-0.288-0.736t-0.704-0.256h-16q-0.448 0-0.736 0.256t-0.256 0.736v1.984zM8.992 3.488q0-0.48 0.512-0.48h3.008q0.48 0 0.48 0.48t-0.48 0.512h-3.008q-0.512 0-0.512-0.512zM10.016 28.512q0-0.512 0.48-0.512h0.992q0.512 0 0.512 0.512t-0.512 0.48h-0.992q-0.48 0-0.48-0.48z"></path>
</symbol>
<symbol id="icon-cd" viewBox="0 0 32 32">
<title>cd</title>
<path d="M0.16 18.368q-0.576-4.064 0.928-8.32 1.632-4.032 5.056-6.688t7.488-3.168 8.256 0.928q4.064 1.632 6.72 5.056t3.2 7.488-0.96 8.288q-1.632 4.032-5.024 6.688t-7.488 3.2-8.32-0.96q-4.064-1.632-6.688-5.024t-3.168-7.488zM3.008 10.816q-2.176 5.376 0.128 10.72t7.648 7.456 10.72-0.16 7.456-7.648-0.16-10.688-7.648-7.456-10.688 0.128-7.456 7.648zM4.832 11.552q1.824-4.608 6.4-6.56 0.48-0.256 0.672 0.224t-0.256 0.672q-4.192 1.792-5.856 6.048-0.192 0.448-0.672 0.256t-0.288-0.64zM6.72 12.32q1.504-3.872 5.312-5.504 0.448-0.192 0.64 0.288t-0.256 0.64q-3.392 1.44-4.832 4.928-0.192 0.448-0.608 0.256t-0.256-0.608zM8.544 12.992q1.248-3.008 4.224-4.32l0.064-0.032q0.448-0.192 0.64 0.256t-0.256 0.672q-2.688 1.12-3.744 3.808-0.192 0.512-0.672 0.32t-0.256-0.704zM10.4 13.76q0.928-2.336 3.232-3.296t4.576-0.032 3.296 3.232 0.032 4.576-3.232 3.296-4.576 0.032-3.296-3.232-0.032-4.576zM12.256 14.528q-0.608 1.536 0.064 3.072t2.176 2.112 3.072-0.064 2.112-2.176-0.064-3.072-2.176-2.112-3.072 0.064-2.112 2.176zM14.080 15.264q0.32-0.768 1.12-1.12t1.504-0.032 1.12 1.12 0.032 1.504-1.12 1.12-1.504 0.032-1.12-1.12-0.032-1.504zM15.072 16.384q0.16 0.352 0.512 0.512t0.768 0 0.512-0.512 0-0.768-0.512-0.512-0.768 0-0.512 0.512 0 0.768zM18.464 23.104q-0.192-0.48 0.256-0.672 2.688-1.12 3.744-3.808 0.192-0.512 0.672-0.32t0.256 0.704q-1.248 3.040-4.224 4.352h-0.064q-0.448 0.192-0.64-0.256zM19.232 24.928q-0.192-0.416 0.288-0.672 3.456-1.44 4.832-4.896 0.192-0.48 0.64-0.288t0.288 0.672q-1.568 3.808-5.376 5.44-0.448 0.192-0.672-0.256zM20.032 26.784q-0.192-0.48 0.256-0.672 4.192-1.792 5.856-6.048 0.192-0.448 0.672-0.256t0.288 0.64q-1.824 4.608-6.4 6.56v0.064q-0.48 0.192-0.672-0.288z"></path>
</symbol>
<symbol id="icon-inbox" viewBox="0 0 32 32">
<title>inbox</title>
<path d="M0 25.984v-6.976q0-0.256 0.064-0.576l4-15.008q0.192-0.608 0.704-1.024t1.248-0.384h19.968q0.704 0 1.248 0.384t0.704 1.024l4 15.008q0.064 0.32 0.064 0.576v6.976q0 1.696-1.152 2.848t-2.848 1.184h-24q-1.696 0-2.848-1.184t-1.152-2.848zM2.016 25.984q0 0.832 0.576 1.44t1.408 0.576h24q0.8 0 1.408-0.576t0.576-1.44v-6.976l-4-15.008h-19.968l-4 15.008v6.976zM3.872 18.752l3.456-12q0.16-0.736 0.928-0.736h15.488q0.768 0 0.928 0.736l3.456 12q0.128 0.512-0.16 0.864t-0.768 0.384h-4.576l-1.44 2.88q-0.544 1.12-1.824 1.12h-6.72q-1.28 0-1.824-1.12l-1.44-2.88h-4.576q-0.48 0-0.768-0.384t-0.16-0.864zM5.312 17.984h4.064q1.248 0 1.824 1.152l1.44 2.848h6.72l1.44-2.848q0.576-1.152 1.824-1.152h4.064l-2.944-10.976h-15.488z"></path>
</symbol>
<symbol id="icon-globe" viewBox="0 0 31 32">
<title>globe</title>
<path d="M0 15.488q0-6.432 4.544-10.944t10.944-4.544 10.976 4.544 4.544 10.944-4.544 10.976-10.976 4.544-10.944-4.544-4.544-10.976zM2.016 16q0.224 5.312 4 9.056 1.664-1.184 3.488-1.92-1.376-3.392-1.504-7.136h-5.984zM2.016 15.008h5.984q0.128-3.328 1.184-6.272-1.984-0.8-3.744-2.176-3.264 3.616-3.424 8.448zM6.112 5.824q1.632 1.248 3.456 1.984 1.376-3.232 3.744-5.632-4.192 0.704-7.2 3.648zM6.752 25.76q2.816 2.432 6.56 3.040-2.048-2.048-3.36-4.736-1.696 0.608-3.2 1.696zM8.992 16q0.128 3.552 1.44 6.816 2.208-0.704 4.576-0.832v-5.984h-6.016zM8.992 15.008h6.016v-5.024q-2.496-0.096-4.896-0.928-0.992 2.816-1.12 5.952zM10.496 8.128q2.208 0.736 4.512 0.864v-6.976h-0.064q-2.88 2.432-4.448 6.112zM10.88 23.68q1.568 3.2 4.064 5.312h0.064v-5.984q-2.208 0.128-4.128 0.672zM16 28.992h0.064q2.496-2.112 4.064-5.312-1.952-0.544-4.128-0.672v5.984zM16 21.984q2.368 0.128 4.576 0.832 1.312-3.264 1.44-6.816h-6.016v5.984zM16 15.008h6.016q-0.128-3.136-1.152-5.952-2.368 0.832-4.864 0.928v5.024zM16 8.992q2.304-0.128 4.512-0.864-1.568-3.68-4.448-6.112h-0.064v6.976zM17.696 28.8q3.744-0.608 6.56-3.040-1.504-1.088-3.2-1.696-1.312 2.688-3.36 4.736zM17.696 2.176q2.368 2.4 3.744 5.632 1.824-0.736 3.424-1.984-2.976-2.944-7.168-3.648zM21.504 23.136q1.824 0.736 3.488 1.92 3.744-3.744 4-9.056h-5.984q-0.128 3.744-1.504 7.136zM21.824 8.736q1.056 2.944 1.184 6.272h5.984q-0.192-4.832-3.424-8.448-1.76 1.376-3.744 2.176z"></path>
</symbol>
<symbol id="icon-cloud" viewBox="0 0 32 32">
<title>cloud</title>
<path d="M0 21.504q0-1.76 0.864-3.264t2.4-2.368q-0.256-0.672-0.256-1.376 0-1.856 1.312-3.168t3.168-1.344q0.64 0 1.376 0.256 1.088-2.368 3.264-3.808t4.864-1.44q3.52 0 6.048 2.336t2.912 5.792q2.624 0.512 4.32 2.56t1.728 4.832q0 3.104-2.176 5.312t-5.312 2.176h-18.016q-2.688 0-4.576-1.92t-1.92-4.576zM2.016 21.504q0 1.856 1.312 3.168t3.168 1.312h18.016q2.24 0 3.872-1.6t1.6-3.872q0-2.016-1.248-3.52t-3.168-1.856q-1.12-0.256-1.344-0.48t-0.288-1.344q-0.256-2.688-2.24-4.512t-4.704-1.792q-1.984 0-3.744 1.088t-2.56 2.976q-0.32 0.608-0.384 0.768t-0.256 0.416-0.48 0.192-0.704-0.192q-0.672-0.32-1.376-0.256-1.056 0-1.76 0.704t-0.736 1.792q0 0.32 0.128 0.768 0.448 1.056 0.32 1.408t-1.184 0.96q-2.24 1.312-2.24 3.872z"></path>
</symbol>
<symbol id="icon-paper-plane" viewBox="0 0 32 32">
<title>paper-plane</title>
<path d="M0 21.088q-0.064-0.576 0.448-0.896l29.984-20q0.256-0.192 0.576-0.192t0.576 0.192q0.48 0.32 0.416 0.992l-4.992 30.016q-0.128 0.416-0.512 0.672-0.224 0.128-0.48 0.128-0.192 0-0.384-0.064l-9.696-3.872-2.048 3.424q-0.32 0.512-0.896 0.512t-0.864-0.512l-3.68-6.432-7.808-3.104q-0.576-0.256-0.64-0.864zM3.136 20.736l6.048 2.464q0.064 0.064 0.16 0.096l0.096 0.064 16.864-18.048zM10.208 24.064l2.784 4.864 16.128-25.184zM16.064 26.048q0.384 0.064 0.64 0.128l8.48 3.456 4-23.936z"></path>
</symbol>
<symbol id="icon-fire" viewBox="0 0 22 32">
<title>fire</title>
<path d="M0 22.88q0-2.432 0.576-5.344t1.056-4.992 0.416-5.44-1.056-7.104l0.64 0.448q0.608 0.416 1.632 1.408t2.048 2.208 2.080 3.104 1.536 3.776q2.016-3.008 2.080-5.952l0.992 1.12q0.928 1.152 1.952 3.392t0.992 4.448l0.48-0.64q0.512-0.672 1.056-1.92t0.512-2.4q3.072 3.808 4.32 8.032t0.32 7.968q-0.448 1.632-0.992 2.688t-1.792 2.176-3.424 1.6-5.408 0.544q-4.384 0-7.2-2.72t-2.816-6.4zM2.016 22.88q0 2.816 2.208 4.96t5.792 2.176q2.368 0 4.096-0.352t2.688-0.832 1.568-1.344 0.864-1.408 0.448-1.568q1.248-5.088-2.048-11.008-1.952 3.296-4.64 5.504 0-2.944-0.32-5.632t-0.8-3.616q-0.736 1.856-3.616 5.92 0-0.224-0.384-1.6t-1.408-3.936-2.4-4.384q0.256 4-1.056 9.92-0.992 4.576-0.992 7.2zM3.616 23.616q0-4.672 1.312-8.416l0.512-1.504 0.512 1.312q0.608 1.792 2.112 5.248 0.64-0.96 1.568-2.368l1.504-2.4v1.696q0 2.112 0.736 4.32 1.248-0.64 2.176-1.312t1.376-1.152 1.152-1.28l0.864-0.96 0.192 1.024q0.672 3.808-0.64 6.976-0.128 0.32-0.416 0.32-0.128 0-0.192-0.064-0.448-0.192-0.256-0.608 0.864-2.336 0.608-5.376-1.856 2.112-4.928 3.616l-0.48 0.192-0.192-0.512q-0.768-2.112-0.896-3.552-0.992 1.44-1.856 2.688l-0.512 0.672-0.384-0.736q-1.376-3.136-2.048-4.768-0.8 2.688-0.8 6.944 0 0.512-0.512 0.512t-0.512-0.512z"></path>
</symbol>
<symbol id="icon-graduation-cap" viewBox="0 0 32 32">
<title>graduation-cap</title>
<path d="M0 8q0-1.056 0.672-1.888t1.632-1.056l13.024-3.008q0.352-0.032 0.672-0.032t0.704 0.032l12.992 3.008q0.992 0.256 1.632 1.056t0.672 1.888-0.672 1.888-1.632 1.056l-2.688 0.608v8.448q0 2.176-2.688 3.584t-8.32 1.408-8.32-1.408-2.688-3.584v-8.448l-2.688-0.608q-0.992-0.256-1.632-1.056t-0.672-1.888zM2.016 8q0 0.8 0.736 0.992l12.992 3.008h0.512l12.992-3.008q0.736-0.192 0.736-0.992t-0.736-0.992l-12.992-3.008h-0.512l-12.992 3.008q-0.736 0.192-0.736 0.992zM7.008 20q0 0.64 0.928 1.28t3.104 1.184 4.96 0.544 4.96-0.544 3.104-1.184 0.928-1.28v-8l-8.288 1.952q-0.384 0.032-0.704 0.032t-0.672-0.032l-8.32-1.952v8zM28 28q0-0.992 0.64-2.496t1.344-1.504 1.376 1.504 0.64 2.496q0 0.8-0.608 1.408t-1.408 0.608-1.376-0.608-0.608-1.408zM28.992 21.984v-8.992q0-0.416 0.288-0.704t0.704-0.288 0.736 0.288 0.288 0.704v8.992q0 0.448-0.288 0.736t-0.736 0.288-0.704-0.288-0.288-0.736z"></path>
</symbol>
<symbol id="icon-megaphone" viewBox="0 0 32 32">
<title>megaphone</title>
<path d="M0 13.984q0-2.112 1.152-3.552t2.848-1.44h9.248q2.016 0 3.808-1.44t3.072-4h0.064q1.856-3.552 4.8-3.552 3.264 0 5.12 4.192t1.888 9.824-1.888 9.792-5.12 4.192q-2.944 0-4.8-3.552h-0.064q-2.496-4.96-6.368-5.376-0.192 0.064-0.256 0.064v0.064q-0.192 0.064-0.32 0.224-0.064 0.064-0.064 0.128-0.128 0.192-0.128 0.384v7.072q0 0.256 0.512 0.832t0.512 1.152v1.024q0 0.8-0.608 1.376t-1.408 0.608h-4q-0.8 0-1.408-0.608t-0.576-1.376v-9.024q0-0.8-0.608-1.408t-1.408-0.576q-1.696 0-2.848-1.44t-1.152-3.552zM2.016 13.984q0 1.28 0.576 2.144t1.408 0.864h7.008q-0.992-1.184-0.992-3.008t0.992-2.976h-7.008q-0.8 0-1.408 0.864t-0.576 2.112zM7.424 19.008q0.576 0.928 0.576 1.984v9.024h4v-0.896l-0.128-0.128q-0.864-1.056-0.864-1.984v-7.008q0-0.512 0.192-0.992h-3.776zM11.008 13.984q0 1.28 0.576 2.144t1.408 0.864h0.256q2.752 0 5.184 2.016-0.416-2.368-0.416-5.024 0-2.56 0.416-4.992-2.432 2.016-5.184 2.016h-0.256q-0.8 0-1.408 0.864t-0.576 2.112zM20 13.984q0 1.504 0.192 3.008h2.816q0.8 0 1.408-0.864t0.576-2.144-0.576-2.112-1.408-0.864h-2.816q-0.192 1.504-0.192 2.976zM20.448 19.008q0.608 3.104 1.824 5.056t2.72 1.92q2.080 0 3.552-3.488t1.44-8.512-1.44-8.48-3.552-3.488q-1.504 0-2.72 1.92t-1.824 5.056h2.56q1.664 0 2.848 1.44t1.152 3.584-1.152 3.552-2.848 1.44h-2.56z"></path>
</symbol>
<symbol id="icon-database" viewBox="0 0 28 32">
<title>database</title>
<path d="M0 25.504v-19.008q0-3.136 4.192-4.8t9.824-1.696 9.792 1.696 4.192 4.8v19.008q0 3.104-4.192 4.8t-9.792 1.696-9.824-1.696-4.192-4.8zM2.016 25.504q0 1.888 3.488 3.2t8.512 1.312 8.48-1.312 3.488-3.2v-3.744q-1.472 1.536-4.8 2.4t-7.168 0.832-7.2-0.832-4.8-2.4v3.744zM2.016 19.488q0 1.888 3.488 3.2t8.512 1.312 8.48-1.312 3.488-3.2v-3.744q-1.472 1.568-4.8 2.4t-7.168 0.864-7.2-0.864-4.8-2.4v3.744zM2.016 13.504q0 1.856 3.488 3.168t8.512 1.312 8.48-1.312 3.488-3.168v-3.456q-1.856 1.44-5.12 2.208t-6.848 0.736-6.88-0.736-5.12-2.208v3.456zM2.016 6.496q0 1.888 3.488 3.2t8.512 1.312 8.48-1.312 3.488-3.2-3.488-3.168-8.48-1.312-8.512 1.312-3.488 3.168zM22.016 25.984q0-0.416 0.256-0.704t0.736-0.288 0.704 0.288 0.288 0.704-0.288 0.736-0.704 0.288-0.736-0.288-0.256-0.736zM22.016 20q0-0.448 0.256-0.704t0.736-0.288 0.704 0.288 0.288 0.704-0.288 0.704-0.704 0.288-0.736-0.288-0.256-0.704zM22.016 13.984q0-0.416 0.256-0.704t0.736-0.288 0.704 0.288 0.288 0.704-0.288 0.736-0.704 0.288-0.736-0.288-0.256-0.736z"></path>
</symbol>
<symbol id="icon-key" viewBox="0 0 32 32">
<title>key</title>
<path d="M0 30.016v-3.008q0-0.64 0.576-1.248l12.128-12.128q-0.704-1.824-0.704-3.648 0-4.096 2.944-7.040t7.072-2.944 7.040 2.944 2.944 7.040-2.944 7.072-7.040 2.944q-1.824 0-3.648-0.704l-2.368 2.336v2.368q0 0.8-0.608 1.408t-1.376 0.576h-2.016v2.016q0 0.8-0.608 1.408t-1.376 0.576h-2.336l-1.44 1.44q-0.544 0.576-1.248 0.576h-2.976q-0.832 0-1.408-0.608t-0.608-1.408zM2.016 30.016h2.784l1.44-1.44q0.576-0.576 1.44-0.576h2.336v-2.016q0-0.8 0.576-1.376t1.408-0.608h2.016v-2.368q0-0.832 0.544-1.376l3.392-3.392q1.92 1.12 4.064 1.12 3.296 0 5.632-2.336t2.336-5.664-2.336-5.632-5.632-2.336-5.664 2.336-2.336 5.632q0 2.144 1.12 4.064l-1.44 1.44-11.68 11.648v2.88zM20 7.2q0-0.128 0.064-0.32 0.736-2.080 2.816-2.816 0.48-0.192 0.864 0.128 2.368 1.696 4.064 4.064 0.192 0.256 0.192 0.544 0 0.128-0.064 0.32-0.736 2.080-2.816 2.816-0.48 0.192-0.864-0.128-2.368-1.696-4.064-4.064-0.192-0.256-0.192-0.544zM20.992 7.2q1.632 2.24 3.808 3.808 1.632-0.576 2.208-2.208-1.568-2.176-3.808-3.808-1.632 0.576-2.208 2.208z"></path>
</symbol>
<symbol id="icon-beaker" viewBox="0 0 32 32">
<title>beaker</title>
<path d="M0.064 15.872q0.32-1.568 1.76-2.176l13.568-5.44q-0.384-0.64-0.384-1.312 0-1.056 0.736-1.824l1.376-1.376q0.768-0.736 1.792-0.736t1.792 0.736l7.68 7.68q0.736 0.768 0.736 1.792t-0.736 1.792l-1.376 1.44q-0.768 0.672-1.76 0.672-0.736 0-1.376-0.384l-5.376 13.376q-0.544 1.504-2.176 1.824-0.256 0.064-0.576 0.064h-0.128q-1.184 0-1.984-0.864l-12.736-12.576q-1.152-1.12-0.832-2.688zM2.048 16.224q-0.096 0.512 0.256 0.896l12.704 12.576q0.32 0.32 0.672 0.32h0.256q0.512-0.128 0.768-0.64l4.672-11.872q-1.856-1.952-3.936-2.72t-4.672-1.056-3.936-0.736l-6.208 2.496q-0.48 0.192-0.576 0.736zM8 16.992q0-0.8 0.608-1.408t1.408-0.576 1.408 0.576 0.576 1.408-0.576 1.408-1.408 0.608-1.408-0.608-0.608-1.408zM8.992 16.992q0 0.448 0.288 0.736t0.736 0.256 0.704-0.256 0.288-0.736-0.288-0.704-0.704-0.288-0.736 0.288-0.288 0.704zM10.368 12.384q0.96 0.192 2.56 0.416 1.888 0.192 2.976 0.416t2.784 1.056 3.136 2.24l1.312-3.264 1.76 1.76q0.352 0.352 0.672 0l1.44-1.44q0.384-0.32 0-0.704l-7.744-7.744q-0.32-0.32-0.704 0l-1.44 1.44q-0.288 0.384 0 0.704l1.76 1.728zM12 23.008q0-0.448 0.288-0.736t0.704-0.288 0.736 0.288 0.288 0.736-0.288 0.704-0.736 0.288-0.704-0.288-0.288-0.704zM14.016 18.496q0-1.056 0.704-1.792t1.792-0.704 1.76 0.704 0.736 1.792-0.736 1.792-1.76 0.704-1.792-0.704-0.704-1.792zM15.008 18.496q0 0.64 0.448 1.056t1.056 0.448 1.056-0.448 0.448-1.056-0.448-1.056-1.056-0.448-1.056 0.448-0.448 1.056zM27.008 2.496q0-1.056 0.704-1.792t1.792-0.704 1.792 0.704 0.704 1.792-0.704 1.792-1.792 0.704-1.792-0.704-0.704-1.792zM28 8q0-0.448 0.288-0.704t0.704-0.288 0.736 0.288 0.288 0.704-0.288 0.704-0.736 0.288-0.704-0.288-0.288-0.704zM28 2.496q0 0.64 0.448 1.056t1.056 0.448 1.056-0.448 0.448-1.056-0.448-1.056-1.056-0.448-1.056 0.448-0.448 1.056z"></path>
</symbol>
<symbol id="icon-truck" viewBox="0 0 32 32">
<title>truck</title>
<path d="M0 16.992v-10.976q0-1.28 0.864-2.144t2.144-0.864h15.008q1.248 0 2.112 0.864t0.864 2.144v1.984h4q1.632 0 2.496 1.312l4 5.984q0.512 0.768 0.512 1.696v6.016q0 1.248-0.864 2.112t-2.144 0.864h-1.12q-0.384 1.344-1.44 2.176t-2.432 0.832-2.432-0.832-1.44-2.176h-5.248q-0.384 1.344-1.44 2.176t-2.432 0.832-2.432-0.832-1.44-2.176h-1.12q-1.28 0-2.144-0.864t-0.864-2.112v-3.008q-1.248 0-2.144-0.864t-0.864-2.144zM2.016 16.992q0 0.448 0.256 0.736t0.736 0.256h15.008q0.416 0 0.704-0.256t0.288-0.736v-10.976q0-0.448-0.288-0.736t-0.704-0.288h-15.008q-0.448 0-0.736 0.288t-0.256 0.736v10.976zM4.992 23.008q0 0.416 0.288 0.704t0.736 0.288h1.12q0.352-1.312 1.44-2.144t2.432-0.864 2.432 0.864 1.44 2.144h5.248q0.384-1.312 1.44-2.144t2.432-0.864 2.432 0.864 1.44 2.144h1.12q0.448 0 0.736-0.288t0.256-0.704v-6.016q0-0.32-0.16-0.544l-4-6.016q-0.256-0.448-0.832-0.448h-4v7.008q0 1.248-0.864 2.144t-2.112 0.864h-13.024v3.008zM8.992 24.992q0 0.832 0.608 1.408t1.408 0.608 1.408-0.608 0.576-1.408-0.576-1.408-1.408-0.576-1.408 0.576-0.608 1.408zM22.016 24.992q0 0.832 0.576 1.408t1.408 0.608 1.408-0.608 0.576-1.408-0.576-1.408-1.408-0.576-1.408 0.576-0.576 1.408zM22.016 17.984v-5.984q0-0.448 0.256-0.704t0.736-0.288h0.992q0.576 0 0.8 0.416l3.008 4.512q0.192 0.256 0.192 0.576v1.472q0 0.448-0.288 0.736t-0.704 0.288h-4q-0.448 0-0.736-0.288t-0.256-0.736zM23.008 17.984h4v-1.472l-3.008-4.512h-0.992v5.984z"></path>
</symbol>
<symbol id="icon-money" viewBox="0 0 32 32">
<title>money</title>
<path d="M0.096 19.424q0.992-3.104 3.424-5.536 1.888-1.952 6.496-4.64 4.128-2.368 5.696-3.936 1.76-1.76 2.368-3.872 0.192-0.512 0.512-0.864 0.448-0.384 0.928-0.512 1.12-0.256 1.952 0.512l9.984 9.984q0.832 0.864 0.512 2.016-0.992 3.168-3.456 5.536-1.856 1.952-6.496 4.64-4.128 2.368-5.664 3.936-1.76 1.696-2.4 3.872-0.192 0.512-0.48 0.864-0.448 0.384-0.96 0.512-1.12 0.256-1.92-0.512l-10.016-9.984q-0.8-0.864-0.48-2.016zM2.016 20l10.016 10.016q0.8-2.528 2.688-4.48t4.096-3.264l4.416-2.56t4.128-3.232 2.656-4.48l-9.984-9.984q-0.768 2.496-2.656 4.448t-4.128 3.264l-4.448 2.56t-4.096 3.232-2.688 4.48zM10.784 26.368l0.672-0.928q0.704-0.864 1.504-1.696 0.704-0.736 1.76-1.568 0.352-0.288 0.672 0 0.384 0.384 0 0.768h-0.064q-0.992 0.8-1.664 1.504-0.768 0.736-1.376 1.536l-0.64 0.896q-0.064 0.064-0.064 0.128-0.384 0.384-0.736 0-0.256-0.32-0.064-0.64zM11.648 14.88q0.064-0.576 0.32-1.056 0.256-0.576 0.608-1.024 0-0.064-0.16-0.16-0.128-0.064-0.128-0.224t0.128-0.32 0.256-0.16 0.224 0.128q0.128 0.128 0.256 0.192 0.256-0.256 0.64-0.512t0.896-0.384 0.928-0.032 0.768 0.48q0.256 0.256 0.256 0.576t-0.256 0.48q-0.16 0.192-0.48 0.128-0.192-0.064-0.576-0.128-0.288-0.128-0.64-0.096t-0.736 0.352q0.64 0.64 1.632 1.824 0.448-0.256 0.992-0.448 0.512-0.192 1.024-0.256t0.992 0.096 0.992 0.544q0.448 0.384 0.64 0.8 0.128 0.448 0.064 0.96 0 0.48-0.32 1.056-0.256 0.608-0.704 1.184 0.256 0.192 0.512 0.416 0.128 0.064 0.16 0.224t-0.096 0.288-0.288 0.16-0.288-0.096q-0.288-0.256-0.48-0.512-0.576 0.576-1.12 0.768-0.512 0.192-1.088 0.192-0.48-0.064-0.896-0.256t-0.64-0.48-0.256-0.544 0.256-0.512 0.416-0.224 0.416 0.096 0.416 0.256 0.416 0.224 0.544 0 0.64-0.384q-0.672-0.672-1.792-1.984-1.024 0.544-2.080 0.608-0.928 0.064-1.6-0.48-0.448-0.384-0.64-0.832t-0.128-0.928zM12.992 14.528q-0.032 0.224 0.032 0.448t0.256 0.32q0.32 0.32 0.704 0.288t1.056-0.32q-0.96-1.024-1.568-1.632-0.192 0.256-0.32 0.448t-0.16 0.448zM16.576 9.952q-0.288-0.32 0-0.704 0.064-0.064 0.128-0.064 1.024-0.8 1.696-1.504 0.736-0.736 1.376-1.568l0.608-0.864q0.064-0.128 0.128-0.128 0.384-0.384 0.704 0 0.32 0.32 0.064 0.704l-0.704 0.928q-0.672 0.864-1.504 1.696-0.672 0.736-1.728 1.536-0.384 0.32-0.768-0.032zM16.704 16.192q1.024 1.12 1.696 1.792 0.192-0.16 0.32-0.416t0.192-0.512 0-0.448-0.288-0.448-0.48-0.288-0.48-0.032-0.512 0.16q-0.128 0.064-0.448 0.192z"></path>
</symbol>
<symbol id="icon-food" viewBox="0 0 32 32">
<title>food</title>
<path d="M0 23.488q0-1.056 0.736-1.76t1.76-0.736h2.688q0.704-3.872 3.744-6.432t7.072-2.56q3.264 0 5.952 1.76t4.032 4.608l4.576-2.24q0.384-0.192 0.768-0.064t0.544 0.512 0.064 0.736-0.512 0.576l-4.8 2.432q0.128 0.352 0.192 0.672h2.688q1.056 0 1.792 0.736t0.704 1.76q0 0.768-0.512 1.312l-3.488 3.936v0.768q0 1.056-0.704 1.792t-1.792 0.704h-19.008q-1.056 0-1.76-0.704t-0.736-1.792v-0.768l-3.488-3.936q-0.512-0.544-0.512-1.312zM2.016 23.488l4 4.512v1.504q0 0.512 0.48 0.512h19.008q0.48 0 0.48-0.512v-1.504l4-4.512q0-0.48-0.48-0.48h-27.008q-0.48 0-0.48 0.48zM6.176 20.992h1.088q0.672-3.040 3.104-5.024t5.632-1.984q2.688 0 4.896 1.472t3.296 3.84l0.864-0.48q-1.184-2.624-3.616-4.224t-5.44-1.6q-3.552 0-6.336 2.304t-3.488 5.696zM7.936 11.68q-0.512-1.248 0.512-3.616 0.8-1.952 0.416-2.88h-0.064v-0.192q0-0.48 0.512-0.48 0.32 0 0.448 0.288 0.544 1.344-0.448 3.648-0.8 1.984-0.384 2.944v0.096q0 0.512-0.48 0.512-0.32 0-0.448-0.256v-0.064h-0.064zM8.256 20.992h1.056q0.64-2.176 2.464-3.584t4.224-1.408q2.112 0 3.84 1.152t2.528 3.040l0.96-0.448q-1.024-2.112-2.976-3.424t-4.352-1.312q-2.752 0-4.896 1.664t-2.848 4.32zM10.368 20.992h1.056q0.576-1.376 1.824-2.176t2.752-0.832 2.752 0.832 1.824 2.176h0.16l0.768-0.352q-0.704-1.632-2.176-2.656t-3.328-0.992q-1.952 0-3.456 1.12t-2.176 2.88zM12.576 20.992h1.184q0.928-0.992 2.24-0.992t2.176 0.992h1.248q-1.184-1.984-3.424-1.984t-3.424 1.984zM15.008 7.264v-0.064q-0.512-1.248 0.416-3.648 0.896-1.92 0.448-2.848v-0.192q0-0.512 0.448-0.512 0.384 0 0.48 0.32 0.576 1.312-0.416 3.616-0.832 2.016-0.448 2.944 0.064 0.064 0.064 0.128 0 0.48-0.512 0.48-0.288 0-0.48-0.224zM20.128 11.552v-0.064q-0.512-1.248 0.512-3.552 0.8-1.984 0.352-2.88v-0.192q0-0.48 0.512-0.48 0.32 0 0.448 0.288 0.544 1.28-0.448 3.648-0.832 1.92-0.448 2.88v0.064q0.064 0.064 0.064 0.096 0 0.512-0.48 0.512-0.32 0-0.448-0.32h-0.064zM25.248 20.992h0.576q0-0.064-0.032-0.128t-0.032-0.128z"></path>
</symbol>
<symbol id="icon-shop" viewBox="0 0 32 32">
<title>shop</title>
<path d="M0 13.984v-0.992q0-0.992 0.64-1.792l2.976-4q0.128-0.192 0.384-0.448v-4.736q0-0.832 0.608-1.408t1.408-0.608h19.968q0.832 0 1.408 0.608t0.608 1.408v4.736q0.256 0.256 0.384 0.448l2.976 4q0.64 0.8 0.64 1.792v1.024q0 1.248-0.864 2.112t-2.144 0.864v13.024q0 0.8-0.576 1.376t-1.408 0.608h-22.016q-0.8 0-1.408-0.608t-0.576-1.376v-13.024q-1.248 0-2.144-0.864t-0.864-2.112zM2.016 13.984q0 0.448 0.256 0.736t0.736 0.288h1.856l4-7.008h-2.848q-0.512 0-0.832 0.384l-3.008 4q-0.16 0.288-0.16 0.608v0.992zM4.992 30.016h6.496v-10.016q0-0.448 0.288-0.704t0.736-0.288h7.488q0.448 0 0.704 0.288t0.288 0.704v10.016h6.016v-13.024h-22.016v13.024zM6.016 15.008h4.16l2.016-7.008h-2.176zM6.016 6.016h19.968v-4h-19.968v4zM11.264 15.008h4.224v-7.008h-2.24zM12.512 29.984h7.488v-9.984h-7.488v9.984zM16.512 15.008h4.224l-1.984-7.008h-2.24v7.008zM19.808 8l2.016 7.008h4.16l-3.968-7.008h-2.208zM23.136 8l4 7.008h1.856q0.448 0 0.736-0.288t0.256-0.736v-0.992q0-0.32-0.16-0.608l-3.008-4q-0.32-0.384-0.832-0.384h-2.848z"></path>
</symbol>
<symbol id="icon-diamond" viewBox="0 0 32 32">
<title>diamond</title>
<path d="M0 11.136q0-0.896 0.576-1.44l5.12-5.056q0.544-0.64 1.376-0.64h17.856q0.832 0 1.376 0.64l5.12 5.056q0.576 0.544 0.576 1.376 0 0.736-0.512 1.376l-13.984 14.848q-0.64 0.704-1.504 0.704t-1.504-0.704l-13.984-14.848q-0.512-0.576-0.512-1.312zM2.016 11.008h4.288l2.688-2.688-2.304-1.952zM2.88 12l9.824 10.496-6.272-10.496h-3.552zM7.552 12l7.392 12.256-2.432-12.256h-4.96zM7.68 11.008h4.576l-2.496-2.080zM7.744 6.016l1.952 1.6 1.632-1.6h-3.584zM10.432 8.256l2.56 2.112 2.272-1.856-2.752-2.272zM13.504 12l2.496 12.448 2.496-12.448h-4.992zM13.76 11.008h4.48l-2.24-1.824zM13.76 6.016l2.24 1.856 2.176-1.856h-4.416zM16.8 8.512l2.208 1.856 2.56-2.112-2.080-2.016zM17.056 24.256l7.392-12.256h-4.96zM19.328 22.496l9.792-10.496h-3.552zM19.744 11.008h4.576l-2.080-2.080zM20.672 6.016l1.632 1.6 1.952-1.6h-3.584zM23.008 8.32l2.688 2.688h4.256l-4.64-4.64z"></path>
</symbol>
<symbol id="icon-t-shirt" viewBox="0 0 32 32">
<title>t-shirt</title>
<path d="M0.128 8.64q-0.448-1.312 0.64-2.208l4.992-4q0.544-0.416 1.248-0.416h17.984q0.704 0 1.248 0.416l5.024 4q1.056 0.896 0.608 2.208l-1.984 5.984q-0.32 0.928-1.248 1.248-0.32 0.128-0.64 0.128-0.576 0-0.992-0.256v12.256q0 0.8-0.608 1.408t-1.408 0.608h-17.984q-0.832 0-1.408-0.608t-0.608-1.408v-12.256q-0.416 0.256-0.992 0.256-0.32 0-0.608-0.128-0.96-0.32-1.248-1.248zM2.016 8l1.984 5.984 3.008-1.984v16h17.984v-16l3.008 1.984 2.016-5.984-5.024-4h-4.192q-0.416 1.312-1.728 2.144t-3.072 0.864-3.072-0.864-1.728-2.144h-4.192zM12.256 4q0.448 0.864 1.44 1.44t2.304 0.576 2.304-0.576 1.44-1.44h-7.488z"></path>
</symbol>
<symbol id="icon-fork" viewBox="0 0 18 32">
<title>fork</title>
<path d="M5.152 26.272q0-0.704-0.512-1.216t-1.216-0.48-1.216 0.48-0.48 1.216 0.48 1.216 1.216 0.512 1.216-0.512 0.512-1.216zM5.152 5.728q0-0.736-0.512-1.216t-1.216-0.512-1.216 0.512-0.48 1.216 0.48 1.216 1.216 0.48 1.216-0.48 0.512-1.216zM16.576 8q0-0.704-0.512-1.216t-1.216-0.512-1.216 0.512-0.48 1.216 0.48 1.216 1.216 0.512 1.216-0.512 0.512-1.216zM18.272 8q0 0.928-0.448 1.728t-1.248 1.248q-0.032 5.12-4.032 7.392-1.216 0.672-3.648 1.44-2.272 0.704-3.008 1.248t-0.736 1.792v0.48q0.768 0.448 1.248 1.248t0.448 1.696q0 1.44-0.992 2.432t-2.432 1.024-2.432-1.024-0.992-2.432q0-0.928 0.48-1.696t1.248-1.248v-14.656q-0.8-0.448-1.248-1.248t-0.48-1.696q0-1.44 0.992-2.432t2.432-1.024 2.432 1.024 0.992 2.432q0 0.928-0.448 1.696t-1.248 1.248v8.896q0.96-0.48 2.752-1.024 0.96-0.32 1.568-0.544t1.248-0.544 1.056-0.704 0.704-0.928 0.512-1.216 0.16-1.632q-0.8-0.448-1.248-1.248t-0.48-1.728q0-1.44 0.992-2.432t2.432-0.992 2.432 0.992 0.992 2.432z"></path>
</symbol>
</defs>
</svg>
