<svg aria-hidden="true" style="position: absolute; width: 0; height: 0; overflow: hidden;" version="1.1" xmlns="http://www.w3.org/2000/svg" xmlns:xlink="http://www.w3.org/1999/xlink">
<defs>
<symbol id="mwbi-comments" viewBox="0 0 24 24">
  <path clip-rule="evenodd" d="M10.718,18.561l6.78,5.311C17.609,23.957,17.677,24,17.743,24  c0.188,0,0.244-0.127,0.244-0.338v-5.023c0-0.355,0.233-0.637,0.548-0.637L21,18c2.219,0,3-1.094,3-2s0-13,0-14s-0.748-2-3.014-2  H2.989C0.802,0,0,0.969,0,2s0,13.031,0,14s0.828,2,3,2h6C9,18,10.255,18.035,10.718,18.561z" fill-rule="evenodd"/>
</symbol>
<symbol id="mwbi-date" viewBox="0 0 512 512">
  <path d="M363.75,148.75c-59.23-59.22-155.27-59.22-214.5,0c-59.22,59.23-59.22,155.27,0,214.5   c59.23,59.22,155.27,59.22,214.5,0C422.97,304.02,422.97,207.98,363.75,148.75z M318.21,330.31   C305.96,323.24,239.59,285,239.59,285H239c0,0,0-110.71,0-126s24-15.84,24,0s0,111.63,0,111.63s52.31,29.69,67.21,38.811   C345.111,318.56,330.46,337.39,318.21,330.31z"/>
</symbol>
<symbol id="mwbi-user" viewBox="0 0 24 24">
  <g><g><ellipse cx="12" cy="8" rx="5" ry="6"/><path d="M21.8,19.1c-0.9-1.8-2.6-3.3-4.8-4.2c-0.6-0.2-1.3-0.2-1.8,0.1c-1,0.6-2,0.9-3.2,0.9s-2.2-0.3-3.2-0.9    C8.3,14.8,7.6,14.7,7,15c-2.2,0.9-3.9,2.4-4.8,4.2C1.5,20.5,2.6,22,4.1,22h15.8C21.4,22,22.5,20.5,21.8,19.1z"/></g></g>
</symbol>
<symbol id="mwbi-visitors" viewBox="0 0 24 24">
  <g><g><path clip-rule="evenodd" d="M12,4C4.063,4-0.012,12-0.012,12S3.063,20,12,20    c8.093,0,12.011-7.969,12.011-7.969S20.062,4,12,4z M12.018,17c-2.902,0-5-2.188-5-5c0-2.813,2.098-5,5-5c2.902,0,5,2.187,5,5    C17.018,14.812,14.92,17,12.018,17z M12.018,9c-1.658,0.003-3,1.393-3,3c0,1.606,1.342,3,3,3c1.658,0,3-1.395,3-3    C15.018,10.392,13.676,8.997,12.018,9z" fill-rule="evenodd"/></g></g>
</symbol>
</defs>
</svg>
