<svg aria-hidden="true" style="position: absolute; width: 0; height: 0; overflow: hidden;" version="1.1" xmlns="http://www.w3.org/2000/svg" xmlns:xlink="http://www.w3.org/1999/xlink">
<defs>
<symbol id="mwsi-cart" viewBox="0 0 24 24">
  <g><g><path d="M20.756,5.345C20.565,5.126,20.29,5,20,5H6.181L5.986,3.836C5.906,3.354,5.489,3,5,3H2.75c-0.553,0-1,0.447-1,1    s0.447,1,1,1h1.403l1.86,11.164c0.008,0.045,0.031,0.082,0.045,0.124c0.016,0.053,0.029,0.103,0.054,0.151    c0.032,0.066,0.075,0.122,0.12,0.179c0.031,0.039,0.059,0.078,0.095,0.112c0.058,0.054,0.125,0.092,0.193,0.13    c0.038,0.021,0.071,0.049,0.112,0.065C6.748,16.972,6.87,17,6.999,17C7,17,18,17,18,17c0.553,0,1-0.447,1-1s-0.447-1-1-1H7.847    l-0.166-1H19c0.498,0,0.92-0.366,0.99-0.858l1-7C21.031,5.854,20.945,5.563,20.756,5.345z M18.847,7l-0.285,2H15V7H18.847z M14,7    v2h-3V7H14z M14,10v2h-3v-2H14z M10,7v2H7C6.947,9,6.899,9.015,6.852,9.03L6.514,7H10z M7.014,10H10v2H7.347L7.014,10z M15,12v-2    h3.418l-0.285,2H15z"/><circle cx="8.5" cy="19.5" r="1.5"/><circle cx="17.5" cy="19.5" r="1.5"/></g></g>
</symbol>
<symbol id="mwsi-step_cart" viewBox="0 0 32 32">
    <path style="text-indent:0;text-align:start;line-height:normal;text-transform:none;block-progression:tb;-inkscape-font-specification:Bitstream Vera Sans" d="M 16 3.09375 L 15.28125 3.78125 L 7.0625 12 L 3 12 L 2 12 L 2 13 L 2 17 L 2 18 L 3 18 L 3.25 18 L 6.03125 27.28125 L 6.25 28 L 7 28 L 25 28 L 25.75 28 L 25.96875 27.28125 L 28.75 18 L 29 18 L 30 18 L 30 17 L 30 13 L 30 12 L 29 12 L 24.9375 12 L 16.71875 3.78125 L 16 3.09375 z M 16 5.9375 L 22.0625 12 L 9.9375 12 L 16 5.9375 z M 4 14 L 28 14 L 28 16 L 27.25 16 L 27.03125 16.71875 L 24.25 26 L 7.75 26 L 4.96875 16.71875 L 4.75 16 L 4 16 L 4 14 z M 20.28125 16.28125 L 15 21.5625 L 11.71875 18.28125 L 10.28125 19.71875 L 14.28125 23.71875 L 15 24.40625 L 15.71875 23.71875 L 21.71875 17.71875 L 20.28125 16.28125 z" color="#000" overflow="visible" enable-background="accumulate" font-family="Bitstream Vera Sans"/>
</symbol>
<symbol id="mwsi-step_contact" viewBox="0 0 32 32">
  <path style="text-indent:0;text-align:start;line-height:normal;text-transform:none;block-progression:tb;-inkscape-font-specification:Bitstream Vera Sans" d="M 16 4 C 12.145852 4 9 7.1458513 9 11 C 9 13.393064 10.220383 15.517805 12.0625 16.78125 C 8.485554 18.302923 6 21.859881 6 26 L 8 26 C 8 21.533333 11.533333 18 16 18 C 20.466667 18 24 21.533333 24 26 L 26 26 C 26 21.859881 23.514446 18.302923 19.9375 16.78125 C 21.779617 15.517805 23 13.393064 23 11 C 23 7.1458513 19.854148 4 16 4 z M 16 6 C 18.773268 6 21 8.2267317 21 11 C 21 13.773268 18.773268 16 16 16 C 13.226732 16 11 13.773268 11 11 C 11 8.2267317 13.226732 6 16 6 z" color="#000" overflow="visible" enable-background="accumulate" font-family="Bitstream Vera Sans"/>
</symbol>
<symbol id="mwsi-step_ok" viewBox="0 0 32 32">
  <path style="text-indent:0;text-align:start;line-height:normal;text-transform:none;block-progression:tb;-inkscape-font-specification:Bitstream Vera Sans" d="M 16 3 C 8.8321429 3 3 8.8321429 3 16 C 3 23.167857 8.8321429 29 16 29 C 23.167857 29 29 23.167857 29 16 C 29 8.8321429 23.167857 3 16 3 z M 16 5 C 22.086977 5 27 9.9130231 27 16 C 27 22.086977 22.086977 27 16 27 C 9.9130231 27 5 22.086977 5 16 C 5 9.9130231 9.9130231 5 16 5 z M 22.28125 11.28125 L 15 18.5625 L 10.71875 14.28125 L 9.28125 15.71875 L 14.28125 20.71875 L 15 21.40625 L 15.71875 20.71875 L 23.71875 12.71875 L 22.28125 11.28125 z" color="#000" overflow="visible" enable-background="accumulate" font-family="Bitstream Vera Sans"/>
</symbol>
<symbol id="mwsi-step_shipping" viewBox="0 0 32 32">
  <path style="text-indent:0;text-align:start;line-height:normal;text-transform:none;block-progression:tb;-inkscape-font-specification:Bitstream Vera Sans" d="M 0 6 L 0 8 L 19 8 L 19 10 L 19 11 L 19 23 L 12.84375 23 C 12.396684 21.280158 10.853198 20 9 20 C 7.1468019 20 5.6033156 21.280158 5.15625 23 L 4 23 L 4 18 L 2 18 L 2 24 L 2 25 L 3 25 L 5.15625 25 C 5.6033156 26.719842 7.1468019 28 9 28 C 10.853198 28 12.396684 26.719842 12.84375 25 L 19 25 L 20 25 L 21 25 L 21.15625 25 C 21.603316 26.719842 23.146802 28 25 28 C 26.853198 28 28.396684 26.719842 28.84375 25 L 31 25 L 32 25 L 32 24 L 32 17 L 32 16.84375 L 31.9375 16.6875 L 29.9375 10.6875 L 29.71875 10 L 29 10 L 21 10 L 21 7 L 21 6 L 20 6 L 0 6 z M 1 10 L 1 12 L 10 12 L 10 10 L 1 10 z M 21 12 L 28.28125 12 L 30 17.125 L 30 23 L 28.84375 23 C 28.396684 21.280158 26.853198 20 25 20 C 23.146802 20 21.603316 21.280158 21.15625 23 L 21 23 L 21 12 z M 2 14 L 2 16 L 8 16 L 8 14 L 2 14 z M 9 22 C 10.116414 22 11 22.883586 11 24 C 11 25.116414 10.116414 26 9 26 C 7.883586 26 7 25.116414 7 24 C 7 22.883586 7.883586 22 9 22 z M 25 22 C 26.116414 22 27 22.883586 27 24 C 27 25.116414 26.116414 26 25 26 C 23.883586 26 23 25.116414 23 24 C 23 22.883586 23.883586 22 25 22 z"/>
</symbol>
<symbol id="mwsi-step_summarize" viewBox="0 0 32 32">
  <path style="text-indent:0;text-align:start;line-height:normal;text-transform:none;block-progression:tb;-inkscape-font-specification:Bitstream Vera Sans" d="M 16 2 C 14.74096 2 13.84816 2.8903886 13.40625 4 L 11 4 L 6 4 L 5 4 L 5 5 L 5 28 L 5 29 L 6 29 L 26 29 L 27 29 L 27 28 L 27 5 L 27 4 L 26 4 L 21 4 L 18.59375 4 C 18.15184 2.8903886 17.25904 2 16 2 z M 16 4 C 16.554545 4 17 4.4454545 17 5 L 17 6 L 18 6 L 20 6 L 20 8 L 12 8 L 12 6 L 14 6 L 15 6 L 15 5 C 15 4.4454545 15.445455 4 16 4 z M 7 6 L 10 6 L 10 9 L 10 10 L 11 10 L 21 10 L 22 10 L 22 9 L 22 6 L 25 6 L 25 27 L 7 27 L 7 6 z M 21.28125 13.28125 L 15 19.5625 L 11.71875 16.28125 L 10.28125 17.71875 L 14.28125 21.71875 L 15 22.40625 L 15.71875 21.71875 L 22.71875 14.71875 L 21.28125 13.28125 z" color="#000" overflow="visible" enable-background="accumulate" font-family="Bitstream Vera Sans"/>
</symbol>
<symbol id="mwsi-close" viewBox="0 0 512 512">
  <path d="M437.5,386.6L306.9,256l130.6-130.6c14.1-14.1,14.1-36.8,0-50.9c-14.1-14.1-36.8-14.1-50.9,0L256,205.1L125.4,74.5  c-14.1-14.1-36.8-14.1-50.9,0c-14.1,14.1-14.1,36.8,0,50.9L205.1,256L74.5,386.6c-14.1,14.1-14.1,36.8,0,50.9  c14.1,14.1,36.8,14.1,50.9,0L256,306.9l130.6,130.6c14.1,14.1,36.8,14.1,50.9,0C451.5,423.4,451.5,400.6,437.5,386.6z"/>
</symbol>
<symbol id="mwsi-reload" viewBox="0 0 16 16">
  <path d="M14,8c-0.609,0-0.898,0.43-1,0.883C12.635,10.516,11.084,13,8,13c-0.757,0-1.473-0.172-2.114-0.474L6.414,12  C6.773,11.656,7,11.445,7,11c0-0.523-0.438-1-1-1H3c-0.609,0-1,0.492-1,1v3c0,0.541,0.428,1,1,1c0.484,0,0.688-0.273,1-0.594  l0.408-0.407C5.458,14.632,6.685,15,8,15c4.99,0,7-4.75,7-5.938C15,8.336,14.469,8,14,8z M3,7.117C3.365,5.485,4.916,3,8,3  c0.757,0,1.473,0.171,2.114,0.473L9.586,4C9.227,4.344,9,4.555,9,5c0,0.523,0.438,1,1,1h3c0.609,0,1-0.492,1-1V2  c0-0.541-0.428-1-1-1c-0.484,0-0.688,0.273-1,0.594l-0.408,0.407C10.542,1.368,9.315,1,8,1C3.01,1,1,5.75,1,6.938  C1,7.664,1.531,8,2,8C2.609,8,2.898,7.57,3,7.117z"/>
</symbol>
<symbol id="mwsi-search" viewBox="0 0 32 32">
<path d="M19.4271164,21.4271164 C18.0372495,22.4174803 16.3366522,23 14.5,23 C9.80557939,23 6,19.1944206 6,14.5 C6,9.80557939 9.80557939,6 14.5,6 C19.1944206,6 23,9.80557939 23,14.5 C23,16.3366522 22.4174803,18.0372495 21.4271164,19.4271164 L27.0119176,25.0119176 C27.5621186,25.5621186 27.5575313,26.4424687 27.0117185,26.9882815 L26.9882815,27.0117185 C26.4438648,27.5561352 25.5576204,27.5576204 25.0119176,27.0119176 L19.4271164,21.4271164 L19.4271164,21.4271164 Z M14.5,21 C18.0898511,21 21,18.0898511 21,14.5 C21,10.9101489 18.0898511,8 14.5,8 C10.9101489,8 8,10.9101489 8,14.5 C8,18.0898511 10.9101489,21 14.5,21 L14.5,21 Z" />
</symbol>
</defs>
</svg>
