<svg aria-hidden="true" style="position: absolute; width: 0; height: 0; overflow: hidden;" version="1.1" xmlns="http://www.w3.org/2000/svg" xmlns:xlink="http://www.w3.org/1999/xlink">
<defs>
<symbol id="icon-ok1" viewBox="0 0 24 24">
  <path d="M21.652,3.211c-0.293-0.295-0.771-0.295-1.062,0L9.41,14.34c-0.293,0.297-0.771,0.297-1.062,0L3.449,9.351
  	C3.304,9.203,3.114,9.13,2.923,9.129C2.73,9.128,2.534,9.201,2.387,9.351l-2.165,1.946C0.078,11.445,0,11.63,0,11.823
  	c0,0.194,0.078,0.397,0.223,0.544l4.94,5.184c0.292,0.297,0.771,0.776,1.062,1.07l2.124,2.141c0.292,0.293,0.769,0.293,1.062,0
  	l14.366-14.34c0.293-0.294,0.293-0.777,0-1.071L21.652,3.211z"/>
</symbol>
<symbol id="icon-ok2" viewBox="0 1.875 22.125 22.125">
  <path d="M22.006,6.649L7.778,20.885L0,13.107l1.655-1.656l6.122,6.123L20.352,4.994L22.006,6.649z"/>
</symbol>
<symbol id="icon-play1" viewBox="0 0 27.493 27.493">
  <path d="M13.745,0C6.156,0,0,6.154,0,13.746c0,7.593,6.156,13.747,13.745,13.747
		c7.595,0,13.748-6.154,13.748-13.747C27.493,6.154,21.34,0,13.745,0z M21.904,14.032l-12.045,7.69
		C9.794,21.775,9.713,21.8,9.633,21.8l-0.162-0.035c-0.121-0.058-0.198-0.186-0.198-0.325V6.054c0-0.137,0.077-0.264,0.198-0.324
		c0.13-0.062,0.279-0.044,0.389,0.039l12.045,7.693c0.083,0.072,0.138,0.174,0.138,0.284C22.042,13.855,21.987,13.96,21.904,14.032z"/>
</symbol>
<symbol id="icon-play2" viewBox="0 0 64 64">
  <path d="M3.25,3.25v57.5h57.5V3.25H3.25z M22.649,49.151V13.793l21.68,17.681L22.649,49.151z"/>
</symbol>
<symbol id="icon-play3" viewBox="0 0 40.007 40.007">
  <path d="M37.324,10.004c-5.522-9.566-17.755-12.844-27.32-7.32C0.438,8.206-2.84,20.438,2.684,30.004
    c5.522,9.565,17.754,12.843,27.32,7.32C39.569,31.801,42.848,19.569,37.324,10.004z M28.004,33.859
    c-7.652,4.419-17.438,1.797-21.856-5.856c-4.419-7.652-1.796-17.438,5.856-21.855c7.652-4.419,17.438-1.797,21.856,5.856
    C38.278,19.656,35.656,29.441,28.004,33.859z M27.204,19.191l-10.473-6.108c-0.954-0.557-1.724-0.112-1.719,0.992l0.054,12.124
    c0.005,1.104,0.784,1.553,1.741,1l10.393-6C28.156,20.647,28.158,19.748,27.204,19.191z"/>
</symbol>
<symbol id="icon-play4" viewBox="-3.112 10.638 124.725 124.725">
  <path d="M114.75,17.499c-4.572-4.574-10.081-6.861-16.522-6.861H20.273c-6.441,0-11.95,2.287-16.525,6.861
		c-4.574,4.574-6.861,10.083-6.861,16.524v77.954c0,6.44,2.287,11.949,6.861,16.524c4.575,4.574,10.083,6.861,16.525,6.861h77.954
		c6.441,0,11.95-2.287,16.522-6.861c4.575-4.575,6.862-10.084,6.862-16.524V34.022C121.612,27.582,119.325,22.072,114.75,17.499z
		 M100.825,111.977c0,0.757-0.242,1.38-0.73,1.866c-0.486,0.487-1.108,0.729-1.867,0.729H20.273c-0.758,0-1.381-0.242-1.868-0.729
		c-0.487-0.486-0.73-1.109-0.73-1.866V34.021c0-0.757,0.243-1.38,0.73-1.868c0.487-0.486,1.11-0.73,1.868-0.73h77.954
		c0.759,0,1.381,0.244,1.868,0.73c0.487,0.487,0.729,1.11,0.729,1.868L100.825,111.977L100.825,111.977z"/>
	<path d="M83.043,68.773L46.664,42.789c-1.679-1.245-3.464-1.38-5.359-0.406c-1.895,0.921-2.843,2.464-2.843,4.63v51.971
		c0,2.165,0.948,3.708,2.843,4.628c1.895,0.976,3.68,0.84,5.359-0.406l36.379-25.984c1.462-1.028,2.19-2.436,2.19-4.222
		C85.233,71.211,84.505,69.804,83.043,68.773z"/>
</symbol>
<symbol id="icon-play5" viewBox="19.615 17.347 31.181 31.181">
  <path d="M27.227,18.035c-2.811-1.613-5.09-0.292-5.09,2.948v23.909c0,3.242,2.279,4.562,5.09,2.95L48.12,35.858
  	c2.813-1.612,2.813-4.228,0-5.84L27.227,18.035z"/>
</symbol>
<symbol id="icon-play6" viewBox="137.481 14.176 566.929 566.93">
  <path d="M693.694,209.485c-1.536-16.924-3.744-32.044-6.613-45.385c-3.28-14.965-10.412-27.585-21.383-37.836
		c-10.978-10.25-23.746-16.197-38.307-17.847c-45.532-5.131-114.353-7.69-206.45-7.69c-92.102,0-160.916,2.56-206.449,7.69
		c-14.566,1.649-27.281,7.597-38.151,17.847c-10.876,10.251-17.953,22.871-21.228,37.836c-3.078,13.341-5.382,28.461-6.923,45.385
		c-1.536,16.924-2.411,30.925-2.613,42.003c-0.209,11.066-0.304,26.454-0.304,46.152c0,19.686,0.101,35.067,0.304,46.151
		c0.202,11.066,1.077,25.073,2.613,41.991c1.541,16.924,3.738,32.057,6.613,45.385c3.28,14.989,10.411,27.597,21.383,37.848
		c10.971,10.263,23.739,16.216,38.306,17.847c45.533,5.131,114.348,7.69,206.449,7.69c92.097,0,160.911-2.56,206.45-7.69
		c14.561-1.637,27.276-7.584,38.151-17.847c10.87-10.251,17.948-22.858,21.229-37.848c3.077-13.328,5.381-28.461,6.923-45.385
		c1.536-16.924,2.411-30.925,2.613-41.991c0.202-11.078,0.31-26.466,0.31-46.151c0-19.698-0.107-35.08-0.31-46.152
		C696.105,240.404,695.23,226.403,693.694,209.485z M529.861,314.249l-157.53,98.453c-2.875,2.054-6.357,3.077-10.459,3.077
		c-3.078,0-6.257-0.815-9.536-2.464c-6.769-3.691-10.156-9.424-10.156-17.222V199.18c0-7.786,3.382-13.542,10.156-17.233
		c6.971-3.69,13.638-3.471,19.995,0.613l157.53,98.453c6.155,3.501,9.232,9.037,9.232,16.62
		C539.088,305.236,536.01,310.772,529.861,314.249z"/>
</symbol>
<symbol id="icon-right1" viewBox="0 0 32 32">
  <path d="M8 4 V28 L26 16 z"/>
</symbol>
<symbol id="icon-right2" viewBox="0 0 32 32">
  <path d="M24.291,14.276L14.705,4.69c-0.878-0.878-2.317-0.878-3.195,0l-0.8,0.8c-0.878,0.877-0.878,2.316,0,3.194  L18.024,16l-7.315,7.315c-0.878,0.878-0.878,2.317,0,3.194l0.8,0.8c0.878,0.879,2.317,0.879,3.195,0l9.586-9.587  c0.472-0.471,0.682-1.103,0.647-1.723C24.973,15.38,24.763,14.748,24.291,14.276z"/>
</symbol>
<symbol id="icon-right3" viewBox="0 0 512 512">
  <path d="M322.7,128.4L423,233.4c6,5.8,9,13.7,9,22.4c0,8.7-3,16.5-9,22.4L322.7,383.6c-11.9,12.5-31.3,12.5-43.2,0  c-11.9-12.5-11.9-32.7,0-45.2l48.2-50.4h-217C93.7,288,80,273.7,80,256c0-17.7,13.7-32,30.6-32h217l-48.2-50.4  c-11.9-12.5-11.9-32.7,0-45.2C291.4,115.9,310.7,115.9,322.7,128.4z"/>
</symbol>
<symbol id="icon-right4" viewBox="0 0 32 32">
  <path clip-rule="evenodd" d="M32,16.009c0-0.267-0.11-0.522-0.293-0.714  l-9.899-9.999c-0.391-0.395-1.024-0.394-1.414,0c-0.391,0.394-0.391,1.034,0,1.428l8.193,8.275H1c-0.552,0-1,0.452-1,1.01  s0.448,1.01,1,1.01h27.586l-8.192,8.275c-0.391,0.394-0.39,1.034,0,1.428c0.391,0.394,1.024,0.394,1.414,0l9.899-9.999  C31.894,16.534,31.997,16.274,32,16.009z" fill-rule="evenodd"/>
</symbol>
<symbol id="icon-check1" viewBox="0 0 1792 1792">
  <path d="M1671 566q0 40-28 68l-724 724-136 136q-28 28-68 28t-68-28l-136-136-362-362q-28-28-28-68t28-68l136-136q28-28 68-28t68 28l294 295 656-657q28-28 68-28t68 28l136 136q28 28 28 68z"/>
</symbol>
<symbol id="icon-check2" viewBox="0 0 32 32">
  <path stroke="null" fill-rule="evenodd" d="m31.355765,5.766754c-0.516841,-0.512906 -1.356381,-0.512906 -1.873222,0l-18.742715,18.618096l-8.240603,-8.123855c-0.516841,-0.512906 -1.356381,-0.512906 -1.873222,0c-0.516841,0.512906 -0.516841,1.343263 0,1.854857l9.18115,9.049972c0.511594,0.506347 1.36294,0.506347 1.874534,0l19.674079,-19.544213c0.518153,-0.511594 0.518153,-1.343263 0,-1.854857c-0.516841,-0.512906 0.518153,0.511594 0,0z" clip-rule="evenodd"/>
</symbol>
<symbol id="icon-circle1" viewBox="0 0 1792.0000000000002 1792.0000000000002">
  <path stroke="null" d="m1436.854371,878.527276q0,150.989587 -74.411136,278.499932t-201.921481,201.921481t-278.499932,74.411136t-278.499932,-74.411136t-201.921481,-201.921481t-74.411136,-278.499932t74.411136,-278.499932t201.921481,-201.921481t278.499932,-74.411136t278.499932,74.411136t201.921481,201.921481t74.411136,278.499932z"/>
</symbol>
<symbol id="icon-plus1" viewBox="0 0 1000 1000">
  <path stroke="null" d="m948.715268,441.294671l0,122.834987c0,17.060628 -5.970932,31.561554 -17.913436,43.504058s-26.44343,17.913436 -43.504058,17.913436l-266.142472,0l0,266.142472c0,17.060628 -5.970932,31.561554 -17.913436,43.504058s-26.44343,17.913436 -43.504058,17.913436l-122.834987,0c-17.060628,0 -31.561554,-5.970932 -43.504058,-17.913436s-17.913436,-26.44343 -17.913436,-43.504058l0,-266.142472l-266.142472,0c-17.060628,0 -31.561554,-5.970932 -43.504058,-17.913436s-17.913436,-26.44343 -17.913436,-43.504058l0,-122.834987c0,-17.060628 5.970932,-31.561554 17.913436,-43.504058s26.44343,-17.913436 43.504058,-17.913436l266.142472,0l0,-266.142472c0,-17.060628 5.970932,-31.561554 17.913436,-43.504058s26.44343,-17.913436 43.504058,-17.913436l122.834987,0c17.060628,0 31.561554,5.970932 43.504058,17.913436s17.913436,26.44343 17.913436,43.504058l0,266.142472l266.142472,0c17.060628,0 31.561554,5.970932 43.504058,17.913436s17.913436,26.44343 17.913436,43.504058z"/>
</symbol>
<symbol id="icon-cross1" viewBox="0 0 1000 1000">
  <path stroke="null" d="m942.555143,758.447102c0,19.853762 -6.948482,36.728753 -20.84619,50.626461l-101.252922,101.252922c-13.897708,13.897708 -30.772699,20.84619 -50.626461,20.84619s-36.728753,-6.948482 -50.626461,-20.84619l-218.884992,-218.884992l-218.884992,218.884992c-13.897708,13.897708 -30.772699,20.84619 -50.626461,20.84619s-36.728753,-6.948482 -50.626461,-20.84619l-101.252922,-101.252922c-13.897708,-13.897708 -20.84619,-30.772699 -20.84619,-50.626461s6.948482,-36.728753 20.84619,-50.626461l218.884992,-218.884992l-218.884992,-218.884992c-13.897708,-13.897708 -20.84619,-30.772699 -20.84619,-50.626461s6.948482,-36.728753 20.84619,-50.626461l101.252922,-101.252922c13.897708,-13.897708 30.772699,-20.84619 50.626461,-20.84619s36.728753,6.948482 50.626461,20.84619l218.884992,218.884992l218.884992,-218.884992c13.897708,-13.897708 30.772699,-20.84619 50.626461,-20.84619s36.728753,6.948482 50.626461,20.84619l101.252922,101.252922c13.897708,13.897708 20.84619,30.772699 20.84619,50.626461s-6.948482,36.728753 -20.84619,50.626461l-218.884992,218.884992l218.884992,218.884992c13.897708,13.897708 20.84619,30.772699 20.84619,50.626461z"/>
</symbol>
<symbol id="icon-cross2" viewBox="0 0 256 256">
  <path stroke="null" d="m138.448716,126.751949l89.211832,-89.211832c2.955013,-2.955013 2.955013,-7.743315 0,-10.698328s-7.743315,-2.955013 -10.698328,0l-89.211832,89.211832l-89.211832,-89.21065c-2.955013,-2.955013 -7.743315,-2.955013 -10.698328,0s-2.955013,7.743315 0,10.698328l89.211832,89.21065l-89.211832,89.211832c-2.955013,2.955013 -2.955013,7.743315 0,10.698328c1.477506,1.477506 3.413631,2.216259 5.348573,2.216259s3.871067,-0.738753 5.348573,-2.216259l89.213014,-89.211832l89.211832,89.211832c1.477506,1.477506 3.413631,2.216259 5.348573,2.216259s3.871067,-0.738753 5.348573,-2.216259c2.955013,-2.955013 2.955013,-7.743315 0,-10.698328l-89.21065,-89.211832z"/>
</symbol>
<symbol id="icon-minus1" viewBox="0 0 1000 1000">
  <path stroke="null" d="m952.709057,430.039443l0,122.834988c0,17.060628 -5.970932,31.561554 -17.913436,43.504058s-26.44343,17.913436 -43.504058,17.913436l-777.954922,0c-17.060628,0 -31.561554,-5.970932 -43.504058,-17.913436s-17.913436,-26.44343 -17.913436,-43.504058l0,-122.834988c0,-17.060628 5.970932,-31.561554 17.913436,-43.504058s26.44343,-17.913436 43.504058,-17.913436l777.954922,0c17.060628,0 31.561554,5.970932 43.504058,17.913436s17.913436,26.44343 17.913436,43.504058z"/>
</symbol>
<symbol id="icon-star1" viewBox="0 0 1000 1000">
  <path stroke="null" d="m949.059238,403.703948c0,7.90763 -4.672764,16.533939 -14.017753,25.878928l-195.709392,190.857093l46.366412,269.572165c0.359609,2.516187 0.539144,6.110123 0.539144,10.782887c0,7.548021 -1.887005,13.927715 -5.661015,19.139624s-9.255491,7.817593 -16.443902,7.817593c-6.829341,0 -14.017753,-2.156577 -21.565773,-6.469732l-242.075804,-127.238062l-242.075804,127.238062c-7.90763,4.313155 -15.096041,6.469732 -21.565773,6.469732c-7.548021,0 -13.209036,-2.605685 -16.983046,-7.817593s-5.661015,-11.591603 -5.661015,-19.139624c0,-2.156577 0.359609,-5.751053 1.078289,-10.782887l46.366412,-269.572165l-196.248536,-190.857093c-8.985919,-9.704598 -13.478608,-18.330907 -13.478608,-25.878928c0,-13.299073 10.064207,-21.565773 30.192082,-24.800639l270.650454,-39.357536l121.307474,-245.31067c6.829341,-14.736432 15.635186,-22.104918 26.418072,-22.104918s19.588731,7.368486 26.418072,22.104918l121.307474,245.31067l270.650454,39.357536c20.127875,3.234866 30.192082,11.501566 30.192082,24.800639z"/>
</symbol>
<symbol id="icon-heart1" viewBox="0 0 1000 1000">
  <path stroke="null" d="m500.61573,868.866182c-8.448198,0 -15.596973,-2.924432 -21.445838,-8.773297l-304.140974,-293.418055c-3.249532,-2.599333 -7.71709,-6.823676 -13.403649,-12.672541s-14.703559,-16.490387 -27.051,-31.925054s-23.39546,-31.275343 -33.143568,-47.522027s-18.440009,-35.905694 -26.076189,-58.976054s-11.454027,-45.491009 -11.454027,-67.261946c0,-71.486289 20.633333,-127.375117 61.900487,-167.66746s98.293586,-60.43827 171.079298,-60.43827c20.145928,0 40.698351,3.493235 61.656784,10.479216s40.454649,16.409478 58.488649,28.269514s33.549576,22.989451 46.547216,33.38727s25.345081,21.445838 37.042811,33.143568c11.69773,-11.69773 24.045171,-22.745748 37.042811,-33.143568s28.513216,-21.527235 46.547216,-33.38727s37.530216,-21.283532 58.488649,-28.269514s41.510856,-10.479216 61.656784,-10.479216c72.785712,0 129.812144,20.145928 171.079298,60.43827s61.900487,96.181171 61.900487,167.66746c0,71.810901 -37.205117,144.921712 -111.615838,219.332433l-303.653569,292.443244c-5.848865,5.848865 -12.99764,8.773297 -21.445838,8.773297z"/>
</symbol>
</defs>
</svg>
